<svg width="561" height="634" viewBox="0 0 561 634" fill="none" xmlns="http://www.w3.org/2000/svg">
<path d="M133.51 461.878L151.017 482.843L174.655 496.155C179.586 498.931 181.213 505.226 178.144 509.649L125.091 586.152C125.091 586.152 102.316 562.78 92.611 554.708C82.9062 546.633 54.5352 527.435 54.5352 527.435L119.85 460.941C123.567 457.159 129.937 457.595 133.51 461.878Z" fill="#00898D"/>
<path d="M223.234 395.598C220.68 443.157 179.47 506.712 179.47 506.712C156.51 496.441 136.688 479.944 122.387 459.208C122.387 459.208 179.156 405.507 223.234 395.598Z" fill="#FF3C00"/>
<path d="M179.458 506.702C179.458 506.702 189.64 492.08 174.452 514.958C133.154 577.169 125.086 586.148 125.086 586.148C125.086 586.148 109.219 567.093 92.6055 554.701C92.6055 554.701 113.986 529.46 144.792 493.025C146.193 491.367 147.595 489.659 148.99 487.934C158.261 495.459 168.498 501.795 179.458 506.702Z" fill="#004345"/>
<path d="M148.988 487.935C178.215 451.851 205.908 402.44 208.124 400.411C213.249 398.358 218.313 396.687 223.22 395.586C223.2 395.985 223.152 396.398 223.125 396.8C222.661 401.888 220.066 422.859 207.302 453.852C194.767 483.069 179.456 506.704 179.456 506.704C168.497 501.797 158.26 495.461 148.988 487.935Z" fill="#DD2400"/>
<path d="M54.5321 527.433C52.9498 529.346 67.4628 544.04 86.944 560.254C106.429 576.469 123.506 588.063 125.088 586.15C126.67 584.237 112.157 569.543 92.6762 553.328C73.1915 537.117 56.1143 525.52 54.5321 527.433Z" fill="#004345"/>
<path d="M206.186 357.481L264.273 406.254L352.667 300.979L294.579 252.207L206.186 357.481Z" fill="#FF3C00"/>
<path d="M281.07 344.234C281.07 344.234 284.087 340.466 282.488 337.438C280.889 334.41 253.445 310.066 253.445 310.066C253.445 310.066 287.133 331.178 294.409 337.479C301.686 343.781 306.992 355.944 306.992 355.944L301.731 361.588L281.07 344.234Z" fill="#BA2700"/>
<path d="M232.387 282.848L322.97 358.137L332.947 367.795L408.042 278.361L307.229 193.715L232.387 282.848Z" fill="url(#paint0_linear_544_94)"/>
<path d="M138.238 438.341L196.331 487.117L301.727 361.589L243.637 312.812L138.238 438.341Z" fill="url(#paint1_linear_544_94)"/>
<path opacity="0.32" d="M268.003 333.273C268.003 333.273 266.803 348.816 256.487 365.065C246.176 381.313 167.289 462.733 167.289 462.733L196.335 487.122L301.731 361.597L268.003 333.273Z" fill="#00898D"/>
<path d="M398.177 110.946L432.324 150.948L477.367 177.505C486.761 183.043 490.243 194.715 484.835 202.531L391.271 337.72C391.271 337.72 347.122 292.828 328.446 277.145C309.769 261.462 255.469 223.694 255.469 223.694L372.622 107.962C379.285 101.388 391.203 102.779 398.177 110.946Z" fill="url(#paint2_linear_544_94)"/>
<path d="M560.285 9.5307C553.206 94.4461 487.097 197.267 487.097 197.267C443.309 176.231 405.523 144.508 377.23 105.017C377.23 105.017 470.173 20.2892 549.52 0.269198C555.331 -1.20051 560.783 3.553 560.285 9.5307Z" fill="#FF3C00"/>
<path d="M391.275 337.722L365.887 328.556C365.887 328.556 342.88 305.017 319.327 285.526C288.399 259.93 265.102 243.873 265.102 243.873L255.469 223.699L261.163 227.065C310.54 256.248 354.546 293.675 391.275 337.722Z" fill="#004345"/>
<path d="M306.996 355.939C306.996 355.939 297.581 345.061 280.596 330.998C258.288 312.533 248.73 306.971 248.73 306.971L242.391 291.234C272.538 309.706 299.893 332.407 323.593 358.605L306.996 355.939Z" fill="#004345"/>
<path opacity="0.32" d="M479.064 193.107C435.153 271.677 391.284 337.721 391.284 337.721C391.284 337.721 371.093 314.793 359.264 302.878C341.897 285.388 333.941 279.38 333.941 279.38C333.941 279.38 380.812 240.093 438.676 167.781C451.385 177.288 464.881 185.772 479.064 193.107Z" fill="#00898D"/>
<path d="M455.964 145.587C488.792 102.28 540.815 19.4617 554.984 8.96237C556.354 7.9462 558.264 9.08174 558.08 10.7765C556.682 23.5844 547.325 87.1772 493.498 171.018C488.625 178.613 483.81 185.961 479.064 193.105C464.881 185.77 451.385 177.286 438.676 167.776C444.347 160.69 450.12 153.3 455.964 145.587Z" fill="#DD2400"/>
<path d="M383.041 263.47C411.818 261.538 433.58 236.643 431.647 207.866C429.715 179.089 404.82 157.327 376.043 159.259C347.266 161.191 325.504 186.086 327.436 214.863C329.369 243.641 354.264 265.403 383.041 263.47Z" fill="#FF3C00"/>
<path opacity="0.32" d="M292.042 327.674C292.042 327.674 303.622 309.761 302.248 290.133C301.286 276.412 289.051 263.116 281.778 256.357C278.647 253.452 276.438 251.754 276.438 251.754C276.438 251.754 312.256 278.594 330.121 294.45C347.986 310.307 365.895 328.557 365.895 328.557L332.948 367.799C332.948 367.799 306.227 339.677 292.042 327.674Z" fill="#00898D"/>
<path d="M400.178 297.044L464.773 222.367L456.505 215.215L391.91 289.892L400.178 297.044Z" fill="#004345"/>
<path d="M454.817 229.868L460.855 222.887L453.384 216.424L447.345 223.405L454.817 229.868Z" fill="#FFD400"/>
<path d="M446.985 238.927L453.023 231.945L445.552 225.483L439.513 232.464L446.985 238.927Z" fill="#FFD400"/>
<path d="M439.164 248.009L445.203 241.027L437.732 234.565L431.693 241.546L439.164 248.009Z" fill="#FFD400"/>
<path d="M431.321 257.04L437.359 250.059L429.888 243.596L423.849 250.577L431.321 257.04Z" fill="#FFD400"/>
<path d="M423.489 266.098L429.527 259.117L422.056 252.655L416.017 259.636L423.489 266.098Z" fill="#FFD400"/>
<path d="M415.657 275.145L421.695 268.164L414.224 261.701L408.185 268.683L415.657 275.145Z" fill="#FFD400"/>
<path d="M407.824 284.216L413.863 277.234L406.392 270.772L400.353 277.753L407.824 284.216Z" fill="#FFD400"/>
<path d="M399.992 293.274L406.031 286.293L398.56 279.83L392.521 286.812L399.992 293.274Z" fill="#FFD400"/>
<path opacity="0.66" d="M539.802 14.1807C539.802 14.1807 478.723 42.3915 438.464 72.8222C398.206 103.253 387.659 117.739 387.659 117.739L379.895 106.544C379.895 106.544 427.692 60.594 482.409 34.0405C537.129 7.4835 553.671 0.663532 552.007 4.53386C550.346 8.40761 539.802 14.1807 539.802 14.1807Z" fill="url(#paint3_linear_544_94)"/>
<path opacity="0.66" d="M389.483 127.107C389.483 127.107 357.655 157.418 335.155 180.756C312.656 204.094 284.418 237.727 284.418 237.727L264.129 224.189C264.129 224.189 311.63 176.739 341.403 147.686C368.355 121.382 378.711 112.73 378.711 112.73L389.483 127.107Z" fill="url(#paint4_linear_544_94)"/>
<path d="M242.523 314.146L300.612 362.922C301.349 363.543 302.447 363.444 303.064 362.707C303.685 361.971 303.589 360.873 302.849 360.252L244.757 311.476C244.02 310.855 242.922 310.951 242.305 311.691C241.688 312.427 241.783 313.525 242.523 314.146Z" fill="#004345"/>
<path d="M135.523 429.353L205.653 488.237L297.03 379.407L226.901 320.523L135.523 429.353Z" fill="url(#paint5_linear_544_94)"/>
<path opacity="0.32" d="M256.314 345.207C256.314 345.207 257.637 360.668 249.361 375.314C241.085 389.96 170.594 458.787 170.594 458.787L205.659 488.229L297.039 379.399L256.314 345.207Z" fill="#00898D"/>
<path d="M225.56 322.137L295.69 381.02C296.58 381.767 297.906 381.651 298.653 380.761C299.4 379.871 299.284 378.545 298.394 377.798L228.264 318.914C227.374 318.167 226.048 318.283 225.301 319.173C224.554 320.063 224.67 321.39 225.56 322.137Z" fill="#004345"/>
<path d="M126.277 435.222L201.471 498.358L281.459 403.093L206.265 339.957L126.277 435.222Z" fill="url(#paint6_linear_544_94)"/>
<path opacity="0.32" d="M237.804 366.426C237.804 366.426 240.614 381.348 233.831 394.555C227.049 407.765 163.879 466.782 163.879 466.782L201.477 498.351L281.465 403.087L237.804 366.426Z" fill="#00898D"/>
<path d="M130.087 438.683C128.505 440.596 143.017 455.29 162.499 471.504C181.983 487.719 199.06 499.313 200.643 497.4C202.225 495.487 187.712 480.793 168.231 464.578C148.746 448.364 131.669 436.77 130.087 438.683Z" fill="#004345"/>
<path d="M204.821 341.687L280.014 404.823C280.969 405.624 282.388 405.501 283.189 404.547C283.99 403.592 283.868 402.173 282.913 401.372L207.719 338.236C206.764 337.435 205.346 337.557 204.545 338.512C203.743 339.467 203.866 340.886 204.821 341.687Z" fill="#004345"/>
<path d="M372.216 184.74C382.111 171.847 395.973 173.603 407.134 183.513C418.291 193.422 422.52 207.73 412.62 220.623C411.853 221.623 411.042 222.55 410.196 223.42C410.186 223.433 410.176 223.447 410.165 223.461C408.232 225.752 405.783 227.45 403.062 228.862C402.142 229.36 401.2 229.806 400.249 230.192C395.605 232.211 383.67 236.03 379.008 238.342C372.383 241.629 366.003 248.422 363.493 251.279C362.712 252.169 361.73 252.858 360.635 253.308L359.251 253.878C357.675 254.529 355.872 254.277 354.535 253.216L343.916 244.797C342.143 243.388 342.071 240.715 343.793 239.242C349.716 234.171 361.539 223.293 363.213 215.996C365.457 206.203 364.898 195.355 369.982 188.058C369.992 188.044 369.999 188.034 370.009 188.024C370.671 186.899 371.404 185.801 372.216 184.74Z" fill="#BA2700"/>
<path d="M365.973 179.307C375.869 166.413 389.731 168.17 400.892 178.079C412.049 187.988 416.274 202.297 406.378 215.19C405.611 216.189 404.8 217.116 403.954 217.986C403.944 218 403.933 218.013 403.923 218.027C401.99 220.318 399.541 222.017 396.82 223.428C395.899 223.926 394.958 224.373 394.007 224.758C389.363 226.777 384.213 228.308 379.552 230.62C371.037 234.845 370.601 236.99 370.601 236.99L361.725 229.106L352.773 221.157C352.773 221.157 354.724 220.359 356.971 210.566C359.215 200.772 358.656 189.925 363.74 182.628C363.75 182.614 363.757 182.604 363.767 182.594C364.429 181.465 365.159 180.364 365.973 179.307Z" fill="#FFD400"/>
<path d="M354.232 219.117C354.232 219.117 356.224 224.198 361.676 229.057C367.142 233.896 372.158 235.038 372.158 235.038C372.158 235.038 373.035 240.037 371.551 240.396C370.068 240.754 369.833 240.266 369.833 240.266C369.833 240.266 362.689 250.683 358.205 251.168C354.045 251.621 348.906 246.874 348.19 246.189C347.48 245.606 342.522 241.388 342.147 236.907C341.745 232.079 349.901 222.561 349.901 222.561C349.901 222.561 349.41 222.404 349.458 220.771C349.502 219.138 354.232 219.117 354.232 219.117Z" fill="url(#paint7_linear_544_94)"/>
<path d="M366.414 233.004C367.567 231.63 373.953 224.056 380.194 217.571C379.59 216.442 379.144 215.091 378.905 213.615C378.086 213.867 377.288 213.976 376.552 213.922C375.386 213.816 374.479 213.342 373.892 212.507L375.526 211.361C375.761 211.695 376.15 211.893 376.702 211.93C377.302 211.975 377.998 211.842 378.721 211.562C378.741 210.154 379.198 208.793 380.091 207.508C381.452 205.537 383.996 202.232 385.732 202.294C386.223 202.328 386.683 202.577 386.946 203.02C387.975 204.759 385.677 208.442 383.72 210.502C382.833 211.433 381.831 212.207 380.801 212.783C380.947 213.973 381.254 215.091 381.677 216.043C385.653 212.016 389.387 208.677 391.454 207.954C394.338 206.959 395.344 208.261 395.638 208.878C396.913 211.508 393.452 216.53 387.921 220.073C385.8 221.427 384.091 221.062 383.01 220.534C382.417 220.234 381.865 219.794 381.367 219.245C376.225 224.622 370.755 230.921 367.945 234.273L366.414 233.004ZM392.112 209.85C390.332 210.464 386.731 213.748 382.758 217.813C383.113 218.225 383.505 218.549 383.911 218.754C384.814 219.211 385.773 219.088 386.847 218.399C392.48 214.795 394.304 210.71 393.847 209.755C393.813 209.693 393.742 209.649 393.633 209.622C393.35 209.55 392.824 209.601 392.112 209.85ZM381.732 208.643C381.357 209.189 381.08 209.751 380.913 210.331C381.391 209.976 381.848 209.571 382.267 209.124C383.842 207.47 384.818 205.639 385.125 204.66C384.368 205.288 383.099 206.665 381.732 208.643Z" fill="black"/>
<path d="M356.344 224.179C358.891 220.544 363.655 213.502 367.61 207.013C367.113 206.675 366.673 206.286 366.318 205.847C365.476 204.81 364.654 203.016 365.544 200.363C367.696 193.959 371.525 189.417 374.263 190.028C375.16 190.181 376.446 190.999 376.084 194.191C375.825 196.49 373.428 201.13 370.461 206.15C371.419 206.416 372.456 206.542 373.564 206.484C373.892 205.298 374.403 204.101 375.071 203.009C376.602 200.513 379.689 197.434 381.465 198.157C381.912 198.348 382.222 198.72 382.335 199.2C382.758 200.987 379.91 204.585 378.669 206.048C377.67 207.221 376.517 207.968 375.211 208.278C375.078 209.181 375.099 210.017 375.283 210.692C375.389 211.077 375.6 211.579 376.023 211.797L375.095 213.567C374.263 213.127 373.66 212.319 373.363 211.224C373.141 210.423 373.087 209.488 373.182 208.496C371.835 208.517 370.546 208.305 369.411 207.903C364.422 216.124 358.403 224.721 357.987 225.318L356.344 224.179ZM373.83 191.978C372.892 191.774 369.581 194.594 367.43 201.004C366.949 202.44 367.092 203.644 367.863 204.588C368.074 204.851 368.337 205.089 368.637 205.304C371.576 200.367 373.868 195.968 374.093 193.97C374.26 192.537 373.96 192.009 373.83 191.978ZM376.77 204.053C376.411 204.636 376.111 205.25 375.862 205.877C376.313 205.604 376.742 205.229 377.145 204.759C378.768 202.846 379.798 201.202 380.193 200.285C379.344 200.82 377.929 202.167 376.77 204.053Z" fill="black"/>
<path d="M369.198 240.9C369.683 241.019 370.187 240.763 370.371 240.286C370.566 239.771 370.313 239.195 369.795 238.997C369.751 238.976 365.318 237.244 359.398 232.245C353.492 227.263 350.781 222.135 350.754 222.083C350.498 221.589 349.891 221.401 349.41 221.657C348.923 221.909 348.728 222.513 348.984 223.001C349.097 223.222 351.882 228.515 358.113 233.773C364.315 239.007 368.895 240.787 369.086 240.859C369.123 240.876 369.161 240.889 369.198 240.9Z" fill="black"/>
<path d="M363.44 243.509C363.907 243.625 364.401 243.39 364.596 242.936C364.817 242.432 364.582 241.845 364.077 241.624C364.026 241.603 358.979 239.39 355.201 235.428C351.416 231.452 350.059 228.594 350.042 228.567C349.813 228.069 349.217 227.847 348.719 228.082C348.221 228.311 348.003 228.904 348.231 229.402C348.293 229.528 349.715 232.56 353.759 236.805C357.82 241.075 363.061 243.363 363.283 243.462C363.338 243.482 363.389 243.499 363.44 243.509Z" fill="black"/>
<path d="M361.816 245.629C362.283 245.745 362.778 245.51 362.972 245.057C363.194 244.552 362.959 243.965 362.454 243.744C362.403 243.723 357.356 241.51 353.574 237.541C349.793 233.565 348.432 230.711 348.418 230.68C348.19 230.189 347.593 229.964 347.095 230.199C346.598 230.428 346.376 231.021 346.608 231.519C346.669 231.645 348.091 234.673 352.132 238.919C356.197 243.191 361.438 245.479 361.659 245.578C361.711 245.599 361.762 245.616 361.816 245.629Z" fill="black"/>
<path d="M360.193 247.748C360.66 247.864 361.155 247.629 361.349 247.175C361.571 246.671 361.336 246.084 360.831 245.862C360.78 245.842 355.733 243.629 351.951 239.663C348.17 235.687 346.806 232.829 346.792 232.799C346.56 232.304 345.967 232.089 345.466 232.318C344.971 232.553 344.753 233.14 344.981 233.641C345.043 233.767 346.468 236.802 350.509 241.041C354.577 245.31 359.818 247.598 360.036 247.697C360.088 247.717 360.139 247.738 360.193 247.748Z" fill="black"/>
<path d="M361.754 195.137C361.754 195.137 367.551 170.148 387.261 175.052C402.554 178.857 406.155 192.426 406.155 192.426C406.155 192.426 397.064 186.24 387.261 184.954C369.3 182.598 364.356 192.589 361.754 195.137Z" fill="url(#paint8_linear_544_94)"/>
<path d="M420.654 154.966C422.236 156.293 423.873 157.65 425.568 159.035C468.966 194.505 486.003 198.788 486.709 198.952C487.646 199.17 488.584 198.59 488.802 197.653C489.017 196.715 488.437 195.787 487.51 195.562C487.343 195.521 470.3 191.099 427.77 156.337C385.34 121.671 378.943 104.601 378.885 104.434C378.561 103.523 377.572 103.053 376.668 103.367C375.765 103.684 375.284 104.666 375.594 105.573C375.826 106.262 381.62 122.19 420.654 154.966Z" fill="#004345"/>
<path d="M172.671 508.826L190.28 527.782L213.233 538.482C218.02 540.713 219.896 546.793 217.257 551.512L171.604 633.171C171.604 633.171 148.907 612.387 139.342 605.403C129.777 598.416 102.047 582.379 102.047 582.379L159.781 509.354C163.062 505.201 169.074 504.955 172.671 508.826Z" fill="url(#paint9_linear_544_94)"/>
<path d="M253.359 433.402C253.577 480.917 218.342 548.448 218.342 548.448C196.194 540.694 176.655 526.427 162.07 507.355C162.07 507.355 212.473 447.956 253.359 433.402Z" fill="#FF3C00"/>
<path d="M86.23 425.41L100.453 445.989L121.694 459.697C126.123 462.555 126.857 468.55 123.266 472.543L61.1393 541.66C61.1393 541.66 42.1048 518.554 33.7367 510.475C25.372 502.397 0.308594 482.923 0.308594 482.923L73.0368 423.828C77.1731 420.472 83.3247 421.209 86.23 425.41Z" fill="url(#paint10_linear_544_94)"/>
<path d="M182.727 367.758C173.776 412.279 124.955 469.846 124.955 469.846C103.96 459.026 86.869 442.525 75.7422 422.328C75.7422 422.328 138.397 374.81 182.727 367.758Z" fill="#FF3C00"/>
<path opacity="0.32" d="M218.339 548.451C218.339 548.451 231.43 523.34 241.606 492.98C235.788 511.156 227.103 532.84 214.087 557.187C178.695 623.395 171.606 633.172 171.606 633.172C171.606 633.172 155.643 615.938 139.344 605.404C139.344 605.404 158.051 578.049 185 538.569C186.228 536.771 187.448 534.927 188.666 533.065C197.798 539.547 207.769 544.747 218.339 548.451Z" fill="#00898D"/>
<path opacity="0.58" d="M360.688 513.003C360.691 512.601 360.711 512.188 360.708 511.789C360.708 511.789 360.711 512.209 360.688 513.003Z" fill="#00898D"/>
<path d="M188.668 533.059C214.151 494.093 237.461 442.057 239.432 439.806C244.135 437.218 248.806 435.019 253.355 433.402C253.359 433.801 253.338 434.214 253.335 434.616C253.181 439.721 251.896 460.825 241.605 492.978C231.429 523.341 218.338 548.448 218.338 548.448C207.767 544.745 197.796 539.545 188.668 533.059Z" fill="#DD2400"/>
<path opacity="0.58" d="M77.2481 424.957C77.2481 424.957 77.2481 424.957 68.9857 430.897C8.97341 474.037 0.308594 482.927 0.308594 482.927C0.308594 482.927 19.8785 495.926 31.4452 508.952C31.4452 508.952 55.1889 486.517 89.4627 454.177C91.021 452.704 94.2912 450.372 95.9143 448.895C88.8864 441.707 81.8141 434 77.2481 424.957Z" fill="#00898D"/>
<path d="M95.9158 448.886C122.333 424.846 151.485 403.489 164.01 394.142C167.614 391.452 170.663 388.09 172.988 384.24C173.019 384.189 173.05 384.138 173.08 384.083C175.317 380.37 172.027 375.742 167.785 376.636C160.665 378.133 148.085 381.638 126.906 392.976C99.4622 408.117 77.2461 424.948 77.2461 424.948C81.8121 433.995 88.8844 441.701 95.9158 448.886Z" fill="#DD2400"/>
<path d="M0.177117 483.332C-1.61995 485.054 10.4616 499.519 27.1603 515.645C43.859 531.771 58.8527 543.45 60.6498 541.728C62.4468 540.009 50.3653 525.541 33.6666 509.415C16.9679 493.289 1.97418 481.613 0.177117 483.332Z" fill="#FF3C00"/>
<path d="M101.819 582.703C100.431 584.766 114.872 597.806 134.07 611.828C153.269 625.846 169.957 635.541 171.345 633.475C172.733 631.412 158.292 618.372 139.093 604.353C119.895 590.331 103.207 580.637 101.819 582.703Z" fill="#FF3C00"/>
<path opacity="0.58" d="M320.527 499.683C320.555 499.28 320.599 498.871 320.623 498.469C320.623 498.469 320.599 498.888 320.527 499.683Z" fill="#00898D"/>
<path d="M130.994 561.218C131.769 561.685 132.788 561.48 133.317 560.73C133.542 560.413 156.071 528.533 177.039 505.823C197.905 483.221 217.564 471.961 217.758 471.849C218.597 471.375 218.89 470.311 218.416 469.476C217.946 468.643 216.882 468.347 216.043 468.817C215.838 468.93 195.709 480.463 174.479 503.456C153.354 526.34 130.694 558.401 130.469 558.722C129.917 559.506 130.104 560.594 130.892 561.15C130.923 561.173 130.957 561.197 130.994 561.218Z" fill="white"/>
<path d="M406.867 89.2014C407.536 89.7606 408.535 89.747 409.183 89.1298C462.808 38.3483 542.186 11.4367 542.984 11.1707C543.894 10.8638 544.388 9.87832 544.082 8.96786C543.775 8.0608 542.789 7.56292 541.875 7.86641C541.074 8.1358 460.984 35.2793 406.785 86.5996C406.086 87.2611 406.059 88.3659 406.721 89.065C406.765 89.1127 406.813 89.157 406.867 89.2014Z" fill="white"/>
<path d="M243.692 284.144C243.702 284.151 243.712 284.161 243.726 284.172C244.476 284.772 245.574 284.649 246.174 283.895C254.44 273.543 268.23 256.636 270.024 255.337C270.883 254.9 271.17 253.884 270.736 253.028C270.3 252.172 269.199 251.855 268.343 252.295C266.314 253.328 251.879 271.173 243.453 281.72C242.86 282.463 242.969 283.541 243.692 284.144Z" fill="white"/>
<defs>
<linearGradient id="paint0_linear_544_94" x1="370.495" y1="323.079" x2="269.682" y2="238.431" gradientUnits="userSpaceOnUse">
<stop offset="0.0893" stop-color="#9CD9C7"/>
<stop offset="0.8737" stop-color="#DAFFC8"/>
</linearGradient>
<linearGradient id="paint1_linear_544_94" x1="221.162" y1="386.547" x2="227.038" y2="319.667" gradientUnits="userSpaceOnUse">
<stop offset="0.0893" stop-color="#9CD9C7"/>
<stop offset="0.8737" stop-color="#DAFFC8"/>
</linearGradient>
<linearGradient id="paint2_linear_544_94" x1="391.67" y1="221.58" x2="323.78" y2="164.576" gradientUnits="userSpaceOnUse">
<stop offset="0.0893" stop-color="#9CD9C7"/>
<stop offset="0.8737" stop-color="#DAFFC8"/>
</linearGradient>
<linearGradient id="paint3_linear_544_94" x1="466.78" y1="58.8955" x2="456.941" y2="12.9323" gradientUnits="userSpaceOnUse">
<stop offset="0.0615" stop-color="white"/>
<stop offset="0.4255" stop-color="white"/>
<stop offset="1" stop-color="white"/>
</linearGradient>
<linearGradient id="paint4_linear_544_94" x1="326.322" y1="173.377" x2="313.319" y2="112.637" gradientUnits="userSpaceOnUse">
<stop offset="0.0615" stop-color="white"/>
<stop offset="0.4255" stop-color="white"/>
<stop offset="1" stop-color="white"/>
</linearGradient>
<linearGradient id="paint5_linear_544_94" x1="217.397" y1="391.628" x2="222.981" y2="328.075" gradientUnits="userSpaceOnUse">
<stop offset="0.0893" stop-color="#9CD9C7"/>
<stop offset="0.8737" stop-color="#DAFFC8"/>
</linearGradient>
<linearGradient id="paint6_linear_544_94" x1="204.917" y1="407.215" x2="210.146" y2="347.695" gradientUnits="userSpaceOnUse">
<stop offset="0.0893" stop-color="#9CD9C7"/>
<stop offset="0.8737" stop-color="#DAFFC8"/>
</linearGradient>
<linearGradient id="paint7_linear_544_94" x1="394.01" y1="238.123" x2="339.187" y2="233.868" gradientUnits="userSpaceOnUse">
<stop offset="0.1687" stop-color="#E0F3F4"/>
<stop offset="0.7907" stop-color="#4D98A0"/>
</linearGradient>
<linearGradient id="paint8_linear_544_94" x1="395.78" y1="160.382" x2="375.025" y2="196.088" gradientUnits="userSpaceOnUse">
<stop offset="0.0615" stop-color="white"/>
<stop offset="1" stop-color="white"/>
</linearGradient>
<linearGradient id="paint9_linear_544_94" x1="161.427" y1="568.296" x2="137.592" y2="498.007" gradientUnits="userSpaceOnUse">
<stop offset="0.0893" stop-color="#9CD9C7"/>
<stop offset="0.8737" stop-color="#DAFFC8"/>
</linearGradient>
<linearGradient id="paint10_linear_544_94" x1="96.3157" y1="506.574" x2="21.1104" y2="431.177" gradientUnits="userSpaceOnUse">
<stop offset="0.2492" stop-color="#9CD9C7"/>
<stop offset="0.6206" stop-color="#DAFFC8"/>
</linearGradient>
</defs>
</svg>
