<svg width="583" height="463" viewBox="0 0 583 463" fill="none" xmlns="http://www.w3.org/2000/svg">
<path d="M580.106 369.847C573.361 403.702 554.44 433.39 534.788 461.436H37.9951C27.6241 451.443 19.0141 439.636 12.6471 426.73C5.09415 411.426 0.926149 394.654 0.273149 377.657C-1.16185 356.974 3.04815 335.905 13.1191 317.766C14.8721 314.217 16.7971 310.746 18.8931 307.378C29.1531 290.837 42.5311 276.582 55.2491 261.949C58.6431 258.048 62.0031 254.087 65.2601 250.04C65.3541 249.877 65.4492 249.722 65.5442 249.559C70.6222 240.597 74.2911 230.922 77.1441 221.049C87.1891 186.275 88.0142 148.14 109.598 117.61C118.913 104.437 131.879 94.0228 147.775 90.2168C167.573 85.4738 188.212 90.6808 207.013 97.0648C227.395 103.991 247.828 112.772 269.705 112.944C291.358 113.124 311.998 105.4 332.122 98.2848C350.605 91.7548 369.646 85.5678 389.478 85.5938C407.256 85.6198 424.141 91.4968 436.875 104.137C462.387 129.477 466.159 167.388 478.773 199.361C482.201 208.031 486.326 216.478 491.722 224.116C497.273 231.97 504.173 238.552 511.906 244.231C526.866 255.221 544.12 263.195 557.335 276.462C581.343 300.573 586.533 337.616 580.106 369.847Z" fill="#CDE4F9"/>
<path d="M561.561 461.438H0.253906V462.366H561.561V461.438Z" fill="#19203F"/>
<path d="M374.553 409.32C371.705 409.998 368.778 410.361 365.852 410.401C365.723 410.403 365.6 410.353 365.508 410.264C365.416 410.175 365.364 410.053 365.362 409.924L365.295 404.568C362.216 404.566 359.147 404.131 356.157 403.272L354.604 408.397C354.527 408.653 354.259 408.797 354.003 408.72C348.483 407.069 343.244 404.091 338.852 400.108C338.757 400.022 338.7 399.901 338.694 399.773C338.688 399.645 338.733 399.519 338.82 399.424L342.436 395.465C339.632 392.833 337.329 389.769 335.581 386.348L330.777 388.718C330.538 388.834 330.248 388.738 330.13 388.499C328.833 385.873 327.829 383.099 327.147 380.254C326.465 377.409 326.101 374.481 326.066 371.553C326.063 371.286 326.278 371.066 326.543 371.064L331.898 370.997C331.899 367.919 332.334 364.85 333.194 361.859L328.07 360.306C327.815 360.229 327.671 359.961 327.747 359.706C329.391 354.195 332.367 348.956 336.354 344.556C336.441 344.461 336.562 344.403 336.689 344.398C336.817 344.392 336.943 344.437 337.037 344.524L341.002 348.14C343.634 345.336 346.697 343.033 350.119 341.285L347.749 336.481C347.631 336.242 347.729 335.952 347.968 335.834C350.586 334.54 353.36 333.535 356.211 332.846C359.066 332.166 361.994 331.804 364.915 331.77C365.182 331.767 365.401 331.98 365.404 332.247L365.471 337.603C368.549 337.605 371.619 338.04 374.609 338.899L376.162 333.774C376.24 333.52 376.508 333.375 376.763 333.451C382.265 335.092 387.503 338.068 391.913 342.058C392.008 342.144 392.065 342.265 392.071 342.393C392.077 342.522 392.032 342.647 391.946 342.742L388.331 346.706C391.135 349.338 393.438 352.402 395.186 355.823L399.99 353.453C400.228 353.334 400.519 353.433 400.637 353.672C401.924 356.278 402.928 359.052 403.62 361.916C404.303 364.784 404.666 367.712 404.701 370.618C404.704 370.885 404.49 371.103 404.224 371.107L398.868 371.174C398.866 374.258 398.43 377.326 397.571 380.307L402.697 381.865C402.951 381.942 403.096 382.21 403.02 382.466C401.379 387.968 398.402 393.206 394.413 397.615C394.327 397.71 394.206 397.767 394.078 397.774C393.95 397.78 393.824 397.735 393.73 397.648L389.766 394.033C387.134 396.837 384.07 399.14 380.649 400.888L383.019 405.692C383.076 405.807 383.084 405.94 383.043 406.061C383.002 406.182 382.914 406.282 382.799 406.339C380.171 407.63 377.397 408.633 374.553 409.32ZM366.323 409.425C369.017 409.355 371.708 409.004 374.328 408.38C376.945 407.748 379.502 406.84 381.935 405.681L379.568 400.883C379.511 400.768 379.503 400.635 379.544 400.514C379.585 400.393 379.673 400.292 379.788 400.236C383.42 398.446 386.647 396.02 389.379 393.026C389.558 392.829 389.864 392.814 390.061 392.994L394.019 396.604C397.64 392.502 400.372 387.695 401.952 382.648L396.83 381.091C396.575 381.013 396.431 380.744 396.508 380.488C397.476 377.302 397.943 374.009 397.897 370.702C397.895 370.574 397.944 370.45 398.034 370.358C398.124 370.266 398.247 370.214 398.374 370.212L403.724 370.146C403.658 367.469 403.307 364.778 402.679 362.14C402.043 359.506 401.136 356.948 399.98 354.533L395.181 356.9C395.068 356.956 394.934 356.966 394.812 356.924C394.691 356.883 394.59 356.795 394.534 356.68C392.744 353.048 390.318 349.821 387.323 347.089C387.126 346.909 387.112 346.604 387.292 346.406L390.902 342.448C386.8 338.827 381.993 336.094 376.946 334.515L375.394 339.635C375.316 339.891 375.046 340.034 374.791 339.957C371.595 338.989 368.3 338.522 365 338.569C364.872 338.571 364.748 338.522 364.656 338.432C364.564 338.342 364.512 338.22 364.51 338.092L364.444 332.742C361.755 332.808 359.064 333.157 356.437 333.783C353.814 334.417 351.257 335.325 348.831 336.486L351.198 341.285C351.255 341.4 351.263 341.533 351.222 341.654C351.181 341.775 351.093 341.875 350.978 341.932C347.346 343.722 344.119 346.148 341.387 349.143C341.208 349.34 340.902 349.355 340.704 349.174L336.746 345.564C333.127 349.658 330.395 354.465 328.813 359.52L333.933 361.072C334.188 361.149 334.333 361.419 334.256 361.674C333.288 364.871 332.821 368.166 332.868 371.465C332.87 371.593 332.821 371.717 332.731 371.809C332.642 371.901 332.519 371.954 332.391 371.955L327.041 372.022C327.107 374.717 327.458 377.407 328.086 380.026C328.714 382.645 329.621 385.202 330.785 387.634L335.584 385.267C335.697 385.211 335.831 385.202 335.953 385.243C336.075 385.284 336.175 385.372 336.231 385.487C338.021 389.119 340.447 392.346 343.442 395.077C343.537 395.164 343.593 395.284 343.599 395.412C343.605 395.54 343.559 395.665 343.473 395.76L339.862 399.713C343.949 403.328 348.756 406.062 353.819 407.65L355.37 402.53C355.447 402.274 355.718 402.13 355.973 402.207C359.169 403.175 362.464 403.642 365.765 403.595C365.893 403.593 366.017 403.642 366.109 403.732C366.201 403.822 366.253 403.944 366.255 404.072L366.323 409.425ZM370.893 394.058C358.225 397.096 345.448 389.261 342.411 376.593C339.373 363.923 347.207 351.144 359.874 348.106C372.542 345.068 385.32 352.905 388.358 365.575C391.395 378.243 383.56 391.02 370.893 394.058ZM360.099 349.046C347.949 351.959 340.436 364.216 343.35 376.368C346.263 388.518 358.518 396.032 370.667 393.119C382.817 390.206 390.331 377.951 387.417 365.801C384.504 353.649 372.249 346.133 360.099 349.046Z" fill="#A4BFEA"/>
<path d="M351.485 189.536C348.556 189.531 345.626 189.201 342.776 188.558C342.651 188.53 342.542 188.453 342.474 188.344C342.406 188.236 342.383 188.105 342.411 187.98L343.595 182.756C340.588 182.033 337.705 180.894 335.011 179.365L332.301 183.986C332.167 184.216 331.873 184.293 331.642 184.16C326.667 181.272 322.267 177.154 318.917 172.253C318.844 172.147 318.817 172.016 318.841 171.89C318.865 171.764 318.938 171.652 319.044 171.58L323.479 168.573C321.369 165.358 319.845 161.843 318.944 158.109L313.72 159.293C313.597 159.321 313.464 159.299 313.355 159.23C313.247 159.162 313.17 159.053 313.142 158.928C312.498 156.073 312.168 153.143 312.164 150.217C312.169 147.29 312.498 144.358 313.142 141.503C313.17 141.378 313.247 141.269 313.355 141.201C313.464 141.133 313.595 141.11 313.72 141.138L318.944 142.322C319.665 139.327 320.803 136.444 322.335 133.739L317.714 131.034C317.484 130.9 317.406 130.605 317.54 130.374C320.432 125.392 324.55 120.992 329.447 117.649C329.553 117.576 329.684 117.549 329.809 117.573C329.935 117.597 330.047 117.67 330.119 117.776L333.126 122.211C336.348 120.095 339.865 118.572 343.595 117.676L342.411 112.452C342.352 112.192 342.515 111.933 342.775 111.874C345.618 111.226 348.548 110.895 351.482 110.891C354.417 110.896 357.348 111.227 360.196 111.874C360.456 111.933 360.619 112.192 360.56 112.452L359.376 117.676C362.372 118.397 365.256 119.536 367.96 121.067L370.665 116.446C370.8 116.216 371.095 116.138 371.324 116.272C376.3 119.156 380.701 123.271 384.05 128.174C384.122 128.28 384.15 128.411 384.126 128.537C384.102 128.663 384.029 128.775 383.922 128.847L379.482 131.854C381.596 135.071 383.121 138.589 384.022 142.323L389.246 141.139C389.505 141.08 389.765 141.243 389.824 141.503C390.471 144.351 390.802 147.283 390.807 150.216C390.802 153.151 390.471 156.082 389.824 158.93C389.765 159.19 389.505 159.353 389.246 159.294L384.022 158.11C383.3 161.111 382.161 163.993 380.631 166.69L385.252 169.4C385.481 169.534 385.559 169.829 385.426 170.059C382.547 175.026 378.432 179.426 373.524 182.784C373.418 182.856 373.286 182.883 373.161 182.86C373.035 182.836 372.923 182.763 372.851 182.656L369.844 178.216C366.626 180.33 363.109 181.855 359.375 182.756L360.559 187.98C360.587 188.105 360.565 188.236 360.496 188.345C360.428 188.453 360.319 188.53 360.194 188.558C357.342 189.201 354.411 189.53 351.485 189.536ZM343.462 187.718C346.094 188.278 348.79 188.564 351.485 188.569C354.177 188.564 356.875 188.278 359.511 187.718L358.328 182.5C358.3 182.375 358.322 182.244 358.391 182.136C358.459 182.027 358.568 181.951 358.693 181.922C362.64 181.029 366.345 179.422 369.706 177.146C369.926 176.997 370.227 177.054 370.377 177.275L373.379 181.708C377.857 178.563 381.635 174.526 384.348 169.987L379.73 167.279C379.62 167.214 379.539 167.108 379.507 166.984C379.475 166.86 379.493 166.728 379.558 166.618C381.241 163.748 382.463 160.656 383.19 157.425C383.218 157.3 383.295 157.191 383.403 157.123C383.512 157.055 383.643 157.033 383.768 157.06L388.987 158.243C389.55 155.613 389.838 152.915 389.842 150.215C389.838 147.517 389.55 144.818 388.987 142.188L383.768 143.371C383.643 143.399 383.512 143.377 383.404 143.308C383.296 143.239 383.219 143.131 383.19 143.006C382.297 139.058 380.69 135.353 378.414 131.993C378.342 131.887 378.315 131.757 378.339 131.631C378.364 131.505 378.437 131.394 378.543 131.322L382.976 128.32C379.839 123.846 375.802 120.069 371.254 117.352L368.551 121.969C368.416 122.199 368.119 122.277 367.89 122.142C365.01 120.457 361.916 119.235 358.692 118.509C358.567 118.481 358.458 118.404 358.39 118.296C358.322 118.187 358.299 118.056 358.327 117.931L359.51 112.712C356.88 112.149 354.182 111.861 351.482 111.857C348.782 111.861 346.086 112.149 343.46 112.712L344.643 117.931C344.671 118.056 344.649 118.187 344.58 118.296C344.512 118.405 344.403 118.481 344.278 118.509C340.335 119.396 336.629 121.001 333.266 123.279C333.046 123.428 332.745 123.371 332.595 123.15L329.592 118.721C325.124 121.853 321.344 125.89 318.619 130.443L323.236 133.146C323.466 133.281 323.544 133.577 323.409 133.807C321.723 136.687 320.501 139.782 319.776 143.005C319.748 143.13 319.671 143.239 319.563 143.307C319.454 143.375 319.323 143.399 319.198 143.37L313.98 142.187C313.419 144.824 313.133 147.522 313.129 150.215C313.133 152.907 313.42 155.605 313.98 158.241L319.198 157.058C319.323 157.03 319.454 157.052 319.562 157.121C319.671 157.189 319.747 157.298 319.776 157.423C320.669 161.371 322.274 165.075 324.546 168.431C324.696 168.652 324.638 168.952 324.417 169.102L319.989 172.104C323.127 176.576 327.164 180.356 331.711 183.078L334.419 178.46C334.484 178.35 334.59 178.269 334.714 178.237C334.838 178.204 334.97 178.223 335.08 178.288C337.947 179.97 341.042 181.193 344.278 181.92C344.403 181.948 344.512 182.025 344.58 182.133C344.648 182.242 344.671 182.373 344.643 182.498L343.462 187.718ZM351.436 176.401C337.437 176.401 326.048 165.012 326.048 151.012C326.048 137.012 337.437 125.623 351.436 125.623C365.435 125.623 376.825 137.012 376.825 151.012C376.825 165.012 365.435 176.401 351.436 176.401ZM351.436 126.59C337.97 126.59 327.014 137.546 327.014 151.012C327.014 164.478 337.97 175.434 351.436 175.434C364.903 175.434 375.858 164.478 375.858 151.012C375.858 137.546 364.902 126.59 351.436 126.59Z" fill="#A4BFEA"/>
<path d="M510.486 329.965C510.445 329.965 510.405 329.96 510.365 329.95L508.809 329.549C508.382 329.404 507.994 329.261 507.606 329.119L507.252 328.989C506.839 328.853 506.444 328.662 506.061 328.477L505.499 328.206C505.089 328.008 504.666 327.803 504.265 327.544C502.508 326.564 500.788 325.193 499.178 323.482C499.09 323.388 499.043 323.263 499.047 323.135C499.051 323.007 499.107 322.885 499.2 322.797L502.046 320.15C500.661 318.577 499.583 316.803 498.837 314.866L495.174 316.17C494.923 316.259 494.646 316.128 494.557 315.877L494.287 315.119C494.229 314.938 494.185 314.77 494.142 314.602C494.117 314.506 494.092 314.41 494.065 314.315C494.018 314.122 493.973 313.949 493.928 313.776C493.838 313.432 493.745 313.076 493.678 312.71L493.434 311.106C493.369 310.734 493.354 310.357 493.34 309.992C493.333 309.819 493.326 309.646 493.314 309.474L493.274 308.66C493.263 308.451 493.274 308.249 493.286 308.053C493.291 307.976 493.295 307.899 493.298 307.822C493.322 307.278 493.347 306.741 493.386 306.206L493.465 305.66C493.595 304.768 493.729 303.845 493.994 302.948C494.068 302.697 494.33 302.55 494.579 302.617L498.341 303.594C499.06 301.107 500.332 298.788 502.047 296.836L499.202 294.189C499.108 294.101 499.052 293.979 499.048 293.851C499.044 293.722 499.091 293.597 499.179 293.504C500.799 291.789 502.519 290.417 504.292 289.427C504.668 289.183 505.094 288.977 505.506 288.777L506.055 288.513C506.439 288.328 506.836 288.135 507.265 287.993L507.596 287.872C507.987 287.728 508.378 287.584 508.773 287.449L510.365 287.037C510.491 287.006 510.625 287.024 510.737 287.092C510.848 287.16 510.928 287.27 510.956 287.397L511.821 291.191C513.86 290.787 515.965 290.743 518.005 291.057L518.702 287.226C518.725 287.099 518.798 286.986 518.905 286.913C519.012 286.84 519.142 286.812 519.27 286.838C521.604 287.295 523.689 288.011 525.465 288.964C527.455 290.022 529.233 291.315 530.746 292.805C530.838 292.895 530.889 293.017 530.89 293.146C530.891 293.274 530.841 293.398 530.751 293.489L528.017 296.266C529.815 298.138 531.187 300.398 532.015 302.85L535.749 301.705C535.872 301.667 536.005 301.68 536.119 301.741C536.233 301.802 536.317 301.906 536.354 302.029C536.96 304.062 537.286 306.236 537.322 308.49C537.286 310.757 536.96 312.929 536.354 314.961C536.317 315.084 536.233 315.188 536.119 315.249C536.006 315.31 535.872 315.323 535.749 315.285L532.015 314.14C531.355 316.107 530.355 317.926 529.038 319.558L532.004 322.085C532.102 322.168 532.162 322.287 532.172 322.415C532.182 322.543 532.141 322.669 532.057 322.767C529.185 326.124 525.31 328.593 521.146 329.718C520.892 329.789 520.625 329.637 520.554 329.38L519.521 325.627C517.048 326.241 514.38 326.307 511.817 325.798L510.952 329.591C510.923 329.718 510.844 329.828 510.733 329.896C510.661 329.941 510.574 329.965 510.486 329.965ZM500.219 323.171C501.662 324.646 503.189 325.838 504.763 326.716C505.14 326.958 505.519 327.142 505.921 327.336L506.482 327.606C506.852 327.785 507.202 327.954 507.569 328.075L507.939 328.21C508.32 328.35 508.702 328.49 509.086 328.622L510.125 328.889L510.986 325.116C511.045 324.856 511.303 324.693 511.564 324.752C514.275 325.367 517.133 325.297 519.735 324.569C519.86 324.533 519.992 324.551 520.103 324.614C520.215 324.677 520.297 324.782 520.331 324.906L521.362 328.651C525.013 327.567 528.407 325.402 531.009 322.5L528.053 319.981C527.85 319.808 527.826 319.503 527.998 319.3C529.488 317.55 530.58 315.563 531.243 313.393C531.28 313.27 531.365 313.167 531.478 313.108C531.591 313.047 531.724 313.035 531.846 313.073L535.565 314.214C536.06 312.402 536.327 310.478 536.359 308.487C536.327 306.508 536.06 304.583 535.565 302.771L531.846 303.912C531.59 303.991 531.32 303.847 531.242 303.592C530.435 300.962 528.968 298.546 527.002 296.608C526.812 296.421 526.81 296.115 526.997 295.925L529.722 293.157C528.353 291.873 526.77 290.75 525.012 289.815C523.441 288.971 521.611 288.323 519.566 287.884L518.871 291.698C518.848 291.824 518.776 291.936 518.67 292.009C518.565 292.082 518.436 292.11 518.309 292.087C516.097 291.683 513.78 291.73 511.564 292.233C511.303 292.29 511.045 292.129 510.986 291.869L510.125 288.096L509.05 288.373C508.698 288.495 508.313 288.637 507.929 288.778L507.583 288.905C507.2 289.032 506.848 289.202 506.476 289.382L505.928 289.646C505.524 289.841 505.143 290.025 504.791 290.253C503.201 291.142 501.672 292.334 500.221 293.814L503.055 296.451C503.25 296.633 503.262 296.938 503.08 297.134C501.199 299.158 499.839 301.636 499.149 304.301C499.117 304.425 499.037 304.531 498.926 304.596C498.815 304.661 498.682 304.679 498.56 304.647L494.8 303.67C494.63 304.367 494.524 305.091 494.422 305.796L494.346 306.31C494.312 306.8 494.288 307.327 494.264 307.859C494.261 307.939 494.256 308.023 494.251 308.107C494.241 308.274 494.23 308.441 494.239 308.608L494.278 309.414C494.291 309.585 494.298 309.769 494.305 309.952C494.319 310.3 494.331 310.63 494.387 310.949L494.63 312.549C494.689 312.865 494.773 313.188 494.862 313.531C494.909 313.71 494.956 313.889 494.999 314.07C495.023 314.153 495.049 314.256 495.076 314.359C495.115 314.509 495.154 314.66 495.202 314.809L495.305 315.097L498.963 313.795C499.084 313.753 499.216 313.759 499.333 313.814C499.449 313.869 499.538 313.968 499.581 314.089C500.339 316.229 501.516 318.167 503.08 319.85C503.262 320.045 503.25 320.351 503.055 320.533L500.219 323.171ZM515.299 320.296C508.736 320.296 503.397 314.957 503.397 308.394C503.397 301.834 508.737 296.497 515.299 296.497C521.862 296.497 527.201 301.834 527.201 308.394C527.201 314.957 521.862 320.296 515.299 320.296ZM515.299 297.463C509.269 297.463 504.363 302.367 504.363 308.394C504.363 314.424 509.269 319.329 515.299 319.329C521.329 319.329 526.234 314.424 526.234 308.394C526.234 302.367 521.329 297.463 515.299 297.463Z" fill="#A4BFEA"/>
<path d="M379.881 228.461C379.84 228.461 379.8 228.456 379.76 228.446L378.204 228.045C377.777 227.9 377.389 227.757 377.001 227.615L376.647 227.485C376.234 227.349 375.839 227.158 375.456 226.973L374.894 226.702C374.484 226.504 374.061 226.299 373.66 226.04C371.903 225.06 370.183 223.689 368.573 221.978C368.485 221.884 368.438 221.759 368.442 221.631C368.446 221.503 368.501 221.381 368.595 221.293L371.441 218.646C370.056 217.073 368.978 215.299 368.232 213.362L364.569 214.666C364.318 214.755 364.041 214.624 363.952 214.373L363.682 213.615C363.624 213.434 363.58 213.266 363.537 213.098C363.512 213.002 363.487 212.906 363.46 212.811C363.413 212.618 363.368 212.445 363.323 212.272C363.233 211.928 363.14 211.572 363.073 211.206L362.829 209.602C362.764 209.23 362.749 208.853 362.735 208.488C362.728 208.315 362.721 208.142 362.709 207.97L362.669 207.156C362.658 206.947 362.669 206.745 362.681 206.549C362.686 206.472 362.69 206.395 362.693 206.318C362.717 205.774 362.742 205.237 362.781 204.702L362.86 204.156C362.99 203.264 363.124 202.341 363.389 201.444C363.463 201.193 363.725 201.046 363.974 201.113L367.736 202.09C368.455 199.603 369.727 197.284 371.442 195.332L368.597 192.685C368.503 192.597 368.447 192.475 368.443 192.347C368.439 192.218 368.486 192.093 368.574 192C370.194 190.285 371.914 188.913 373.687 187.923C374.063 187.679 374.489 187.473 374.901 187.273L375.45 187.009C375.834 186.824 376.231 186.631 376.66 186.489L376.991 186.368C377.382 186.224 377.773 186.08 378.168 185.945L379.76 185.533C379.886 185.502 380.02 185.52 380.132 185.588C380.243 185.656 380.323 185.766 380.351 185.893L381.216 189.687C383.255 189.283 385.36 189.239 387.4 189.553L388.097 185.722C388.12 185.595 388.193 185.482 388.3 185.409C388.407 185.336 388.537 185.308 388.665 185.334C391 185.791 393.084 186.507 394.86 187.46C396.85 188.518 398.628 189.811 400.141 191.301C400.233 191.391 400.284 191.513 400.285 191.642C400.286 191.771 400.236 191.894 400.146 191.985L397.412 194.762C399.21 196.635 400.582 198.894 401.41 201.346L405.144 200.201C405.267 200.163 405.4 200.176 405.514 200.237C405.628 200.298 405.712 200.402 405.749 200.525C406.355 202.558 406.681 204.732 406.717 206.986C406.681 209.253 406.356 211.425 405.749 213.457C405.712 213.58 405.628 213.684 405.514 213.745C405.401 213.806 405.267 213.819 405.144 213.781L401.41 212.636C400.75 214.603 399.75 216.422 398.433 218.054L401.399 220.581C401.497 220.664 401.557 220.783 401.567 220.911C401.577 221.039 401.536 221.165 401.452 221.263C398.58 224.62 394.705 227.089 390.541 228.214C390.287 228.285 390.02 228.133 389.949 227.876L388.916 224.123C386.443 224.737 383.775 224.803 381.212 224.294L380.347 228.087C380.318 228.214 380.239 228.324 380.128 228.392C380.056 228.437 379.969 228.461 379.881 228.461ZM369.615 221.667C371.058 223.142 372.585 224.334 374.159 225.212C374.536 225.454 374.915 225.638 375.317 225.832L375.878 226.102C376.248 226.281 376.598 226.45 376.965 226.571L377.335 226.706C377.716 226.846 378.098 226.986 378.482 227.118L379.521 227.385L380.382 223.612C380.441 223.352 380.699 223.189 380.96 223.248C383.671 223.863 386.529 223.793 389.131 223.065C389.256 223.029 389.388 223.047 389.499 223.11C389.611 223.173 389.693 223.278 389.727 223.402L390.758 227.147C394.409 226.063 397.803 223.898 400.405 220.996L397.449 218.477C397.246 218.304 397.222 217.999 397.394 217.796C398.884 216.046 399.976 214.059 400.639 211.889C400.676 211.766 400.761 211.663 400.874 211.603C400.987 211.542 401.12 211.53 401.242 211.568L404.961 212.709C405.456 210.897 405.723 208.973 405.755 206.982C405.723 205.003 405.456 203.078 404.961 201.266L401.242 202.407C400.986 202.486 400.716 202.342 400.638 202.087C399.831 199.457 398.364 197.041 396.398 195.103C396.208 194.916 396.206 194.61 396.393 194.42L399.118 191.652C397.749 190.368 396.166 189.245 394.408 188.31C392.837 187.466 391.007 186.818 388.962 186.379L388.267 190.193C388.244 190.319 388.172 190.431 388.066 190.504C387.961 190.577 387.831 190.605 387.705 190.582C385.493 190.178 383.176 190.225 380.96 190.728C380.699 190.785 380.441 190.624 380.382 190.364L379.521 186.591L378.446 186.868C378.094 186.99 377.709 187.132 377.325 187.273L376.979 187.4C376.596 187.527 376.244 187.697 375.872 187.877L375.324 188.141C374.921 188.336 374.539 188.52 374.187 188.748C372.597 189.637 371.068 190.829 369.617 192.309L372.451 194.946C372.646 195.128 372.658 195.433 372.476 195.629C370.595 197.653 369.235 200.131 368.545 202.796C368.513 202.92 368.433 203.026 368.322 203.091C368.211 203.156 368.078 203.174 367.956 203.142L364.196 202.165C364.026 202.862 363.92 203.586 363.818 204.291L363.742 204.805C363.708 205.295 363.684 205.822 363.66 206.354C363.657 206.434 363.652 206.518 363.647 206.602C363.637 206.769 363.626 206.936 363.635 207.103L363.674 207.909C363.687 208.08 363.694 208.264 363.701 208.447C363.715 208.795 363.727 209.125 363.783 209.444L364.026 211.044C364.085 211.36 364.169 211.683 364.258 212.026C364.305 212.205 364.352 212.384 364.395 212.565C364.419 212.648 364.445 212.751 364.472 212.854C364.511 213.004 364.55 213.155 364.598 213.304L364.701 213.592L368.359 212.29C368.48 212.248 368.612 212.254 368.729 212.309C368.845 212.364 368.934 212.463 368.977 212.584C369.735 214.724 370.912 216.662 372.476 218.345C372.658 218.54 372.646 218.846 372.451 219.028L369.615 221.667ZM384.694 218.792C378.131 218.792 372.792 213.453 372.792 206.89C372.792 200.33 378.132 194.993 384.694 194.993C391.256 194.993 396.596 200.33 396.596 206.89C396.596 213.453 391.257 218.792 384.694 218.792ZM384.694 195.959C378.664 195.959 373.758 200.863 373.758 206.89C373.758 212.92 378.664 217.825 384.694 217.825C390.724 217.825 395.629 212.92 395.629 206.89C395.629 200.863 390.724 195.959 384.694 195.959Z" fill="#A4BFEA"/>
<path d="M188.93 437.774C186.001 437.769 183.071 437.439 180.221 436.796C180.096 436.768 179.987 436.691 179.919 436.582C179.851 436.474 179.828 436.343 179.856 436.218L181.04 430.994C178.034 430.271 175.15 429.132 172.456 427.603L169.746 432.224C169.612 432.454 169.318 432.531 169.087 432.398C164.112 429.51 159.712 425.392 156.362 420.491C156.289 420.385 156.262 420.254 156.286 420.128C156.31 420.002 156.383 419.89 156.489 419.818L160.924 416.811C158.814 413.596 157.29 410.081 156.389 406.347L151.165 407.531C151.042 407.559 150.909 407.537 150.8 407.468C150.692 407.4 150.615 407.291 150.587 407.166C149.943 404.311 149.613 401.381 149.609 398.455C149.614 395.528 149.943 392.596 150.587 389.741C150.615 389.616 150.692 389.507 150.8 389.439C150.909 389.371 151.04 389.348 151.165 389.376L156.389 390.56C157.11 387.565 158.248 384.682 159.78 381.977L155.159 379.272C154.929 379.138 154.851 378.843 154.985 378.612C157.877 373.63 161.995 369.23 166.892 365.887C166.998 365.814 167.129 365.787 167.254 365.811C167.38 365.835 167.492 365.908 167.564 366.014L170.571 370.449C173.793 368.333 177.31 366.81 181.04 365.914L179.856 360.69C179.797 360.43 179.96 360.171 180.22 360.112C183.063 359.464 185.993 359.133 188.927 359.129C191.862 359.134 194.793 359.465 197.641 360.112C197.901 360.171 198.064 360.43 198.005 360.69L196.821 365.914C199.817 366.635 202.701 367.774 205.405 369.305L208.11 364.684C208.245 364.454 208.54 364.376 208.769 364.51C213.745 367.394 218.146 371.509 221.495 376.412C221.567 376.518 221.595 376.649 221.571 376.775C221.547 376.901 221.474 377.013 221.367 377.085L216.927 380.092C219.041 383.309 220.566 386.827 221.467 390.561L226.691 389.377C226.95 389.318 227.21 389.481 227.269 389.741C227.916 392.589 228.247 395.521 228.252 398.454C228.247 401.389 227.916 404.32 227.269 407.168C227.21 407.428 226.95 407.591 226.691 407.532L221.467 406.348C220.745 409.349 219.606 412.231 218.076 414.928L222.697 417.638C222.926 417.772 223.004 418.067 222.871 418.297C219.992 423.264 215.877 427.664 210.969 431.022C210.863 431.094 210.731 431.121 210.606 431.098C210.48 431.074 210.368 431.001 210.296 430.894L207.289 426.454C204.071 428.568 200.554 430.093 196.82 430.994L198.004 436.218C198.032 436.343 198.01 436.474 197.941 436.583C197.873 436.691 197.764 436.768 197.639 436.796C194.787 437.439 191.856 437.769 188.93 437.774ZM180.907 435.957C183.539 436.517 186.235 436.803 188.93 436.808C191.622 436.803 194.32 436.517 196.956 435.957L195.773 430.739C195.745 430.614 195.767 430.483 195.836 430.375C195.904 430.266 196.013 430.19 196.138 430.161C200.085 429.268 203.79 427.661 207.151 425.385C207.371 425.236 207.672 425.293 207.822 425.514L210.824 429.947C215.302 426.802 219.08 422.765 221.793 418.226L217.175 415.518C217.065 415.453 216.984 415.347 216.952 415.223C216.92 415.099 216.938 414.967 217.003 414.857C218.686 411.987 219.909 408.895 220.635 405.664C220.663 405.539 220.74 405.43 220.848 405.362C220.957 405.294 221.088 405.272 221.213 405.299L226.432 406.482C226.995 403.852 227.283 401.154 227.287 398.454C227.283 395.756 226.995 393.057 226.432 390.427L221.213 391.61C221.088 391.638 220.957 391.616 220.849 391.547C220.74 391.479 220.664 391.37 220.635 391.245C219.742 387.297 218.135 383.592 215.859 380.232C215.787 380.126 215.76 379.996 215.784 379.87C215.809 379.744 215.882 379.633 215.988 379.561L220.421 376.559C217.284 372.085 213.247 368.308 208.699 365.591L205.996 370.208C205.861 370.438 205.564 370.516 205.335 370.381C202.455 368.696 199.361 367.474 196.137 366.748C196.012 366.72 195.903 366.643 195.835 366.535C195.767 366.426 195.744 366.295 195.772 366.17L196.955 360.951C194.325 360.388 191.627 360.1 188.927 360.096C186.227 360.1 183.531 360.388 180.905 360.951L182.088 366.17C182.116 366.295 182.094 366.426 182.025 366.535C181.957 366.644 181.848 366.72 181.723 366.748C177.78 367.635 174.074 369.24 170.711 371.518C170.491 371.667 170.19 371.61 170.04 371.389L167.037 366.96C162.569 370.092 158.789 374.129 156.064 378.682L160.681 381.385C160.911 381.52 160.989 381.816 160.854 382.046C159.168 384.926 157.946 388.021 157.221 391.244C157.193 391.369 157.116 391.478 157.008 391.546C156.9 391.614 156.768 391.638 156.643 391.609L151.425 390.426C150.864 393.063 150.578 395.761 150.574 398.454C150.578 401.146 150.865 403.844 151.425 406.48L156.643 405.297C156.768 405.269 156.899 405.291 157.007 405.36C157.115 405.429 157.192 405.537 157.221 405.662C158.114 409.61 159.719 413.314 161.991 416.67C162.141 416.891 162.083 417.191 161.862 417.341L157.434 420.343C160.572 424.815 164.609 428.595 169.156 431.317L171.864 426.699C171.929 426.589 172.035 426.508 172.159 426.476C172.283 426.443 172.415 426.462 172.525 426.527C175.392 428.209 178.487 429.432 181.723 430.159C181.848 430.187 181.957 430.264 182.025 430.372C182.093 430.481 182.116 430.612 182.088 430.737L180.907 435.957ZM188.881 424.64C174.882 424.64 163.493 413.251 163.493 399.251C163.493 385.251 174.882 373.862 188.881 373.862C202.88 373.862 214.27 385.251 214.27 399.251C214.27 413.251 202.88 424.64 188.881 424.64ZM188.881 374.829C175.415 374.829 164.459 385.785 164.459 399.251C164.459 412.717 175.415 423.673 188.881 423.673C202.348 423.673 213.303 412.717 213.303 399.251C213.303 385.785 202.347 374.829 188.881 374.829Z" fill="#A4BFEA"/>
<path d="M247.642 446.206C247.601 446.206 247.561 446.201 247.521 446.191L245.965 445.79C245.538 445.645 245.15 445.502 244.762 445.36L244.408 445.23C243.995 445.094 243.6 444.903 243.217 444.718L242.655 444.447C242.245 444.249 241.822 444.044 241.421 443.785C239.664 442.805 237.944 441.434 236.334 439.723C236.246 439.629 236.199 439.504 236.203 439.376C236.207 439.248 236.262 439.126 236.356 439.038L239.202 436.391C237.817 434.818 236.739 433.044 235.993 431.107L232.33 432.411C232.079 432.5 231.802 432.369 231.713 432.118L231.443 431.36C231.385 431.179 231.341 431.011 231.298 430.843C231.273 430.747 231.248 430.651 231.221 430.556C231.174 430.363 231.129 430.19 231.084 430.017C230.994 429.673 230.901 429.317 230.834 428.951L230.59 427.347C230.525 426.975 230.51 426.598 230.496 426.233C230.489 426.06 230.482 425.887 230.47 425.715L230.43 424.901C230.419 424.692 230.43 424.49 230.442 424.294C230.447 424.217 230.451 424.14 230.454 424.063C230.478 423.519 230.503 422.982 230.542 422.447L230.621 421.901C230.751 421.009 230.885 420.086 231.15 419.189C231.224 418.938 231.486 418.791 231.735 418.858L235.497 419.835C236.216 417.348 237.488 415.029 239.203 413.077L236.358 410.43C236.264 410.342 236.208 410.22 236.204 410.092C236.2 409.963 236.247 409.838 236.335 409.745C237.955 408.03 239.675 406.658 241.448 405.668C241.824 405.424 242.25 405.218 242.662 405.018L243.211 404.754C243.595 404.569 243.992 404.376 244.421 404.234L244.752 404.113C245.143 403.969 245.534 403.825 245.929 403.69L247.521 403.278C247.647 403.247 247.781 403.265 247.893 403.333C248.004 403.401 248.084 403.511 248.112 403.638L248.977 407.432C251.016 407.028 253.121 406.984 255.161 407.298L255.858 403.467C255.881 403.34 255.954 403.227 256.061 403.154C256.168 403.081 256.298 403.054 256.426 403.079C258.761 403.536 260.845 404.252 262.621 405.205C264.611 406.263 266.389 407.556 267.902 409.046C267.994 409.136 268.045 409.258 268.046 409.387C268.047 409.516 267.997 409.639 267.907 409.73L265.173 412.507C266.971 414.379 268.343 416.639 269.171 419.091L272.905 417.946C273.028 417.908 273.161 417.921 273.275 417.982C273.389 418.043 273.473 418.147 273.51 418.27C274.116 420.303 274.442 422.477 274.478 424.731C274.442 426.998 274.117 429.17 273.51 431.202C273.473 431.325 273.389 431.429 273.275 431.49C273.162 431.551 273.028 431.564 272.905 431.526L269.171 430.381C268.511 432.348 267.511 434.167 266.194 435.799L269.16 438.326C269.258 438.409 269.318 438.527 269.328 438.656C269.338 438.784 269.297 438.91 269.213 439.008C266.341 442.365 262.466 444.834 258.302 445.959C258.048 446.03 257.781 445.878 257.71 445.621L256.677 441.868C254.204 442.482 251.536 442.548 248.973 442.039L248.108 445.832C248.079 445.959 248 446.069 247.889 446.137C247.817 446.182 247.73 446.206 247.642 446.206ZM237.376 439.412C238.819 440.887 240.346 442.079 241.92 442.957C242.297 443.199 242.676 443.383 243.078 443.577L243.639 443.847C244.009 444.026 244.359 444.195 244.726 444.316L245.096 444.451C245.477 444.591 245.859 444.731 246.243 444.863L247.282 445.13L248.143 441.357C248.202 441.097 248.46 440.934 248.721 440.993C251.432 441.608 254.29 441.538 256.892 440.81C257.017 440.774 257.149 440.792 257.26 440.855C257.372 440.918 257.454 441.023 257.488 441.147L258.519 444.892C262.17 443.808 265.564 441.643 268.166 438.741L265.21 436.222C265.007 436.049 264.983 435.744 265.155 435.541C266.645 433.791 267.737 431.804 268.4 429.634C268.437 429.511 268.522 429.408 268.636 429.349C268.749 429.288 268.882 429.276 269.004 429.314L272.723 430.455C273.218 428.643 273.485 426.719 273.517 424.728C273.485 422.749 273.218 420.824 272.723 419.012L269.004 420.153C268.748 420.232 268.478 420.088 268.4 419.833C267.593 417.203 266.126 414.787 264.16 412.849C263.97 412.662 263.968 412.356 264.155 412.166L266.88 409.398C265.511 408.114 263.928 406.991 262.17 406.056C260.599 405.212 258.769 404.564 256.724 404.125L256.029 407.939C256.006 408.065 255.934 408.177 255.828 408.25C255.723 408.323 255.593 408.351 255.467 408.328C253.255 407.924 250.938 407.971 248.722 408.474C248.461 408.531 248.203 408.37 248.144 408.11L247.283 404.337L246.208 404.614C245.856 404.736 245.471 404.878 245.087 405.019L244.741 405.146C244.358 405.273 244.006 405.443 243.634 405.623L243.086 405.887C242.683 406.082 242.301 406.266 241.949 406.494C240.359 407.383 238.83 408.575 237.379 410.055L240.213 412.692C240.408 412.874 240.42 413.179 240.238 413.375C238.357 415.399 236.997 417.877 236.307 420.542C236.275 420.666 236.195 420.772 236.084 420.837C235.973 420.902 235.84 420.92 235.718 420.888L231.958 419.911C231.788 420.608 231.682 421.332 231.58 422.037L231.504 422.551C231.47 423.041 231.446 423.568 231.422 424.1C231.419 424.18 231.414 424.264 231.409 424.348C231.399 424.515 231.388 424.682 231.397 424.849L231.436 425.655C231.449 425.826 231.456 426.01 231.463 426.193C231.477 426.541 231.489 426.871 231.545 427.19L231.788 428.79C231.847 429.106 231.931 429.429 232.02 429.772C232.067 429.951 232.114 430.13 232.157 430.311C232.181 430.394 232.208 430.497 232.234 430.6C232.273 430.75 232.312 430.901 232.36 431.05L232.463 431.338L236.121 430.036C236.242 429.994 236.374 430 236.49 430.055C236.606 430.11 236.695 430.209 236.738 430.33C237.496 432.47 238.673 434.408 240.237 436.091C240.419 436.286 240.407 436.592 240.212 436.774L237.376 439.412ZM252.455 436.537C245.892 436.537 240.553 431.198 240.553 424.635C240.553 418.075 245.893 412.738 252.455 412.738C259.017 412.738 264.357 418.075 264.357 424.635C264.357 431.198 259.018 436.537 252.455 436.537ZM252.455 413.705C246.425 413.705 241.519 418.609 241.519 424.636C241.519 430.666 246.425 435.571 252.455 435.571C258.485 435.571 263.39 430.666 263.39 424.636C263.391 418.608 258.485 413.705 252.455 413.705Z" fill="#A4BFEA"/>
<path d="M219.932 358.21C219.932 376.243 211.203 392.222 197.73 402.174L189.172 433.949H141.455L132.909 402.174C119.436 392.222 110.707 376.243 110.707 358.21C110.707 328.049 135.158 303.598 165.319 303.598C195.481 303.598 219.932 328.049 219.932 358.21Z" fill="#FFA233"/>
<path d="M194.663 433.883H135.977V461.436H194.663V433.883Z" fill="#9499AA"/>
<path d="M215.759 345.233C215.642 344.699 214.786 344.788 214.905 345.329C216.551 352.818 216.503 360.638 214.749 368.104C213.146 374.924 210.089 381.381 205.875 386.975C203.546 390.067 200.872 392.891 197.906 395.379C197.484 395.733 197.986 396.43 198.411 396.074C203.739 391.605 208.145 386.083 211.318 379.894C214.744 373.211 216.662 365.785 216.93 358.281C217.087 353.9 216.701 349.515 215.759 345.233Z" fill="#19203F"/>
<path d="M146.769 402.056C145.634 391.822 144.499 381.589 143.363 371.355C142.724 365.599 142.086 359.842 141.447 354.086C141.386 353.537 140.532 353.631 140.593 354.182C141.728 364.416 142.863 374.649 143.999 384.883C145.134 395.117 146.269 405.35 147.405 415.584C148.044 421.34 148.682 427.097 149.321 432.853C149.382 433.402 150.236 433.308 150.175 432.757C149.039 422.523 147.904 412.29 146.769 402.056Z" fill="#19203F"/>
<path d="M188.644 348.509C186.962 359.55 185.28 370.591 183.597 381.632C181.92 392.638 180.244 403.643 178.567 414.649C177.624 420.842 176.68 427.035 175.736 433.227C175.653 433.773 176.501 433.909 176.585 433.361C178.267 422.32 179.949 411.279 181.632 400.238L186.662 367.221C187.606 361.028 188.549 354.835 189.493 348.643C189.576 348.097 188.727 347.962 188.644 348.509Z" fill="#19203F"/>
<path d="M196.02 449.083C188.194 448.249 180.368 447.416 172.541 446.582C164.715 445.748 156.889 444.915 149.062 444.081C144.651 443.611 140.24 443.141 135.829 442.671C135.281 442.613 135.143 443.461 135.695 443.52C143.521 444.354 151.347 445.187 159.174 446.021C167 446.855 174.826 447.688 182.653 448.522C187.064 448.992 191.475 449.462 195.886 449.932C196.434 449.99 196.571 449.142 196.02 449.083Z" fill="#19203F"/>
<path d="M195.746 457.34L172.798 457.636C165.184 457.734 157.571 457.833 149.957 457.931C145.632 457.987 141.307 458.043 136.982 458.099C136.43 458.106 136.528 458.96 137.078 458.953L160.026 458.657C167.64 458.559 175.253 458.46 182.867 458.362C187.192 458.306 191.517 458.25 195.842 458.194C196.394 458.187 196.296 457.332 195.746 457.34Z" fill="#19203F"/>
<path d="M194.784 438.11C187.361 437.958 179.938 437.806 172.515 437.655C165.092 437.503 157.669 437.351 150.246 437.2C146.035 437.114 141.824 437.028 137.613 436.942C137.063 436.931 137.162 437.785 137.709 437.796C145.132 437.948 152.555 438.1 159.978 438.251C167.401 438.403 174.824 438.555 182.247 438.706C186.458 438.792 190.669 438.878 194.88 438.964C195.431 438.976 195.331 438.121 194.784 438.11Z" fill="#19203F"/>
<path d="M199.429 359.461C199.304 357.618 198.801 355.805 197.943 354.169C197.689 353.685 196.885 353.991 197.142 354.481C198.734 357.517 199.053 361.179 197.974 364.44C196.909 367.658 194.543 370.213 191.381 371.454C188.375 372.633 184.863 372.601 182.007 371.017C180.908 370.407 179.952 369.568 179.158 368.59C182.022 366.561 183.716 362.994 183.522 359.492C183.433 357.883 182.829 355.882 181.154 355.275C179.329 354.615 177.695 356.055 176.854 357.546C175.129 360.605 175.762 364.677 177.437 367.601C177.58 367.852 177.747 368.084 177.908 368.32C176.106 369.355 173.981 369.808 171.843 369.525C169.725 369.245 167.936 368.258 166.457 366.882C166.544 366.732 166.64 366.587 166.724 366.436C168.841 362.591 170.108 358.183 170.712 353.851C171.336 349.374 171.213 344.782 170.308 340.352C169.901 338.359 169.391 336.171 167.789 334.776C166.395 333.562 164.399 333.272 162.873 334.415C161.458 335.476 160.768 337.247 160.283 338.884C159.643 341.042 159.234 343.265 159.059 345.509C158.713 349.949 159.258 354.451 160.683 358.673C161.688 361.651 163.146 364.758 165.388 367.058C164.87 367.858 164.292 368.609 163.641 369.29C161.155 371.894 157.394 372.884 153.956 371.747C153.728 371.672 153.517 371.566 153.299 371.474C155.35 369.191 156.283 366 155.809 362.935C155.528 361.116 154.779 359.219 153.385 357.965C152.017 356.734 150.118 356.587 148.757 357.906C147.47 359.153 147.01 361.088 146.97 362.823C146.928 364.658 147.396 366.486 148.288 368.088C149.144 369.626 150.381 370.845 151.833 371.694C150.313 372.983 148.39 373.793 146.352 373.96C142.923 374.242 139.704 372.541 137.832 369.685C136.936 368.318 136.407 366.747 136.3 365.117C136.264 364.565 135.41 364.661 135.446 365.213C135.686 368.875 138.003 372.274 141.298 373.881C144.652 375.518 148.81 375.006 151.81 372.845C152.114 372.626 152.39 372.377 152.663 372.127C154.209 372.844 155.944 373.172 157.709 373.041C159.622 372.898 161.465 372.205 162.984 371.034C164.19 370.105 165.17 368.931 165.993 367.657C166.407 368.03 166.841 368.381 167.307 368.695C170.597 370.907 174.994 371.046 178.429 369.063C178.436 369.059 178.442 369.054 178.449 369.05C180.284 371.324 182.943 372.81 185.907 373.085C189.451 373.414 193.113 372.178 195.689 369.714C198.428 367.094 199.684 363.201 199.429 359.461ZM147.901 364.244C147.69 362.615 147.864 360.801 148.706 359.36C149.102 358.682 149.702 358.05 150.489 357.86C151.366 357.649 152.199 358.054 152.841 358.631C154.12 359.782 154.772 361.602 154.989 363.27C155.215 365.002 154.979 366.794 154.293 368.402C153.858 369.422 153.228 370.312 152.481 371.081C149.98 369.69 148.276 367.134 147.901 364.244ZM163.591 363.175C159.693 356.315 158.865 347.686 160.83 340.105C161.247 338.498 161.752 336.729 162.938 335.502C164.245 334.149 166.13 334.344 167.429 335.614C168.854 337.007 169.233 339.232 169.582 341.106C169.949 343.076 170.163 345.074 170.225 347.077C170.35 351.139 169.836 355.222 168.723 359.13C168.04 361.528 167.148 364.049 165.854 366.279C164.98 365.352 164.226 364.294 163.591 363.175ZM176.845 363.446C176.599 361.893 176.691 360.263 177.234 358.779C177.748 357.375 179.255 355.335 180.995 356.138C182.524 356.843 182.75 359.051 182.67 360.514C182.577 362.225 182.025 363.917 181.086 365.352C180.422 366.365 179.571 367.2 178.614 367.869C177.71 366.543 177.094 365.015 176.845 363.446Z" fill="#19203F"/>
<path d="M155.618 308.688C150.267 309.669 145.134 311.629 140.46 314.408C135.803 317.177 131.618 320.759 128.177 324.945C126.222 327.323 124.514 329.902 123.083 332.628C122.825 333.119 123.61 333.471 123.866 332.983C128.828 323.529 137.272 316.033 147.155 312.036C149.917 310.919 152.784 310.08 155.714 309.543C156.254 309.443 156.164 308.588 155.618 308.688Z" fill="#19203F"/>
<path d="M328.171 290.087C321.426 307.161 314.973 316.26 314.973 316.26H231.821C231.821 316.26 225.368 307.152 218.614 290.07C210.167 268.743 201.257 234.991 203.835 191.014C205.382 164.402 211.139 134.045 223.753 100.422C238.171 109.367 255.176 114.523 273.393 114.523C291.601 114.523 308.614 109.367 323.033 100.422C335.793 134.415 341.542 165.082 343.011 191.908V191.925C345.416 235.472 336.557 268.906 328.171 290.087Z" fill="white"/>
<path d="M323.03 100.422C308.612 109.367 291.598 114.523 273.39 114.523C255.174 114.523 238.169 109.367 223.75 100.422C233.202 75.2536 246.486 48.2556 264.728 19.6336C268.758 13.3096 278.021 13.3096 282.051 19.6336C300.294 48.2556 313.587 75.2536 323.03 100.422Z" fill="#4B72BF"/>
<path d="M312.498 316.262H232.875V329.959H312.498V316.262Z" fill="#4B72BF"/>
<path d="M218.614 290.07C201.119 288.498 194.52 314.413 192.071 336.522C191.427 342.296 183.212 342.812 181.82 337.166C156.97 236.288 203.808 190.867 203.808 190.867L203.834 191.013C201.257 234.991 210.168 268.743 218.614 290.07Z" fill="#4B72BF"/>
<path d="M365.154 337.166C363.771 342.811 355.556 342.296 354.912 336.522C352.454 314.327 345.821 288.309 328.172 290.087C336.558 268.906 345.417 235.472 343.011 191.924V191.907L343.174 190.867C343.174 190.867 390.012 236.288 365.154 337.166Z" fill="#4B72BF"/>
<path d="M273.392 196.725C292.108 196.725 307.28 181.553 307.28 162.837C307.28 144.121 292.108 128.949 273.392 128.949C254.676 128.949 239.504 144.121 239.504 162.837C239.504 181.553 254.676 196.725 273.392 196.725Z" fill="#CDE4F9"/>
<path d="M273.392 200.591C252.574 200.591 235.637 183.654 235.637 162.837C235.637 142.02 252.574 125.082 273.392 125.082C294.21 125.082 311.146 142.019 311.146 162.837C311.146 183.655 294.21 200.591 273.392 200.591ZM273.392 132.815C256.838 132.815 243.371 146.283 243.371 162.836C243.371 179.389 256.838 192.857 273.392 192.857C289.945 192.857 303.413 179.389 303.413 162.836C303.413 146.283 289.946 132.815 273.392 132.815Z" fill="#A4BFEA"/>
<path d="M236.765 311.483C236.598 311.483 236.439 311.385 236.37 311.222C208.989 247.115 206.51 172.617 229.568 106.831C229.647 106.608 229.891 106.488 230.115 106.568C230.339 106.646 230.457 106.891 230.378 107.116C207.391 172.702 209.862 246.973 237.16 310.885C237.253 311.103 237.152 311.356 236.933 311.449C236.879 311.472 236.821 311.483 236.765 311.483Z" fill="#19203F"/>
<path d="M364.456 303.452C364.436 303.452 364.416 303.451 364.396 303.448C364.161 303.415 363.997 303.198 364.03 302.963C368.31 272.535 362.979 240.704 349.02 213.332C348.912 213.121 348.996 212.862 349.207 212.754C349.418 212.647 349.678 212.73 349.785 212.942C363.824 240.47 369.185 272.483 364.881 303.084C364.85 303.296 364.667 303.452 364.456 303.452Z" fill="#19203F"/>
<path d="M182.507 263.853C182.503 263.853 182.499 263.853 182.494 263.853C182.257 263.845 182.071 263.647 182.078 263.41C182.571 247.124 187.065 231.015 195.073 216.825C195.19 216.616 195.451 216.545 195.659 216.662C195.865 216.779 195.938 217.041 195.822 217.247C187.882 231.316 183.427 247.288 182.938 263.436C182.929 263.67 182.739 263.853 182.507 263.853Z" fill="#19203F"/>
<path d="M234.129 117.629C233.988 116.37 232.918 115.734 231.754 115.734C230.593 115.734 229.74 117.049 229.859 118.109C230 119.368 231.07 120.004 232.234 120.004C233.395 120.005 234.247 118.69 234.129 117.629Z" fill="#19203F"/>
<path d="M226.961 144.86C226.821 143.601 225.75 142.965 224.586 142.965C223.425 142.965 222.572 144.28 222.691 145.34C222.832 146.599 223.902 147.235 225.066 147.235C226.227 147.235 227.079 145.92 226.961 144.86Z" fill="#19203F"/>
<path d="M223.14 174.641C222.999 173.382 221.929 172.746 220.765 172.746C219.604 172.746 218.752 174.061 218.87 175.121C219.01 176.38 220.081 177.016 221.245 177.016C222.406 177.016 223.258 175.701 223.14 174.641Z" fill="#19203F"/>
<path d="M222.742 206.649C222.601 205.39 221.531 204.754 220.367 204.754C219.206 204.754 218.353 206.069 218.472 207.129C218.613 208.388 219.683 209.024 220.847 209.024C222.007 209.024 222.86 207.71 222.742 206.649Z" fill="#19203F"/>
<path d="M223.457 236.985C223.316 235.726 222.246 235.09 221.082 235.09C219.921 235.09 219.068 236.405 219.187 237.465C219.328 238.724 220.398 239.36 221.562 239.36C222.723 239.36 223.576 238.045 223.457 236.985Z" fill="#19203F"/>
<path d="M227.996 260.157C227.856 258.898 226.785 258.262 225.621 258.262C224.46 258.262 223.607 259.577 223.726 260.637C223.866 261.896 224.937 262.532 226.101 262.532C227.262 262.532 228.114 261.217 227.996 260.157Z" fill="#19203F"/>
<path d="M233.968 280.7C233.827 279.441 232.757 278.805 231.593 278.805C230.432 278.805 229.58 280.12 229.698 281.18C229.839 282.439 230.909 283.075 232.073 283.075C233.233 283.075 234.086 281.76 233.968 280.7Z" fill="#19203F"/>
<path d="M242.09 306.02C241.95 304.761 240.879 304.125 239.715 304.125C238.554 304.125 237.701 305.44 237.82 306.5C237.961 307.759 239.031 308.395 240.195 308.395C241.356 308.395 242.208 307.08 242.09 306.02Z" fill="#19203F"/>
<path d="M297.963 170.164C297.926 170.164 297.889 170.159 297.851 170.149C297.622 170.087 297.486 169.852 297.548 169.622C299.102 163.841 298.669 157.622 296.33 152.113C293.991 146.603 289.818 141.972 284.581 139.075C284.374 138.96 284.298 138.699 284.413 138.491C284.527 138.283 284.789 138.209 284.997 138.323C290.402 141.313 294.707 146.091 297.121 151.778C299.535 157.464 299.982 163.88 298.377 169.846C298.327 170.038 298.153 170.164 297.963 170.164Z" fill="#19203F"/>
<path d="M291.015 182.645C290.918 182.645 290.82 182.612 290.74 182.546C290.558 182.394 290.534 182.123 290.685 181.941L296.166 175.361C296.319 175.178 296.589 175.155 296.771 175.306C296.953 175.458 296.977 175.729 296.826 175.911L291.345 182.491C291.26 182.592 291.137 182.645 291.015 182.645Z" fill="#19203F"/>
<path d="M274.561 402.311C274.187 402.529 273.802 402.737 273.407 402.945C273.012 402.737 272.628 402.529 272.243 402.311C214.293 370.426 243.071 329.957 243.071 329.957H303.723C303.723 329.957 332.501 370.426 274.561 402.311Z" fill="#FFA233"/>
<path d="M274.297 385.847C274.008 386.016 273.711 386.176 273.406 386.337C273.101 386.176 272.804 386.016 272.507 385.847C227.743 361.217 249.973 329.957 249.973 329.957H296.824C296.824 329.957 319.052 361.217 274.297 385.847Z" fill="#FF5F5F"/>
<path d="M110.827 132.348C113.233 134.754 116.103 136.704 119.282 138.036L115.982 152.609L133.391 140.081H134.551C149.03 140.081 160.879 128.232 160.879 113.753C160.879 106.518 157.915 99.9356 153.146 95.1666C148.377 90.3976 141.795 87.4336 134.551 87.4336H129.413C114.934 87.4336 103.094 99.2746 103.094 113.753C103.093 120.989 106.049 127.571 110.827 132.348Z" fill="#A4BFEA"/>
<path d="M203.596 115.93C204.955 117.528 204.905 119.879 203.552 121.422C203.423 121.569 203.288 121.711 203.13 121.844L191.107 132.404C191.107 132.404 191.336 133.615 191.142 135.632C202.764 137.737 200.42 147.599 200.42 147.599C202.523 146.661 205.017 147.619 205.954 149.722C206.638 151.259 206.319 153.011 205.271 154.207C204.889 154.643 204.408 155.002 203.842 155.256L192.169 160.469C185.795 171.578 174.554 170.879 174.554 170.879L167.238 179.224L149.062 163.291L162.083 151.339L180.141 130.999C180.256 130.808 180.389 130.633 180.539 130.462C180.668 130.315 180.803 130.173 180.961 130.04L197.687 115.468C199.438 113.972 202.099 114.18 203.596 115.93Z" fill="#D87C3D"/>
<path d="M191.138 136.061C191.041 136.061 190.943 136.028 190.863 135.959L190.857 135.954C190.677 135.8 190.656 135.529 190.81 135.349C190.966 135.169 191.238 135.148 191.416 135.302C191.596 135.456 191.62 135.73 191.466 135.91C191.379 136.01 191.259 136.061 191.138 136.061Z" fill="#19203F"/>
<path d="M189.117 152.307C188.971 152.307 188.83 152.232 188.75 152.101L185.672 147.047C185.569 146.877 185.595 146.659 185.735 146.519C192.378 139.895 190.517 132.591 190.498 132.517C190.436 132.288 190.572 132.053 190.801 131.991C191.028 131.932 191.265 132.064 191.327 132.293C191.348 132.37 193.305 139.961 186.58 146.886L189.298 151.349L200.268 147.198C200.488 147.114 200.737 147.226 200.822 147.448C200.906 147.67 200.794 147.918 200.572 148.002L189.269 152.279C189.219 152.298 189.168 152.307 189.117 152.307Z" fill="#19203F"/>
<path d="M189.117 152.304C189.056 152.304 188.994 152.291 188.936 152.264C188.721 152.164 188.627 151.909 188.728 151.693L192.331 143.951C192.432 143.735 192.686 143.643 192.902 143.743C193.117 143.843 193.211 144.098 193.11 144.314L189.507 152.056C189.433 152.212 189.279 152.304 189.117 152.304Z" fill="#19203F"/>
<path d="M8.97656 443.322H53.9496L88.7286 242.859H43.7556L8.97656 443.322Z" fill="#19203F"/>
<path d="M138.141 365.507L126.352 443.322H81.3783L94.1473 359.054L70.2773 240.398H115.251L137.833 352.644C138.682 356.88 138.785 361.237 138.141 365.507Z" fill="#19203F"/>
<path d="M81.3828 443.321H126.356C126.356 443.321 149.22 441.177 149.22 461.898H81.3828V443.321Z" fill="#19203F"/>
<path d="M75.0041 327.203C74.9811 327.203 74.9571 327.201 74.9341 327.197C74.7001 327.159 74.5411 326.938 74.5801 326.704L81.9171 281.947C81.9431 281.787 82.0581 281.655 82.2131 281.606L99.6471 276.191C99.8771 276.121 100.115 276.248 100.185 276.474C100.255 276.701 100.129 276.941 99.9021 277.012L82.7221 282.348L75.4271 326.844C75.3931 327.054 75.2101 327.203 75.0041 327.203Z" fill="white"/>
<path d="M126.356 443.751H81.3831C81.1461 443.751 80.9531 443.559 80.9531 443.321C80.9531 443.084 81.1451 442.891 81.3831 442.891H126.356C126.593 442.891 126.786 443.083 126.786 443.321C126.785 443.559 126.593 443.751 126.356 443.751Z" fill="white"/>
<path d="M128.259 447.267C128.227 447.267 128.194 447.264 128.163 447.256C123.146 446.095 118.665 442.481 116.469 437.824C115.641 436.07 115.737 434.556 116.727 433.773C117.653 433.04 119.06 433.21 120.585 434.245C124.227 436.715 126.951 440.584 128.11 444.839C129.232 440.757 131.094 436.835 133.548 433.403C133.964 432.821 134.426 432.221 135.084 431.833C135.883 431.363 136.821 431.351 137.472 431.805C138.401 432.45 138.568 433.776 137.93 435.442C136.156 440.081 132.873 444.103 128.683 446.772C128.691 446.825 128.69 446.879 128.677 446.934C128.632 447.133 128.455 447.267 128.259 447.267ZM118.084 434.178C117.788 434.178 117.502 434.254 117.26 434.446C116.49 435.057 116.747 436.402 117.246 437.458C119.214 441.632 123.114 444.924 127.551 446.209C126.653 441.705 123.902 437.532 120.103 434.956C119.695 434.68 118.85 434.178 118.084 434.178ZM136.369 432.332C136.07 432.332 135.762 432.43 135.521 432.573C135.007 432.876 134.61 433.396 134.246 433.903C131.727 437.426 129.847 441.477 128.774 445.684C132.545 443.119 135.498 439.397 137.128 435.135C137.307 434.668 137.825 433.097 136.982 432.51C136.802 432.384 136.588 432.332 136.369 432.332Z" fill="white"/>
<path d="M8.97656 443.321H53.9496C53.9496 443.321 76.8136 441.177 76.8136 461.898H8.97656V443.321Z" fill="#19203F"/>
<path d="M53.9499 443.751H8.97688C8.73988 443.751 8.54688 443.559 8.54688 443.321C8.54688 443.084 8.73888 442.891 8.97688 442.891H53.9499C54.1869 442.891 54.3799 443.083 54.3799 443.321C54.3789 443.559 54.1869 443.751 53.9499 443.751Z" fill="white"/>
<path d="M55.854 447.267C55.822 447.267 55.789 447.264 55.757 447.256C50.74 446.095 46.259 442.481 44.062 437.824C43.235 436.07 43.332 434.556 44.32 433.773C45.247 433.037 46.652 433.21 48.177 434.245C51.82 436.715 54.543 440.584 55.703 444.839C56.825 440.757 58.687 436.835 61.141 433.403C61.557 432.821 62.019 432.221 62.677 431.833C63.476 431.363 64.414 431.351 65.065 431.805C65.994 432.451 66.161 433.777 65.523 435.442C63.747 440.082 60.464 444.104 56.276 446.772C56.284 446.824 56.283 446.879 56.27 446.934C56.227 447.133 56.05 447.267 55.854 447.267ZM45.679 434.178C45.383 434.178 45.098 434.254 44.855 434.446C44.085 435.056 44.342 436.402 44.84 437.458C46.809 441.631 50.709 444.923 55.146 446.208C54.248 441.704 51.496 437.531 47.697 434.955C47.29 434.68 46.445 434.178 45.679 434.178ZM63.965 432.332C63.666 432.332 63.358 432.43 63.117 432.573C62.603 432.876 62.206 433.396 61.842 433.903C59.323 437.426 57.444 441.477 56.37 445.684C60.14 443.12 63.093 439.398 64.724 435.135C64.903 434.668 65.42 433.098 64.577 432.51C64.397 432.384 64.183 432.332 63.965 432.332Z" fill="white"/>
<path d="M121.133 217.111C120.308 217.111 119.483 217.07 118.654 216.988C112.005 216.328 105.932 212.915 101.606 207.822L91.7456 196.215C86.2156 189.705 87.0096 179.944 93.5206 174.414C100.031 168.884 109.792 169.678 115.322 176.189L121.657 183.646L155.867 152.062L176.85 174.791L138.249 210.429C133.603 214.718 127.435 217.111 121.133 217.111Z" fill="#FFA233"/>
<path d="M46.6094 186.93V244.587C46.6094 244.587 56.0784 249.519 70.6684 251.796C70.9264 251.839 71.1924 251.873 71.4594 251.916C73.8654 252.268 76.4084 252.552 79.0634 252.724C81.8994 252.913 84.8724 252.973 87.9484 252.879C89.3404 252.922 90.6894 252.939 91.9874 252.913C94.3244 252.879 96.5074 252.75 98.5434 252.544H98.5524C100.382 252.372 102.083 252.123 103.673 251.839C105.615 251.487 107.394 251.074 108.992 250.619C111.011 250.052 112.764 249.425 114.268 248.797C119.303 246.7 121.555 244.587 121.555 244.587L118.118 186.93C118.118 180.924 115.025 175.639 110.342 172.572C110.333 172.572 110.325 172.563 110.316 172.555C107.635 170.811 104.43 169.797 100.984 169.797H63.7444C61.6644 169.797 59.6804 170.166 57.8414 170.845C56.6214 171.283 55.4784 171.859 54.4134 172.555C54.4044 172.564 54.3964 172.572 54.3874 172.572C52.7544 173.637 51.3114 174.978 50.1344 176.525C49.0264 177.969 48.1404 179.61 47.5394 181.371C46.9364 183.115 46.6094 184.988 46.6094 186.93Z" fill="white"/>
<path d="M39.7305 256.142C46.4245 267.08 68.3225 271.278 68.3225 271.278L76.0545 169.796L59.4505 169.793C56.0045 169.793 52.7995 170.807 50.1185 172.551C50.1095 172.56 50.1015 172.568 50.0925 172.568C45.4095 175.636 42.3165 180.92 42.3165 186.926L39.7305 256.142Z" fill="#FFA233"/>
<path d="M99.1133 169.797L105.037 271.281C121.561 264.793 121.558 244.587 121.558 244.587L118.121 186.93C118.121 180.924 115.028 175.639 110.345 172.572C110.336 172.572 110.328 172.563 110.319 172.555C107.638 170.811 104.433 169.797 100.987 169.797H99.1133Z" fill="#FFA233"/>
<path d="M118.652 217.417C118.467 217.417 118.295 217.296 118.24 217.109L105.799 175.177C105.732 174.95 105.861 174.71 106.088 174.643C106.317 174.574 106.555 174.706 106.623 174.933L119.064 216.865C119.131 217.092 119.002 217.332 118.774 217.399C118.733 217.411 118.692 217.417 118.652 217.417Z" fill="#19203F"/>
<path d="M114.691 191.25C114.584 191.25 114.479 191.211 114.395 191.132C114.223 190.968 114.216 190.696 114.38 190.524L119.953 184.653C120.117 184.481 120.389 184.475 120.561 184.637C120.733 184.801 120.74 185.073 120.576 185.245L115.003 191.116C114.918 191.205 114.804 191.25 114.691 191.25Z" fill="#19203F"/>
<path d="M94.5082 177.876C94.3842 177.876 94.2652 177.822 94.1822 177.727L90.0822 172.968L86.7362 177.695C86.6692 177.789 86.5672 177.853 86.4532 177.871C86.3382 177.891 86.2222 177.861 86.1292 177.792L77.2052 171.186C77.0152 171.045 76.9742 170.776 77.1152 170.585C77.2582 170.393 77.5262 170.354 77.7172 170.495L86.2882 176.84L89.6972 172.022C89.7732 171.914 89.8952 171.847 90.0282 171.841C90.1522 171.836 90.2872 171.89 90.3742 171.99L94.4452 176.716L97.9742 170.858C98.0982 170.655 98.3632 170.589 98.5642 170.712C98.7672 170.835 98.8332 171.098 98.7112 171.301L94.8762 177.667C94.8052 177.785 94.6812 177.862 94.5442 177.873C94.5332 177.875 94.5202 177.876 94.5082 177.876Z" fill="#19203F"/>
<path d="M79.9831 139.681H70.8001C70.8001 139.681 65.5321 126.065 68.1001 122.9C70.6681 119.735 74.7821 121.288 74.7821 121.288C74.7821 121.288 74.7291 116.57 82.1941 116.57C89.6591 116.57 112.53 116.57 112.53 116.57C112.53 116.57 113.996 123.68 107.933 126.559V139.68H79.9831V139.681Z" fill="#19203F"/>
<path d="M75.9258 136.664V147.018C75.9258 147.259 75.9348 147.508 75.9348 147.757C75.9518 147.998 75.9688 148.238 75.9858 148.479C76.0118 148.737 76.0368 148.986 76.0808 149.244C76.1148 149.502 76.1498 149.751 76.2008 150.009C76.3208 150.679 76.4848 151.332 76.6908 151.977C76.7428 152.14 76.7938 152.304 76.8458 152.458C76.8798 152.544 76.9148 152.638 76.9488 152.733V152.742C76.9828 152.828 77.0178 152.914 77.0518 153.008C79.2518 158.653 84.4668 162.838 90.8168 163.276C94.5288 163.534 97.9998 162.503 100.836 160.595C105.107 157.708 107.934 152.827 107.934 147.319V126.559H84.4588C84.1668 131.319 81.5888 135.736 77.5928 138.374C77.2148 137.652 76.6218 137.068 75.9258 136.664Z" fill="#D87C3D"/>
<path d="M100.838 160.59V169.796H75.9102V152.798L76.9482 152.734C76.9832 152.823 77.0172 152.917 77.0522 153.006C79.2522 158.652 84.4682 162.84 90.8162 163.28C94.5292 163.531 98.0052 162.503 100.838 160.59Z" fill="#D87C3D"/>
<path d="M68.0264 145.645C69.1604 149.185 72.2794 152.012 75.9064 152.803L76.9464 152.734C76.9124 152.639 76.8774 152.545 76.8434 152.459C76.7914 152.304 76.7404 152.141 76.6884 151.978C76.4824 151.334 76.3194 150.68 76.1984 150.01C76.1464 149.752 76.1124 149.503 76.0784 149.245C76.0444 148.996 76.0094 148.738 75.9924 148.48C75.9664 148.239 75.9494 147.999 75.9324 147.758C75.9324 147.509 75.9234 147.26 75.9234 147.019V136.665C74.9094 136.072 73.6634 135.84 72.5034 136.055C72.2804 136.098 72.0564 136.158 71.8504 136.227C71.6274 136.296 71.4124 136.382 71.2064 136.485C70.8884 136.64 70.5874 136.812 70.3124 137.018C70.2864 137.027 70.2694 137.044 70.2434 137.061L70.2174 137.078C69.2984 137.774 68.5674 138.719 68.1294 139.776C67.3654 141.624 67.4164 143.746 68.0264 145.645Z" fill="#D87C3D"/>
<path d="M102.853 142.311C104.143 142.311 105.19 141.264 105.19 139.974C105.19 138.683 104.143 137.637 102.853 137.637C101.562 137.637 100.516 138.683 100.516 139.974C100.516 141.264 101.562 142.311 102.853 142.311Z" fill="#19203F"/>
<path d="M101.597 136.367H104.105C104.672 136.367 105.136 135.903 105.136 135.336C105.136 134.769 104.672 134.305 104.105 134.305H101.597C101.03 134.305 100.566 134.769 100.566 135.336C100.566 135.903 101.03 136.367 101.597 136.367Z" fill="#19203F"/>
<path d="M90.0089 142.311C91.2996 142.311 92.3459 141.264 92.3459 139.974C92.3459 138.683 91.2996 137.637 90.0089 137.637C88.7182 137.637 87.6719 138.683 87.6719 139.974C87.6719 141.264 88.7182 142.311 90.0089 142.311Z" fill="#19203F"/>
<path d="M88.7537 136.367H91.2617C91.8287 136.367 92.2927 135.903 92.2927 135.336C92.2927 134.769 91.8287 134.305 91.2617 134.305H88.7537C88.1867 134.305 87.7227 134.769 87.7227 135.336C87.7237 135.903 88.1867 136.367 88.7537 136.367Z" fill="#19203F"/>
<path d="M82.8284 150.903C85.068 150.903 86.8834 149.087 86.8834 146.848C86.8834 144.608 85.068 142.793 82.8284 142.793C80.5889 142.793 78.7734 144.608 78.7734 146.848C78.7734 149.087 80.5889 150.903 82.8284 150.903Z" fill="#19203F"/>
<path d="M80.6914 158.617C80.6914 158.617 84.9574 163.338 91.1794 163.3C97.4014 163.262 100.834 160.59 100.834 160.59V167.251C100.834 167.251 89.2314 170.858 80.6914 158.617Z" fill="#19203F"/>
<path d="M98.1209 138.941L96.5039 148.83H100.985L98.1209 138.941Z" fill="#19203F"/>
<path d="M72.9903 138.931C74.7753 139.79 74.8373 141.908 74.7623 143.622C74.7563 143.766 74.6163 143.905 74.4753 143.922C73.2843 144.065 72.2663 145.078 72.2123 146.298C72.1583 147.515 73.1333 148.64 74.3133 148.845C74.7453 148.92 74.6733 149.602 74.2363 149.526C72.7173 149.263 71.5143 147.902 71.5273 146.341C71.5393 144.881 72.6913 143.61 74.0893 143.305C74.1393 142.029 74.1243 140.524 72.9823 139.718C71.7933 138.879 70.5873 139.879 70.4003 141.132C70.3353 141.567 69.6533 141.493 69.7193 141.055C69.9503 139.515 71.4033 138.167 72.9903 138.931Z" fill="#19203F"/>
<path d="M95.7946 148.68C97.4626 148.642 99.1306 148.605 100.799 148.567C99.8116 145.251 98.8256 141.935 97.8386 138.619C97.7126 138.198 98.3916 138.094 98.5156 138.512C99.5406 141.956 100.565 145.4 101.59 148.843C101.661 149.083 101.405 149.233 101.213 149.237L95.7176 149.361C95.2796 149.371 95.3586 148.69 95.7946 148.68Z" fill="#19203F"/>
<path d="M92.9318 155.329C94.4324 155.329 95.6488 154.112 95.6488 152.612C95.6488 151.111 94.4324 149.895 92.9318 149.895C91.4313 149.895 90.2148 151.111 90.2148 152.612C90.2148 154.112 91.4313 155.329 92.9318 155.329Z" fill="#19203F"/>
<path d="M173.964 208.498L120.934 187.352L90.9397 262.571L143.971 283.717L173.964 208.498Z" fill="#F79654"/>
<path d="M170.011 209.05L122.473 190.094L93.9426 261.642L141.481 280.598L170.011 209.05Z" fill="white"/>
<path d="M161.489 208.825L129.762 196.175C129.762 196.175 131.565 187.893 137.815 190.385L142.173 192.123C142.173 192.123 145.533 188.662 150.37 190.59C155.215 192.522 155.271 197.345 155.271 197.345L159.629 199.083C165.879 201.574 161.489 208.825 161.489 208.825Z" fill="#A4BFEA"/>
<path d="M172.062 209.319L143.399 281.209C143.195 281.721 144.025 281.946 144.228 281.436L172.891 209.546C173.095 209.034 172.265 208.81 172.062 209.319Z" fill="#19203F"/>
<path d="M161.779 217.222L123.171 201.829C122.659 201.625 122.434 202.455 122.944 202.658L161.552 218.051C162.064 218.255 162.289 217.425 161.779 217.222Z" fill="#19203F"/>
<path d="M158.834 223.988L120.226 208.595C119.714 208.391 119.489 209.221 119.999 209.424L158.607 224.817C159.119 225.022 159.343 224.192 158.834 223.988Z" fill="#19203F"/>
<path d="M155.502 230.382L116.894 214.989C116.382 214.785 116.157 215.615 116.667 215.818L155.275 231.211C155.787 231.416 156.012 230.586 155.502 230.382Z" fill="#19203F"/>
<path d="M152.557 237.152L113.949 221.759C113.437 221.555 113.212 222.385 113.722 222.588L152.33 237.981C152.842 238.185 153.066 237.355 152.557 237.152Z" fill="#19203F"/>
<path d="M146.567 200.146C144.39 199.278 143.325 196.8 144.193 194.623C145.061 192.446 147.539 191.38 149.716 192.248C151.894 193.116 152.959 195.594 152.091 197.772C151.223 199.949 148.745 201.014 146.567 200.146ZM149.398 193.046C147.661 192.353 145.684 193.203 144.991 194.941C144.298 196.679 145.148 198.655 146.885 199.348C148.622 200.041 150.6 199.191 151.293 197.453C151.986 195.716 151.136 193.738 149.398 193.046Z" fill="#19203F"/>
<path d="M134.058 215.79C133.162 215.627 132.212 215.724 131.324 216.132L121.944 220.434L121.876 220.465L107.832 226.604L105.691 227.541C103.743 228.582 102.044 230.082 100.76 231.914C99.6283 233.529 98.8183 235.403 98.4453 237.456C98.0723 239.509 98.1703 241.548 98.6623 243.459C99.4273 246.445 101.152 249.105 103.538 251.022C105.313 252.446 107.444 253.459 109.824 253.892L142.031 259.746C143.975 260.099 145.858 258.796 146.211 256.851C146.388 255.876 146.149 254.919 145.623 254.166C145.445 253.908 145.238 253.67 144.992 253.469L148.39 254.087C150.334 254.44 152.217 253.137 152.57 251.193C152.746 250.224 152.507 249.267 151.982 248.508C151.463 247.75 150.651 247.19 149.676 247.013C151.62 247.366 153.502 246.069 153.855 244.125C154.032 243.15 153.793 242.193 153.268 241.434C152.749 240.676 151.936 240.122 150.961 239.945C152.905 240.298 154.788 238.995 155.141 237.05C155.318 236.075 155.079 235.118 154.553 234.365C154.034 233.607 153.222 233.047 152.247 232.87L126.994 228.28L135.171 224.535C137.485 223.473 138.506 220.717 137.448 218.41C136.794 216.988 135.5 216.052 134.058 215.79Z" fill="#D87C3D"/>
<path d="M134.852 237.278C140.298 238.082 145.744 238.885 151.19 239.689C151.623 239.753 151.598 240.438 151.162 240.374C145.716 239.57 140.27 238.767 134.824 237.963C134.391 237.899 134.416 237.214 134.852 237.278Z" fill="#19203F"/>
<path d="M133.722 244.208C139.075 245.041 144.427 245.874 149.78 246.707C150.212 246.774 150.187 247.46 149.752 247.392C144.399 246.559 139.047 245.726 133.694 244.893C133.262 244.826 133.287 244.14 133.722 244.208Z" fill="#19203F"/>
<path d="M131.58 250.394C136.063 251.277 140.547 252.16 145.03 253.044C145.463 253.129 145.255 253.783 144.826 253.699L131.376 251.049C130.943 250.963 131.151 250.309 131.58 250.394Z" fill="#19203F"/>
<path d="M108.698 225.909L101.86 253.348L50.7251 240.959C41.8211 238.802 36.0081 230.238 37.2901 221.166L42.4091 184.953L71.7561 191.021L67.4321 215.696L108.698 225.909Z" fill="#FFA233"/>
<path d="M106.214 235.955C106.179 235.955 106.143 235.951 106.107 235.941C105.877 235.882 105.739 235.647 105.798 235.418L108.176 226.221L67.3309 216.112C67.1119 216.058 66.9729 215.844 67.0099 215.622L72.4839 183.982C72.5249 183.748 72.7529 183.59 72.9809 183.632C73.2149 183.672 73.3719 183.895 73.3319 184.129L67.9249 215.375L108.803 225.492C108.915 225.52 109.01 225.591 109.069 225.689C109.128 225.787 109.145 225.905 109.116 226.016L106.63 235.633C106.58 235.827 106.405 235.955 106.214 235.955Z" fill="#19203F"/>
<path d="M101.859 253.775C101.826 253.775 101.792 253.771 101.757 253.763L50.6207 241.374C50.5437 241.359 40.9297 239.374 37.6627 229.56C37.5877 229.335 37.7097 229.092 37.9347 229.017C38.1607 228.945 38.4027 229.064 38.4787 229.289C41.5827 238.617 50.7127 240.517 50.8057 240.535L101.96 252.928C102.19 252.984 102.332 253.216 102.276 253.447C102.229 253.643 102.053 253.775 101.859 253.775Z" fill="#19203F"/>
<path d="M58.4762 223.261C58.3572 223.261 58.2382 223.211 58.1532 223.115C57.9972 222.937 58.0152 222.665 58.1922 222.509L65.3582 216.219C65.5362 216.064 65.8092 216.08 65.9652 216.259C66.1212 216.437 66.1032 216.709 65.9262 216.865L58.7602 223.155C58.6782 223.226 58.5762 223.261 58.4762 223.261Z" fill="#19203F"/>
<path d="M360.424 461.438H321.874L321.76 460.558L314.012 399.449V399.441L322.077 384.825L328.538 373.11L331.878 372.711L338.118 379.449L352.302 394.781L354.135 409.812L358.86 448.582L360.318 460.558L360.424 461.438Z" fill="#4B72BF"/>
<path d="M328.539 373.109L314.008 399.441C336.801 404.492 352.302 394.776 352.302 394.776L331.874 372.703L328.539 373.109Z" fill="#FFA96E"/>
<path d="M328.537 373.108L322.07 384.827C335.186 383.405 338.116 379.45 338.116 379.45L331.871 372.703L328.537 373.108Z" fill="#19203F"/>
<path d="M335.127 461.436H334.288L334.182 460.556L327.339 401.076C327.331 401.011 327.339 400.954 327.363 400.897C327.412 400.75 327.542 400.628 327.705 400.612C327.909 400.588 328.088 400.71 328.137 400.889C328.161 400.913 328.17 400.946 328.17 400.979L335.022 460.557L335.127 461.436Z" fill="#19203F"/>
<path d="M352.455 461.438H351.608L351.494 460.558L342.997 398.642L342.989 398.577C342.956 398.341 343.111 398.129 343.348 398.105C343.56 398.064 343.747 398.203 343.804 398.406C343.812 398.422 343.82 398.439 343.82 398.463L352.342 460.558L352.455 461.438Z" fill="#19203F"/>
<path d="M403.846 362.745L402.656 377.841L396.831 452.066L396.228 460.555L396.163 461.435H357.914L357.979 460.555L358.859 448.579L365.385 359.73V359.722H365.393L375.12 348.26L376.187 347.005L384.847 336.797V336.789L386.526 336.927L388.196 337.066L392.978 344.911L403.846 362.745Z" fill="#FF5F5F"/>
<path d="M384.849 336.797L365.387 359.726C386.727 369.194 403.845 362.743 403.845 362.743L388.197 337.059L384.849 336.797Z" fill="#FFA96E"/>
<path d="M384.849 336.797L376.188 347.001C389.325 348.207 392.98 344.91 392.98 344.91L388.198 337.059L384.849 336.797Z" fill="#19203F"/>
<path d="M378.964 364.046L370.744 460.553L370.671 461.433H369.824L369.905 460.553L378.125 363.973C378.133 363.908 378.149 363.851 378.19 363.802C378.263 363.664 378.418 363.582 378.581 363.59C378.776 363.606 378.923 363.753 378.948 363.94C378.964 363.973 378.964 364.005 378.964 364.046Z" fill="#19203F"/>
<path d="M394.797 364.611V364.668L388.736 460.556L388.679 461.436H387.84L387.897 460.556L393.958 364.684L393.966 364.619C393.974 364.391 394.178 364.212 394.406 364.228C394.626 364.236 394.78 364.408 394.797 364.611Z" fill="#19203F"/>
<path d="M470.794 143.393C470.794 143.393 479.662 129.449 477.482 122.791C475.302 116.133 468.226 118.551 468.226 118.551C468.226 118.551 465.539 111.743 457.835 112.878C450.131 114.013 438.576 120.791 432.037 111.504C432.037 111.504 425.415 122.018 435.847 126.629V143.393H470.794Z" fill="#19203F"/>
<path d="M467.857 136.734V147.088C467.857 147.329 467.848 147.578 467.848 147.827C467.831 148.068 467.814 148.308 467.796 148.549C467.77 148.807 467.744 149.056 467.701 149.314C467.667 149.572 467.632 149.821 467.581 150.079C467.461 150.749 467.297 151.402 467.091 152.047C467.039 152.21 466.988 152.374 466.936 152.528C466.902 152.614 466.867 152.708 466.833 152.803V152.812C466.799 152.898 466.764 152.984 466.73 153.078C464.53 158.723 459.315 162.908 452.965 163.346C449.253 163.604 445.782 162.573 442.946 160.665C438.675 157.778 435.848 152.897 435.848 147.389V126.629H459.323C459.615 131.389 462.193 135.806 466.189 138.444C466.568 137.722 467.161 137.138 467.857 136.734Z" fill="#F79654"/>
<path d="M442.941 160.661V169.867H467.869V152.869L466.831 152.805C466.796 152.894 466.762 152.988 466.727 153.077C464.527 158.723 459.311 162.911 452.963 163.351C449.249 163.602 445.773 162.574 442.941 160.661Z" fill="#F79654"/>
<path d="M475.752 145.712C474.618 149.252 471.499 152.079 467.872 152.87L466.832 152.801C466.866 152.707 466.901 152.612 466.935 152.526C466.986 152.371 467.038 152.208 467.09 152.045C467.296 151.401 467.459 150.747 467.58 150.077C467.631 149.819 467.666 149.57 467.7 149.312C467.734 149.063 467.769 148.805 467.786 148.547C467.812 148.306 467.829 148.066 467.846 147.825C467.846 147.576 467.855 147.327 467.855 147.086V136.732C468.869 136.139 470.115 135.907 471.275 136.122C471.498 136.165 471.722 136.225 471.928 136.294C472.151 136.363 472.366 136.449 472.572 136.552C472.89 136.707 473.191 136.879 473.466 137.085C473.492 137.094 473.509 137.111 473.535 137.128L473.561 137.145C474.48 137.841 475.211 138.786 475.649 139.843C476.414 141.691 476.362 143.813 475.752 145.712Z" fill="#F79654"/>
<path d="M440.927 142.377C442.218 142.377 443.264 141.331 443.264 140.04C443.264 138.749 442.218 137.703 440.927 137.703C439.636 137.703 438.59 138.749 438.59 140.04C438.59 141.331 439.636 142.377 440.927 142.377Z" fill="#19203F"/>
<path d="M442.18 136.433H439.672C439.105 136.433 438.641 135.969 438.641 135.402C438.641 134.835 439.105 134.371 439.672 134.371H442.18C442.747 134.371 443.211 134.835 443.211 135.402C443.211 135.969 442.747 136.433 442.18 136.433Z" fill="#19203F"/>
<path d="M456.107 140.04C456.107 141.33 455.061 142.377 453.77 142.377C452.48 142.377 451.434 141.331 451.434 140.04C451.434 138.749 452.48 137.703 453.77 137.703C455.061 137.703 456.107 138.749 456.107 140.04Z" fill="#19203F"/>
<path d="M455.023 136.433H452.515C451.948 136.433 451.484 135.969 451.484 135.402C451.484 134.835 451.948 134.371 452.515 134.371H455.023C455.59 134.371 456.054 134.835 456.054 135.402C456.054 135.969 455.59 136.433 455.023 136.433Z" fill="#19203F"/>
<path d="M460.95 150.969C463.189 150.969 465.005 149.154 465.005 146.914C465.005 144.675 463.189 142.859 460.95 142.859C458.71 142.859 456.895 144.675 456.895 146.914C456.895 149.154 458.71 150.969 460.95 150.969Z" fill="#19203F"/>
<path d="M463.084 158.688C463.084 158.688 458.818 163.409 452.596 163.371C446.374 163.333 442.941 160.661 442.941 160.661V167.322C442.941 167.322 454.545 170.929 463.084 158.688Z" fill="#19203F"/>
<path d="M445.657 139.012L447.275 148.901H442.793L445.657 139.012Z" fill="#19203F"/>
<path d="M470.791 139.002C469.006 139.861 468.944 141.979 469.019 143.693C469.025 143.837 469.165 143.976 469.306 143.993C470.497 144.136 471.515 145.149 471.569 146.369C471.623 147.586 470.648 148.711 469.467 148.916C469.035 148.991 469.107 149.673 469.544 149.597C471.063 149.334 472.266 147.973 472.253 146.412C472.241 144.952 471.089 143.681 469.691 143.376C469.641 142.1 469.656 140.595 470.798 139.789C471.987 138.95 473.193 139.95 473.38 141.203C473.445 141.638 474.127 141.564 474.061 141.126C473.831 139.586 472.378 138.238 470.791 139.002Z" fill="#19203F"/>
<path d="M447.987 148.75C446.319 148.712 444.651 148.675 442.983 148.637C443.97 145.321 444.956 142.005 445.943 138.689C446.069 138.268 445.39 138.164 445.266 138.582C444.241 142.026 443.217 145.47 442.192 148.913C442.121 149.153 442.377 149.303 442.569 149.307L448.064 149.431C448.503 149.441 448.423 148.759 447.987 148.75Z" fill="#19203F"/>
<path d="M443.961 152.245L452.62 150.215C452.62 150.215 454.053 155.112 449.485 156.127C444.915 157.142 443.961 152.245 443.961 152.245Z" fill="white"/>
<path d="M386.352 443.389H431.325L466.104 242.926H421.131L386.352 443.389Z" fill="#19203F"/>
<path d="M431.702 443.325H386.729C386.729 443.325 369.02 441.181 369.02 461.902H431.702V443.325Z" fill="#19203F"/>
<path d="M431.7 443.755H386.727C386.49 443.755 386.297 443.563 386.297 443.325C386.297 443.088 386.489 442.895 386.727 442.895H431.7C431.937 442.895 432.13 443.087 432.13 443.325C432.13 443.563 431.938 443.755 431.7 443.755Z" fill="white"/>
<path d="M401.706 443.693C401.51 443.693 401.333 443.559 401.287 443.36C401.274 443.305 401.273 443.251 401.281 443.198C397.091 440.53 393.809 436.508 392.034 431.869C391.396 430.202 391.563 428.877 392.492 428.231C393.144 427.776 394.081 427.789 394.88 428.259C395.537 428.646 395.999 429.247 396.416 429.83C398.87 433.261 400.732 437.182 401.854 441.266C403.014 437.01 405.737 433.141 409.379 430.671C410.905 429.637 412.311 429.467 413.237 430.199C414.226 430.982 414.323 432.497 413.495 434.251C411.299 438.907 406.818 442.521 401.801 443.682C401.77 443.69 401.737 443.693 401.706 443.693ZM411.881 430.606C411.115 430.606 410.27 431.107 409.862 431.383C406.063 433.958 403.313 438.131 402.415 442.636C406.851 441.35 410.752 438.059 412.72 433.886C413.218 432.83 413.476 431.484 412.706 430.874C412.462 430.68 412.177 430.606 411.881 430.606ZM393.595 428.759C393.377 428.759 393.163 428.811 392.982 428.937C392.14 429.524 392.657 431.095 392.836 431.563C394.466 435.824 397.419 439.546 401.19 442.111C400.117 437.904 398.238 433.853 395.719 430.331C395.355 429.823 394.957 429.302 394.444 429C394.202 428.857 393.895 428.759 393.595 428.759Z" fill="white"/>
<path d="M421.675 452.355C421.599 452.355 421.522 452.335 421.453 452.293C410.345 445.594 396.223 443.56 383.675 446.847C383.444 446.909 383.21 446.771 383.151 446.541C383.091 446.311 383.228 446.076 383.457 446.017C396.414 442.619 410.426 444.64 421.896 451.559C422.1 451.682 422.165 451.945 422.042 452.148C421.962 452.281 421.82 452.355 421.675 452.355Z" fill="white"/>
<path d="M531.361 443.389H486.388L451.609 242.926H496.582L531.361 443.389Z" fill="#19203F"/>
<path d="M465.332 327.269C465.126 327.269 464.943 327.12 464.909 326.909L457.614 282.414L440.435 277.078C440.208 277.008 440.082 276.767 440.152 276.54C440.222 276.313 440.461 276.188 440.69 276.257L458.123 281.672C458.278 281.72 458.393 281.852 458.419 282.013L465.756 326.77C465.795 327.004 465.636 327.226 465.402 327.263C465.379 327.268 465.355 327.269 465.332 327.269Z" fill="white"/>
<path d="M486.012 443.325H530.985C530.985 443.325 548.694 441.181 548.694 461.902H486.012V443.325Z" fill="#19203F"/>
<path d="M530.985 443.755H486.012C485.775 443.755 485.582 443.563 485.582 443.325C485.582 443.088 485.774 442.895 486.012 442.895H530.985C531.222 442.895 531.415 443.087 531.415 443.325C531.415 443.563 531.223 443.755 530.985 443.755Z" fill="white"/>
<path d="M516.006 443.693C515.974 443.693 515.941 443.69 515.91 443.682C510.893 442.521 506.412 438.907 504.215 434.25C503.388 432.497 503.483 430.982 504.473 430.199C505.399 429.466 506.806 429.636 508.331 430.671C511.974 433.141 514.697 437.01 515.857 441.265C516.979 437.183 518.84 433.261 521.295 429.83C521.71 429.248 522.172 428.647 522.831 428.259C523.629 427.789 524.567 427.776 525.219 428.231C526.148 428.876 526.315 430.202 525.677 431.869C523.903 436.507 520.62 440.529 516.431 443.198C516.439 443.25 516.438 443.305 516.425 443.36C516.379 443.559 516.201 443.693 516.006 443.693ZM505.83 430.605C505.534 430.605 505.249 430.681 505.006 430.873C504.236 431.484 504.493 432.829 504.992 433.885C506.961 438.06 510.861 441.352 515.297 442.636C514.399 438.132 511.648 433.959 507.849 431.383C507.441 431.107 506.596 430.605 505.83 430.605ZM524.116 428.759C523.816 428.759 523.509 428.858 523.267 429C522.753 429.302 522.357 429.823 521.994 430.331C519.473 433.853 517.594 437.903 516.521 442.111C520.292 439.546 523.244 435.824 524.875 431.563C525.054 431.096 525.571 429.524 524.729 428.937C524.547 428.812 524.333 428.759 524.116 428.759Z" fill="white"/>
<path d="M496.039 452.355C495.894 452.355 495.752 452.281 495.672 452.147C495.549 451.944 495.614 451.68 495.818 451.558C507.288 444.639 521.299 442.62 534.257 446.016C534.486 446.076 534.624 446.311 534.563 446.54C534.503 446.77 534.27 446.908 534.039 446.846C521.494 443.559 507.369 445.593 496.261 452.292C496.192 452.335 496.115 452.355 496.039 452.355Z" fill="white"/>
<path d="M497.229 181.437V244.653C497.229 244.653 487.535 249.585 472.598 251.862C472.334 251.905 472.061 251.939 471.789 251.982C469.326 252.334 466.722 252.618 464.004 252.79C461.101 252.979 458.057 253.039 454.908 252.945C453.483 252.988 452.102 253.005 450.774 252.979C448.381 252.945 446.147 252.816 444.062 252.61H444.053C442.179 252.438 440.438 252.189 438.81 251.905C436.822 251.553 435.001 251.14 433.365 250.685C431.298 250.118 429.503 249.491 427.964 248.863C422.809 246.766 420.504 244.653 420.504 244.653V186.996C420.504 180.99 423.671 175.705 428.465 172.638C428.474 172.638 428.483 172.629 428.491 172.621C431.236 170.877 434.517 169.863 438.044 169.863H479.687C481.816 169.863 483.848 170.232 485.73 170.911C486.979 171.349 488.149 171.925 489.24 172.621C489.249 172.63 489.258 172.638 489.266 172.638C490.939 173.703 497.229 179.495 497.229 181.437Z" fill="#4B72BF"/>
<path d="M456.055 250.873C455.908 250.873 455.765 250.797 455.684 250.661C455.564 250.456 455.633 250.193 455.838 250.073L485.705 232.556C485.908 232.435 486.172 232.504 486.293 232.709C486.413 232.914 486.344 233.177 486.139 233.297L456.272 250.814C456.204 250.854 456.129 250.873 456.055 250.873Z" fill="#19203F"/>
<path d="M416.81 57.4597L413.691 67.2897L413.665 67.3587L409.291 82.0517L408.621 84.2947C407.822 86.3487 406.542 88.2217 404.883 89.7167C403.414 91.0397 401.661 92.0707 399.667 92.6987C397.673 93.3177 395.637 93.4637 393.678 93.2147C390.619 92.8197 387.775 91.4357 385.575 89.2967C383.951 87.7067 382.679 85.7217 381.958 83.4107L373.133 62.3587L399.856 51.6947L405.287 63.2347L408.002 54.6677C408.775 52.2357 411.388 50.8867 413.802 51.6517C415.297 52.1327 416.38 53.3017 416.818 54.7017C417.085 55.5697 417.11 56.5227 416.81 57.4597Z" fill="#F79654"/>
<path d="M399.129 61.3599C393.724 65.3669 390.521 72.0729 390.802 78.7949C390.825 79.3429 391.684 79.3909 391.66 78.8369C391.387 72.3179 394.456 65.8899 399.698 62.0039C400.143 61.6739 399.57 61.0329 399.129 61.3599Z" fill="#19203F"/>
<path d="M495.982 184.547L466.832 172.482L491.531 123.398C491.647 123.118 491.643 122.797 491.518 122.521L472.652 80.5965L497.727 69.3125L516.593 111.238C519.814 118.394 519.94 126.658 516.939 133.911L495.982 184.547Z" fill="#4B72BF"/>
<path d="M410.351 80.4261L384.316 89.2773L420.678 196.227L446.712 187.376L410.351 80.4261Z" fill="#4B72BF"/>
<path d="M483.098 184.978C483.009 184.978 482.919 184.951 482.842 184.894C482.652 184.753 482.611 184.484 482.752 184.293L493.62 169.608C493.763 169.416 494.031 169.378 494.222 169.518C494.412 169.659 494.453 169.928 494.312 170.119L483.444 184.804C483.359 184.918 483.229 184.978 483.098 184.978Z" fill="#19203F"/>
<path d="M421.239 191.497C421.039 191.497 420.86 191.356 420.819 191.153L418.302 178.71C418.255 178.478 418.405 178.251 418.638 178.204C418.876 178.157 419.098 178.307 419.145 178.54L421.662 190.983C421.709 191.215 421.559 191.442 421.326 191.489C421.296 191.495 421.268 191.497 421.239 191.497Z" fill="#19203F"/>
<path d="M513.762 70.9179L512.575 83.8229C512.179 88.1239 508.337 91.3189 504.036 90.9229L422.946 83.4639C418.645 83.0679 415.45 79.2259 415.846 74.9249L417.033 62.0199C417.429 57.7189 421.271 54.5239 425.572 54.9199L506.662 62.3789C510.963 62.7749 514.158 66.6169 513.762 70.9179Z" fill="#FF5F5F"/>
<path d="M351.781 57.1243L350.797 67.8281L418.203 74.0285L419.187 63.3247L351.781 57.1243Z" fill="#A4BFEA"/>
<path d="M311.395 0.248044C279.37 -2.69896 250.928 20.956 247.981 52.981C245.042 84.997 268.689 113.439 300.714 116.386C332.73 119.333 361.172 95.678 364.119 63.661C367.067 31.637 343.411 3.19504 311.395 0.248044ZM351.291 62.476C348.997 87.42 326.836 105.843 301.892 103.549C276.947 101.255 258.525 79.103 260.819 54.158C263.113 29.213 285.274 10.791 310.21 13.085C335.154 15.38 353.585 37.54 351.291 62.476Z" fill="#A4BFEA"/>
<g opacity="0.3">
<path d="M351.29 62.4746C348.996 87.4186 326.835 105.842 301.891 103.548C276.946 101.254 258.524 79.1016 260.818 54.1566C263.112 29.2116 285.273 10.7896 310.209 13.0836C335.153 15.3786 353.584 37.5386 351.29 62.4746Z" fill="#A4BFEA"/>
</g>
<path d="M426.516 84.2191C426.513 84.2191 426.511 84.2191 426.508 84.2191C426.271 84.2151 426.082 84.0191 426.086 83.7821L426.585 55.0431C426.589 54.8061 426.781 54.6181 427.022 54.6211C427.259 54.6251 427.448 54.8211 427.444 55.0581L426.945 83.7971C426.941 84.0321 426.75 84.2191 426.516 84.2191Z" fill="#19203F"/>
<path d="M438.684 85.3385C438.645 85.3385 438.604 85.3335 438.565 85.3215C438.337 85.2565 438.205 85.0185 438.27 84.7895L446.285 56.8735C446.35 56.6455 446.588 56.5135 446.816 56.5795C447.044 56.6455 447.176 56.8825 447.111 57.1115L439.096 85.0275C439.042 85.2165 438.871 85.3385 438.684 85.3385Z" fill="#19203F"/>
<path d="M457.043 87.0279C457.039 87.0279 457.034 87.0279 457.03 87.0279C456.793 87.0209 456.606 86.8219 456.614 86.5849L457.518 57.8829C457.526 57.6459 457.734 57.4419 457.961 57.4669C458.198 57.4739 458.385 57.6729 458.377 57.9099L457.473 86.6119C457.465 86.8439 457.274 87.0279 457.043 87.0279Z" fill="#19203F"/>
<path d="M468.641 88.096C468.602 88.096 468.561 88.091 468.522 88.079C468.294 88.013 468.163 87.775 468.228 87.547L476.412 59.24C476.477 59.012 476.717 58.882 476.944 58.946C477.172 59.012 477.303 59.25 477.238 59.478L469.054 87.785C469 87.974 468.828 88.096 468.641 88.096Z" fill="#19203F"/>
<path d="M495.59 90.575C495.363 90.575 495.174 90.398 495.161 90.169L493.54 61.293C493.527 61.056 493.708 60.853 493.944 60.84C494.222 60.834 494.385 61.008 494.397 61.245L496.018 90.121C496.031 90.358 495.85 90.561 495.614 90.574C495.606 90.574 495.597 90.575 495.59 90.575Z" fill="#19203F"/>
<path d="M506.5 91.4388C506.466 91.4388 506.431 91.4348 506.396 91.4258C506.166 91.3688 506.026 91.1358 506.083 90.9048L512.407 65.4738C512.464 65.2438 512.696 65.1048 512.928 65.1608C513.158 65.2178 513.298 65.4508 513.241 65.6818L506.917 91.1128C506.869 91.3078 506.693 91.4388 506.5 91.4388Z" fill="#19203F"/>
<path d="M253.76 75.2936C253.571 75.2936 253.398 75.1686 253.345 74.9776C249.815 62.0916 250.993 47.7386 256.577 35.6006C262.161 23.4626 272.293 13.2296 284.375 7.52556C284.59 7.42456 284.847 7.51556 284.947 7.73056C285.049 7.94456 284.956 8.20155 284.742 8.30255C272.84 13.9216 262.858 24.0026 257.357 35.9596C251.856 47.9176 250.695 62.0556 254.173 74.7496C254.236 74.9786 254.101 75.2146 253.872 75.2776C253.835 75.2886 253.797 75.2936 253.76 75.2936Z" fill="#19203F"/>
<path d="M341.429 99.7298C341.296 99.7298 341.166 99.6688 341.082 99.5528C340.943 99.3608 340.985 99.0928 341.177 98.9528C349.922 92.5918 356.3 83.3418 359.138 72.9068C359.2 72.6788 359.434 72.5428 359.665 72.6048C359.894 72.6668 360.029 72.9028 359.967 73.1318C357.078 83.7548 350.585 93.1708 341.682 99.6468C341.605 99.7028 341.517 99.7298 341.429 99.7298Z" fill="#19203F"/>
<path d="M469.638 59.1458C469.736 60.0108 470.178 60.7588 470.814 61.2608C471.451 61.7628 472.275 62.0298 473.14 61.9318L480.544 61.0888C482.273 60.8918 483.527 59.3168 483.33 57.5868C483.232 56.7268 482.791 55.9788 482.154 55.4758C481.517 54.9688 480.693 54.7068 479.828 54.8058L472.424 55.6488C470.695 55.8458 469.441 57.4208 469.638 59.1458Z" fill="#F79654"/>
<path d="M496.317 70.2149C497.141 70.4939 498.006 70.4129 498.732 70.0509C499.458 69.6889 500.049 69.0559 500.328 68.2319L502.716 61.1729C503.274 59.5239 502.381 57.7199 500.733 57.1619C499.913 56.8849 499.048 56.9649 498.323 57.3279C497.593 57.6889 497.006 58.3229 496.727 59.1469L494.339 66.2059C493.78 67.8539 494.672 69.6579 496.317 70.2149Z" fill="#F79654"/>
<path d="M490.33 68.1895C491.15 68.4665 492.015 68.3865 492.74 68.0235C493.47 67.6625 494.057 67.0285 494.336 66.2045L496.724 59.1455C497.282 57.4965 496.389 55.6925 494.745 55.1355C493.921 54.8565 493.06 54.9385 492.33 55.2995C491.604 55.6615 491.017 56.2955 490.738 57.1205L488.35 64.1795C487.793 65.8285 488.681 67.6315 490.33 68.1895Z" fill="#F79654"/>
<path d="M484.34 66.1611C485.164 66.4401 486.025 66.3581 486.755 65.9971C487.485 65.6361 488.072 65.0021 488.351 64.1781L490.739 57.1191C491.297 55.4701 490.404 53.6661 488.756 53.1081C487.932 52.8291 487.071 52.9111 486.346 53.2741C485.621 53.6361 485.029 54.2691 484.75 55.0931L482.362 62.1521C481.803 63.8001 482.695 65.6051 484.34 66.1611Z" fill="#F79654"/>
<path d="M478.97 62.3178C479.794 62.5968 480.655 62.5148 481.38 62.1518C482.105 61.7898 482.697 61.1568 482.976 60.3328L484.748 55.0938C485.306 53.4448 484.413 51.6408 482.769 51.0848C481.945 50.8058 481.084 50.8878 480.354 51.2488C479.624 51.6098 479.037 52.2438 478.758 53.0678L476.986 58.3068C476.429 59.9548 477.321 61.7598 478.97 62.3178Z" fill="#F79654"/>
<path d="M485.269 54.4062C485.267 54.2512 485.168 54.1082 485.013 54.0572C484.818 53.9942 484.608 54.1002 484.545 54.2952L482.436 60.7712C482.374 60.9682 482.479 61.1762 482.674 61.2392C482.869 61.3022 483.079 61.1962 483.142 61.0012L485.251 54.5252C485.264 54.4862 485.269 54.4462 485.269 54.4062Z" fill="#19203F"/>
<path d="M478.477 55.0003C478.475 54.8443 478.375 54.7003 478.218 54.6503C478.023 54.5883 477.814 54.6963 477.752 54.8913L476.487 58.8783C476.422 59.0743 476.533 59.2823 476.728 59.3443C476.923 59.4063 477.132 59.2983 477.194 59.1033L478.459 55.1163C478.472 55.0773 478.477 55.0383 478.477 55.0003Z" fill="#19203F"/>
<path d="M491.26 56.4292C491.258 56.2752 491.159 56.1312 491.004 56.0812C490.809 56.0172 490.599 56.1232 490.536 56.3182L488 64.0632C487.935 64.2582 488.042 64.4682 488.237 64.5312C488.432 64.5952 488.642 64.4892 488.705 64.2942L491.241 56.5492C491.254 56.5092 491.26 56.4682 491.26 56.4292Z" fill="#19203F"/>
<path d="M497.207 58.6992C497.205 58.5452 497.107 58.4022 496.953 58.3512C496.758 58.2862 496.548 58.3922 496.483 58.5862L493.984 66.0882C493.919 66.2832 494.025 66.4932 494.219 66.5582C494.414 66.6232 494.624 66.5172 494.689 66.3232L497.188 58.8212C497.201 58.7802 497.207 58.7392 497.207 58.6992Z" fill="#19203F"/>
<path d="M401.153 62.647C401.986 62.393 402.641 61.824 403.02 61.106C403.398 60.389 403.511 59.53 403.257 58.697L401.084 51.569C400.576 49.904 398.8 48.958 397.135 49.465C396.307 49.717 395.651 50.287 395.273 51.004C394.89 51.723 394.782 52.58 395.036 53.413L397.209 60.541C397.716 62.207 399.492 63.153 401.153 62.647Z" fill="#F79654"/>
<path d="M395.108 64.4893C395.936 64.2373 396.592 63.6673 396.97 62.9503C397.353 62.2323 397.461 61.3743 397.207 60.5413L395.034 53.4133C394.526 51.7483 392.75 50.8023 391.089 51.3083C390.257 51.5623 389.605 52.1303 389.222 52.8493C388.844 53.5663 388.735 54.4243 388.989 55.2563L391.162 62.3843C391.67 64.0493 393.443 64.9973 395.108 64.4893Z" fill="#F79654"/>
<path d="M389.058 66.3345C389.89 66.0805 390.542 65.5125 390.925 64.7935C391.308 64.0755 391.416 63.2175 391.162 62.3845L388.989 55.2565C388.481 53.5915 386.705 52.6455 385.04 53.1525C384.207 53.4065 383.556 53.9745 383.178 54.6915C382.8 55.4085 382.687 56.2675 382.941 57.1005L385.114 64.2285C385.621 65.8945 387.397 66.8415 389.058 66.3345Z" fill="#F79654"/>
<path d="M382.455 66.3388C383.287 66.0848 383.939 65.5168 384.317 64.7998C384.695 64.0828 384.808 63.2238 384.554 62.3908L382.941 57.1008C382.433 55.4358 380.657 54.4898 378.996 54.9958C378.163 55.2498 377.512 55.8178 377.129 56.5368C376.746 57.2558 376.638 58.1128 376.892 58.9458L378.505 64.2358C379.014 65.8998 380.79 66.8458 382.455 66.3388Z" fill="#F79654"/>
<path d="M382.964 56.2377C382.872 56.1127 382.708 56.0537 382.552 56.1037C382.357 56.1657 382.248 56.3747 382.31 56.5697L384.37 63.0617C384.434 63.2577 384.641 63.3657 384.836 63.3037C385.031 63.2417 385.14 63.0327 385.077 62.8377L383.017 56.3457C383.006 56.3057 382.988 56.2697 382.964 56.2377Z" fill="#19203F"/>
<path d="M389.01 54.3934C388.919 54.2694 388.755 54.2104 388.599 54.2594C388.403 54.3214 388.295 54.5294 388.357 54.7254L390.81 62.4974C390.872 62.6934 391.08 62.8014 391.276 62.7394C391.472 62.6774 391.58 62.4694 391.518 62.2734L389.065 54.5014C389.053 54.4614 389.034 54.4254 389.01 54.3934Z" fill="#19203F"/>
<path d="M395.167 52.7688C395.076 52.6448 394.913 52.5858 394.758 52.6338C394.562 52.6948 394.453 52.9028 394.513 53.0988L396.854 60.6518C396.914 60.8478 397.123 60.9568 397.319 60.8968C397.515 60.8358 397.624 60.6278 397.564 60.4318L395.223 52.8788C395.21 52.8388 395.191 52.8018 395.167 52.7688Z" fill="#19203F"/>
<path d="M308.577 98.1293C308.355 98.1293 308.131 98.0413 307.96 97.8843C307.775 97.7163 307.666 97.4783 307.666 97.2343L307.418 92.2373C304.541 92.2993 301.651 91.9923 298.809 91.3263L297.523 96.1783C297.466 96.4103 297.309 96.6193 297.096 96.7433C296.882 96.8673 296.635 96.8993 296.396 96.8333C290.674 95.3443 285.184 92.4783 280.526 88.5463C280.336 88.3873 280.218 88.1553 280.204 87.9093C280.189 87.6713 280.267 87.4293 280.418 87.2493L283.676 83.4183C280.935 80.9593 278.629 78.1103 276.813 74.9383L272.391 77.3223C272.164 77.4393 271.905 77.4603 271.669 77.3853C271.437 77.3103 271.25 77.1493 271.142 76.9333C269.724 74.3173 268.59 71.5063 267.779 68.5903C266.973 65.6943 266.493 62.7003 266.353 59.6903C266.338 59.4553 266.418 59.2223 266.58 59.0403C266.744 58.8543 266.973 58.7433 267.221 58.7283L272.243 58.4873C272.18 55.5883 272.485 52.6963 273.153 49.8783L268.294 48.5923C267.8 48.4543 267.513 47.9493 267.648 47.4663C269.127 41.7573 271.99 36.2673 275.927 31.5963C276.085 31.4063 276.317 31.2883 276.563 31.2733C276.79 31.2593 277.042 31.3363 277.223 31.4863L281.063 34.7463C283.508 32.0123 286.358 29.7063 289.544 27.8833L287.159 23.4613C286.917 23.0193 287.08 22.4583 287.526 22.2123C290.157 20.7943 292.968 19.6613 295.883 18.8413C298.799 18.0403 301.793 17.5633 304.784 17.4233C305.021 17.4093 305.268 17.4963 305.452 17.6633C305.636 17.8313 305.741 18.0593 305.747 18.3053L305.987 23.3123C308.874 23.2423 311.765 23.5503 314.605 24.2243L315.891 19.3653C315.95 19.1323 316.1 18.9323 316.314 18.8073C316.523 18.6833 316.768 18.6483 317.006 18.7083C322.71 20.1893 328.2 23.0533 332.886 26.9893C333.068 27.1553 333.177 27.3703 333.207 27.6053C333.223 27.8673 333.153 28.0903 333.007 28.2803L329.736 32.1333C332.466 34.5763 334.772 37.4223 336.599 40.6073L341.022 38.2303C341.232 38.1153 341.489 38.0863 341.725 38.1583C341.962 38.2303 342.154 38.3893 342.267 38.6063C343.688 41.2423 344.822 44.0533 345.634 46.9543L345.635 46.9563C346.44 49.8733 346.919 52.8673 347.059 55.8543C347.074 56.0893 346.994 56.3223 346.832 56.5043C346.668 56.6903 346.44 56.8013 346.192 56.8163L341.17 57.0573C341.232 59.9643 340.926 62.8573 340.259 65.6673L345.119 66.9613C345.351 67.0193 345.551 67.1693 345.675 67.3823C345.8 67.5963 345.832 67.8473 345.765 68.0873C344.281 73.7973 341.418 79.2853 337.487 83.9493C337.328 84.1393 337.096 84.2573 336.852 84.2723C336.62 84.3013 336.366 84.2203 336.176 84.0453L332.351 80.7993C329.904 83.5343 327.054 85.8403 323.871 87.6623L326.255 92.0853C326.367 92.2963 326.395 92.5413 326.333 92.7753C326.248 93.0453 326.08 93.2423 325.854 93.3473C323.25 94.7513 320.44 95.8853 317.523 96.7063C314.628 97.5043 311.637 97.9833 308.632 98.1323C308.613 98.1283 308.596 98.1293 308.577 98.1293ZM307.827 91.3663C308.055 91.3663 308.245 91.5453 308.256 91.7743L308.525 97.2123C311.532 97.1233 314.46 96.6543 317.291 95.8743C320.145 95.0713 322.896 93.9613 325.467 92.5763L325.875 92.2863L325.497 92.4903L322.913 87.6963C322.801 87.4893 322.877 87.2313 323.083 87.1173C326.453 85.2433 329.447 82.8203 331.984 79.9143C332.138 79.7373 332.407 79.7173 332.586 79.8693L336.744 83.3993L336.831 83.3933C340.679 78.8263 343.482 73.4563 344.935 67.8613L339.632 66.3873C339.405 66.3273 339.269 66.0953 339.326 65.8673C340.078 62.8703 340.405 59.7723 340.3 56.6603C340.292 56.4253 340.475 56.2283 340.709 56.2173L346.147 55.9563C346.066 52.9683 345.597 50.0383 344.809 47.1833C344.014 44.3433 342.904 41.5923 341.51 39.0063L336.638 41.5613C336.432 41.6713 336.174 41.5973 336.06 41.3923C334.181 38.0223 331.758 35.0303 328.856 32.4993C328.679 32.3443 328.659 32.0763 328.812 31.8973L332.342 27.7403C332.355 27.6943 332.346 27.6573 332.322 27.6333C327.746 23.7913 322.372 20.9883 316.795 19.5403L315.33 24.8513C315.27 25.0783 315.036 25.2163 314.811 25.1583C311.778 24.4003 308.674 24.0733 305.597 24.1843C305.335 24.2003 305.163 24.0103 305.152 23.7753L304.891 18.3373C301.899 18.4183 298.968 18.8853 296.116 19.6683C293.263 20.4703 290.511 21.5803 287.94 22.9663C287.914 22.9813 287.901 23.0213 287.917 23.0503L290.503 27.8463C290.615 28.0533 290.539 28.3113 290.333 28.4253C286.961 30.3003 283.966 32.7233 281.432 35.6283C281.278 35.8053 281.009 35.8253 280.83 35.6733L276.672 32.1433L276.586 32.1493C272.732 36.7223 269.928 42.0963 268.48 47.6893L273.782 49.1553C274.009 49.2153 274.146 49.4473 274.089 49.6743C273.337 52.6813 273.01 55.7793 273.116 58.8813C273.124 59.1163 272.941 59.3143 272.707 59.3253L267.269 59.5863C267.35 62.5963 267.819 65.5263 268.608 68.3593C269.403 71.2133 270.512 73.9643 271.906 76.5353L276.778 73.9823C276.984 73.8703 277.243 73.9463 277.357 74.1513C279.224 77.5083 281.648 80.5023 284.561 83.0533C284.738 83.2073 284.757 83.4763 284.605 83.6543L281.076 87.8033L281.082 87.8893C285.642 91.7393 291.016 94.5443 296.623 96.0033L298.088 90.7003C298.148 90.4743 298.378 90.3373 298.607 90.3933C301.642 91.1443 304.738 91.4703 307.816 91.3673C307.818 91.3663 307.822 91.3663 307.827 91.3663ZM306.691 81.2453C302.698 81.2453 298.747 80.2143 295.168 78.1913C289.704 75.1043 285.773 70.0833 284.099 64.0553C280.636 51.5833 287.96 38.6193 300.424 35.1573C306.454 33.4823 312.782 34.2603 318.245 37.3483C323.709 40.4363 327.64 45.4593 329.314 51.4913C332.778 63.9573 325.454 76.9183 312.989 80.3813C310.909 80.9593 308.794 81.2453 306.691 81.2453ZM306.72 35.1543C304.694 35.1543 302.657 35.4293 300.654 35.9863C288.646 39.3223 281.591 51.8113 284.926 63.8263C286.54 69.6333 290.327 74.4693 295.59 77.4443C300.852 80.4183 306.95 81.1683 312.758 79.5543C324.767 76.2183 331.822 63.7323 328.486 51.7223C326.872 45.9113 323.085 41.0733 317.822 38.0983C314.374 36.1483 310.567 35.1543 306.72 35.1543Z" fill="#19203F"/>
</svg>
