<svg width="437" height="428" viewBox="0 0 437 428" fill="none" xmlns="http://www.w3.org/2000/svg">
<path d="M215.958 76.6741L206.752 70.5791L206.758 70.3021C206.816 67.6141 206.582 64.8911 206.06 62.2081L206.008 61.9351L214.05 54.3621L207.086 40.9211L196.262 43.1231L196.069 42.9221C194.177 40.9501 192.088 39.1871 189.859 37.6831L189.629 37.5291L189.961 26.4951L175.534 21.9141L169.44 31.1201L169.163 31.1141C166.465 31.0501 163.753 31.2901 161.067 31.8111L160.795 31.8631L153.222 23.8211L139.781 30.7861L141.983 41.6101L141.782 41.8031C139.808 43.6941 138.047 45.7831 136.544 48.0131L136.388 48.2431L125.353 47.9101L120.773 62.3381L129.978 68.4321L129.972 68.7101C129.914 71.3981 130.148 74.1211 130.67 76.8031L130.722 77.0761L122.68 84.6501L129.644 98.0901L140.468 95.8891L140.66 96.0901C142.556 98.0651 144.645 99.8281 146.871 101.327L147.101 101.483L146.769 112.518L161.197 117.099L167.291 107.893L167.568 107.899C170.256 107.957 172.978 107.723 175.663 107.202L175.935 107.15L183.508 115.191L196.949 108.227L194.748 97.4031L194.949 97.2101C196.924 95.3161 198.687 93.2271 200.186 91.0001L200.341 90.7701L211.376 91.1031L215.958 76.6741ZM188.872 76.1801C187.171 81.5391 183.478 85.9181 178.471 88.5111C175.423 90.0901 172.116 90.8891 168.785 90.8891C166.644 90.8891 164.495 90.5591 162.399 89.8941C151.32 86.3771 145.168 74.5011 148.684 63.4211C152.201 52.3421 164.076 46.1861 175.158 49.7071C180.516 51.4081 184.896 55.1011 187.489 60.1081C190.082 65.1131 190.574 70.8211 188.872 76.1801Z" fill="#CAD5ED"/>
<path d="M246.276 79.4133L240.39 75.5173L240.394 75.3403C240.431 73.6213 240.281 71.8803 239.948 70.1653L239.915 69.9913L245.057 65.1493L240.605 56.5553L233.685 57.9633L233.562 57.8353C232.353 56.5743 231.016 55.4473 229.592 54.4853L229.445 54.3863L229.657 47.3313L220.433 44.4023L216.536 50.2883L216.359 50.2843C214.634 50.2433 212.9 50.3973 211.183 50.7303L211.009 50.7633L206.167 45.6213L197.574 50.0743L198.982 56.9943L198.854 57.1173C197.592 58.3263 196.466 59.6623 195.505 61.0873L195.406 61.2343L188.35 61.0213L185.422 70.2463L191.307 74.1423L191.303 74.3203C191.266 76.0383 191.416 77.7803 191.749 79.4943L191.782 79.6683L186.64 84.5103L191.092 93.1033L198.012 91.6963L198.135 91.8243C199.347 93.0873 200.683 94.2143 202.106 95.1723L202.253 95.2723L202.041 102.328L211.266 105.257L215.163 99.3713L215.34 99.3753C217.059 99.4123 218.799 99.2623 220.515 98.9303L220.689 98.8973L225.531 104.038L234.125 99.5863L232.718 92.6663L232.847 92.5433C234.11 91.3323 235.237 89.9963 236.195 88.5733L236.294 88.4263L243.35 88.6393L246.276 79.4133ZM228.959 79.0983C227.872 82.5243 225.51 85.3243 222.309 86.9823C220.36 87.9923 218.246 88.5033 216.116 88.5033C214.747 88.5033 213.373 88.2923 212.033 87.8673C204.949 85.6193 201.016 78.0253 203.264 70.9413C205.513 63.8573 213.105 59.9223 220.19 62.1733C223.616 63.2603 226.416 65.6223 228.074 68.8233C229.732 72.0223 230.046 75.6713 228.959 79.0983Z" fill="#CAD5ED"/>
<path d="M104.288 338.404L94.202 331.727L94.209 331.423C94.273 328.478 94.016 325.494 93.444 322.554L93.387 322.255L102.199 313.958L94.569 299.231L82.71 301.644L82.499 301.424C80.426 299.263 78.137 297.332 75.695 295.684L75.443 295.515L75.806 283.425L59.999 278.406L53.322 288.492L53.018 288.485C50.062 288.415 47.09 288.678 44.148 289.248L43.85 289.305L35.553 280.494L20.826 288.125L23.238 299.984L23.018 300.195C20.856 302.267 18.926 304.556 17.279 306.999L17.109 307.251L5.018 306.887L0 322.695L10.085 329.372L10.078 329.676C10.014 332.621 10.271 335.605 10.843 338.544L10.9 338.843L2.088 347.141L9.718 361.866L21.577 359.455L21.787 359.675C23.864 361.839 26.153 363.771 28.592 365.413L28.844 365.584L28.481 377.675L44.289 382.693L50.966 372.607L51.27 372.614C54.215 372.678 57.198 372.421 60.139 371.85L60.437 371.793L68.734 380.603L83.461 372.973L81.05 361.114L81.27 360.903C83.434 358.828 85.366 356.539 87.008 354.099L87.178 353.847L99.269 354.212L104.288 338.404ZM67.058 335.465C65.834 339.322 63.176 342.474 59.573 344.34C57.379 345.476 54.999 346.052 52.601 346.052C51.061 346.052 49.513 345.814 48.005 345.336C40.031 342.805 35.604 334.257 38.135 326.283C40.666 318.309 49.212 313.879 57.188 316.413C61.045 317.637 64.197 320.295 66.063 323.898C67.929 327.5 68.283 331.608 67.058 335.465Z" fill="#CAD5ED"/>
<path d="M114.183 247.153L107.253 242.565L107.258 242.356C107.302 240.332 107.125 238.282 106.733 236.262L106.694 236.057L112.748 230.356L107.506 220.238L99.3583 221.896L99.2133 221.745C97.7893 220.26 96.2163 218.933 94.5383 217.801L94.3653 217.685L94.6153 209.378L83.7543 205.93L79.1663 212.86L78.9573 212.855C76.9263 212.807 74.8843 212.988 72.8633 213.38L72.6593 213.419L66.9583 207.365L56.8403 212.608L58.4973 220.756L58.3463 220.901C56.8603 222.324 55.5343 223.897 54.4033 225.575L54.2863 225.748L45.9793 225.498L42.5312 236.359L49.4603 240.947L49.4563 241.156C49.4123 243.179 49.5893 245.23 49.9813 247.249L50.0203 247.454L43.9663 253.156L49.2083 263.274L57.3563 261.617L57.5003 261.768C58.9273 263.255 60.5003 264.582 62.1753 265.711L62.3483 265.828L62.0983 274.135L72.9593 277.583L77.5473 270.653L77.7563 270.658C79.7793 270.702 81.8293 270.525 83.8493 270.133L84.0533 270.094L89.7543 276.148L99.8723 270.906L98.2153 262.758L98.3663 262.613C99.8533 261.187 101.18 259.614 102.309 257.938L102.426 257.765L110.733 258.015L114.183 247.153ZM88.6043 245.134C87.7633 247.784 85.9373 249.95 83.4613 251.232C81.9543 252.013 80.3183 252.408 78.6713 252.408C77.6133 252.408 76.5503 252.245 75.5133 251.916C70.0343 250.177 66.9923 244.304 68.7313 238.825C70.4703 233.346 76.3423 230.303 81.8223 232.044C84.4723 232.885 86.6373 234.711 87.9203 237.187C89.2023 239.661 89.4453 242.484 88.6043 245.134Z" fill="#CAD5ED"/>
<path d="M436.578 266.499L426.492 259.822L426.498 259.518C426.562 256.573 426.305 253.589 425.733 250.649L425.676 250.35L434.488 242.053L426.858 227.326L414.999 229.738L414.788 229.518C412.715 227.357 410.426 225.426 407.984 223.778L407.732 223.609L408.095 211.519L392.288 206.5L385.611 216.586L385.307 216.58C382.351 216.51 379.379 216.773 376.437 217.343L376.139 217.4L367.842 208.588L353.115 216.219L355.527 228.078L355.307 228.289C353.145 230.361 351.214 232.65 349.568 235.093L349.398 235.345L337.307 234.981L332.289 250.789L342.374 257.466L342.368 257.77C342.304 260.715 342.561 263.699 343.132 266.638L343.189 266.937L334.378 275.235L342.008 289.96L353.867 287.55L354.077 287.77C356.154 289.934 358.443 291.866 360.882 293.508L361.134 293.679L360.771 305.77L376.579 310.789L383.256 300.703L383.56 300.71C386.505 300.774 389.488 300.517 392.429 299.946L392.727 299.889L401.024 308.699L415.751 301.069L413.34 289.21L413.56 288.999C415.724 286.924 417.656 284.635 419.298 282.195L419.468 281.943L431.559 282.308L436.578 266.499ZM399.348 263.56C398.124 267.417 395.466 270.569 391.863 272.435C389.67 273.571 387.289 274.147 384.892 274.147C383.352 274.147 381.804 273.909 380.296 273.431C372.322 270.9 367.895 262.352 370.426 254.378C372.958 246.404 381.503 241.974 389.479 244.508C393.336 245.732 396.488 248.39 398.354 251.993C400.219 255.595 400.573 259.703 399.348 263.56Z" fill="#CAD5ED"/>
<path d="M409.879 175.246L402.949 170.658L402.953 170.449C402.997 168.425 402.82 166.375 402.428 164.355L402.389 164.15L408.443 158.449L403.201 148.331L395.053 149.989L394.908 149.838C393.484 148.353 391.911 147.026 390.233 145.894L390.06 145.778L390.31 137.471L379.449 134.023L374.861 140.953L374.652 140.949C372.621 140.901 370.579 141.082 368.558 141.474L368.354 141.513L362.653 135.459L352.535 140.702L354.193 148.85L354.042 148.995C352.556 150.418 351.23 151.991 350.099 153.669L349.982 153.842L341.675 153.592L338.227 164.453L345.156 169.041L345.152 169.25C345.108 171.273 345.285 173.324 345.677 175.343L345.716 175.548L339.662 181.25L344.904 191.367L353.052 189.71L353.197 189.861C354.624 191.348 356.197 192.675 357.872 193.804L358.045 193.921L357.795 202.228L368.656 205.676L373.244 198.746L373.453 198.751C375.477 198.795 377.526 198.618 379.547 198.226L379.751 198.187L385.452 204.241L395.57 198.999L393.913 190.851L394.064 190.706C395.551 189.28 396.878 187.707 398.007 186.031L398.124 185.858L406.431 186.108L409.879 175.246ZM384.3 173.227C383.459 175.877 381.633 178.042 379.157 179.325C377.65 180.106 376.014 180.501 374.367 180.501C373.309 180.501 372.246 180.338 371.209 180.009C365.73 178.27 362.688 172.397 364.427 166.918C366.166 161.439 372.038 158.395 377.518 160.137C380.168 160.978 382.333 162.804 383.616 165.28C384.898 167.754 385.141 170.577 384.3 173.227Z" fill="#CAD5ED"/>
<path d="M166.549 155.332L159.619 150.744L159.623 150.535C159.667 148.511 159.49 146.461 159.098 144.441L159.059 144.236L165.113 138.535L159.871 128.417L151.723 130.075L151.578 129.924C150.154 128.439 148.581 127.112 146.904 125.98L146.731 125.864L146.981 117.557L136.12 114.109L131.532 121.039L131.323 121.034C129.292 120.986 127.25 121.167 125.229 121.559L125.025 121.598L119.324 115.544L109.206 120.787L110.864 128.935L110.713 129.08C109.227 130.503 107.901 132.076 106.77 133.754L106.653 133.927L98.3464 133.677L94.8984 144.538L101.827 149.126L101.822 149.335C101.778 151.358 101.955 153.409 102.347 155.428L102.386 155.633L96.3324 161.335L101.574 171.452L109.722 169.795L109.867 169.946C111.294 171.433 112.867 172.76 114.542 173.889L114.715 174.006L114.465 182.313L125.326 185.761L129.914 178.831L130.123 178.836C132.147 178.88 134.196 178.703 136.217 178.311L136.421 178.272L142.122 184.326L152.24 179.084L150.583 170.936L150.734 170.791C152.221 169.365 153.548 167.792 154.677 166.116L154.794 165.943L163.101 166.193L166.549 155.332ZM140.97 153.313C140.129 155.963 138.303 158.128 135.827 159.411C134.32 160.192 132.684 160.587 131.037 160.587C129.978 160.587 128.916 160.424 127.879 160.095C122.4 158.356 119.358 152.483 121.097 147.004C122.836 141.525 128.708 138.481 134.188 140.223C136.838 141.064 139.004 142.89 140.286 145.366C141.569 147.84 141.811 150.663 140.97 153.313Z" fill="#CAD5ED"/>
<path d="M337.597 184.024L333.071 181.028L333.074 180.891C333.103 179.569 332.987 178.231 332.731 176.912L332.705 176.778L336.659 173.055L333.236 166.447L327.915 167.53L327.82 167.431C326.89 166.461 325.863 165.595 324.767 164.855L324.654 164.779L324.817 159.354L317.724 157.102L314.728 161.628L314.591 161.625C313.265 161.594 311.931 161.712 310.611 161.968L310.477 161.994L306.754 158.04L300.146 161.464L301.228 166.785L301.129 166.88C300.159 167.809 299.293 168.837 298.554 169.933L298.478 170.046L293.053 169.882L290.801 176.975L295.326 179.971L295.323 180.108C295.294 181.43 295.41 182.768 295.666 184.087L295.692 184.221L291.738 187.945L295.162 194.552L300.483 193.47L300.577 193.569C301.509 194.54 302.536 195.407 303.63 196.144L303.743 196.22L303.58 201.645L310.673 203.897L313.669 199.371L313.806 199.374C315.128 199.403 316.466 199.287 317.785 199.031L317.919 199.005L321.642 202.958L328.25 199.534L327.168 194.213L327.267 194.118C328.238 193.187 329.105 192.16 329.842 191.065L329.919 190.952L335.344 191.115L337.597 184.024ZM320.892 182.705C320.343 184.436 319.15 185.85 317.533 186.687C316.549 187.197 315.481 187.455 314.405 187.455C313.714 187.455 313.02 187.348 312.343 187.134C308.765 185.998 306.778 182.163 307.914 178.585C309.05 175.007 312.885 173.019 316.464 174.156C318.195 174.705 319.609 175.898 320.446 177.515C321.283 179.131 321.441 180.975 320.892 182.705Z" fill="#CAD5ED"/>
<path d="M150.502 275.462L145.976 272.466L145.979 272.33C146.008 271.008 145.892 269.669 145.636 268.35L145.61 268.216L149.564 264.493L146.141 257.885L140.82 258.967L140.725 258.868C139.795 257.898 138.768 257.032 137.672 256.292L137.559 256.216L137.722 250.791L130.629 248.539L127.633 253.065L127.497 253.062C126.171 253.031 124.837 253.149 123.517 253.405L123.384 253.431L119.661 249.477L113.053 252.901L114.135 258.222L114.036 258.317C113.066 259.247 112.2 260.274 111.461 261.37L111.384 261.483L105.959 261.319L103.707 268.412L108.232 271.408L108.229 271.545C108.2 272.867 108.316 274.205 108.572 275.524L108.598 275.658L104.644 279.382L108.068 285.99L113.389 284.908L113.483 285.007C114.415 285.978 115.442 286.845 116.536 287.582L116.649 287.658L116.486 293.084L123.579 295.336L126.575 290.81L126.711 290.813C128.033 290.842 129.371 290.726 130.691 290.47L130.824 290.444L134.547 294.397L141.155 290.973L140.073 285.652L140.172 285.557C141.143 284.626 142.01 283.599 142.747 282.504L142.823 282.391L148.249 282.554L150.502 275.462ZM133.797 274.143C133.248 275.873 132.055 277.288 130.438 278.125C129.454 278.635 128.386 278.893 127.31 278.893C126.619 278.893 125.925 278.786 125.248 278.572C121.67 277.436 119.683 273.601 120.819 270.023C121.955 266.445 125.79 264.457 129.369 265.594C131.099 266.143 132.514 267.336 133.351 268.953C134.187 270.569 134.346 272.413 133.797 274.143Z" fill="#CAD5ED"/>
<path d="M103.185 55.125H67.8008V75.177H103.185V55.125Z" fill="white"/>
<path d="M68.582 56.0039L85.494 65.1489L102.406 56.0039" stroke="#15286A" stroke-width="0.7208" stroke-miterlimit="10" stroke-linecap="round" stroke-linejoin="round"/>
<path d="M82.942 64.2148L68.582 74.2978" stroke="#15286A" stroke-width="0.7208" stroke-miterlimit="10" stroke-linecap="round" stroke-linejoin="round"/>
<path d="M102.403 74.2978L87.125 64.2148" stroke="#15286A" stroke-width="0.7208" stroke-miterlimit="10" stroke-linecap="round" stroke-linejoin="round"/>
<path d="M145.433 154.902H63.4102V426.741H145.433V154.902Z" stroke="#15286A" stroke-width="0.7208" stroke-miterlimit="10" stroke-linecap="round" stroke-linejoin="round"/>
<path d="M145.433 154.902H63.4102V166.045H145.433V154.902Z" fill="#033C91" stroke="#15286A" stroke-width="0.7208" stroke-miterlimit="10" stroke-linecap="round" stroke-linejoin="round"/>
<path d="M145.433 414.328H63.4102V426.741H145.433V414.328Z" fill="#033C91" stroke="#15286A" stroke-width="0.7208" stroke-miterlimit="10" stroke-linecap="round" stroke-linejoin="round"/>
<path d="M63.4102 166.043L145.652 248.285L63.4102 249.699L145.652 331.941L63.4102 331.314L145.652 413.556" stroke="#15286A" stroke-width="0.7208" stroke-miterlimit="10" stroke-linecap="round" stroke-linejoin="round"/>
<path d="M371.535 154.902H289.512V426.741H371.535V154.902Z" stroke="#15286A" stroke-width="0.7208" stroke-miterlimit="10" stroke-linecap="round" stroke-linejoin="round"/>
<path d="M371.535 154.902H289.512V166.045H371.535V154.902Z" fill="#033C91" stroke="#15286A" stroke-width="0.7208" stroke-miterlimit="10" stroke-linecap="round" stroke-linejoin="round"/>
<path d="M371.535 414.328H289.512V426.741H371.535V414.328Z" fill="#033C91" stroke="#15286A" stroke-width="0.7208" stroke-miterlimit="10" stroke-linecap="round" stroke-linejoin="round"/>
<path d="M289.512 166.043L371.755 248.285L289.512 249.699L371.755 331.941L289.512 331.314L371.755 413.556" stroke="#15286A" stroke-width="0.7208" stroke-miterlimit="10" stroke-linecap="round" stroke-linejoin="round"/>
<path d="M358.448 421.691H367.288V426.743H351.146C349.029 426.743 348.553 423.727 350.581 423.122C354.59 421.928 358.448 421.691 358.448 421.691Z" fill="#FBAF2A"/>
<mask id="mask0_549_490" style="mask-type:luminance" maskUnits="userSpaceOnUse" x="349" y="421" width="19" height="6">
<path d="M358.448 421.691H367.288V426.743H351.146C349.029 426.743 348.553 423.727 350.581 423.122C354.59 421.928 358.448 421.691 358.448 421.691Z" fill="white"/>
</mask>
<g mask="url(#mask0_549_490)">
<path d="M354.533 420.539L355.5 425.181H370.543V428.297H347.441C347.441 428.297 343.466 420.539 354.533 420.539Z" fill="white" stroke="#15286A" stroke-width="0.7208" stroke-miterlimit="10" stroke-linecap="round" stroke-linejoin="round"/>
</g>
<path d="M358.448 421.691H367.288V426.743H351.146C349.029 426.743 348.553 423.727 350.581 423.122C354.59 421.928 358.448 421.691 358.448 421.691Z" stroke="#15286A" stroke-width="0.7208" stroke-miterlimit="10" stroke-linecap="round" stroke-linejoin="round"/>
<path d="M405.803 415.267L411.236 408.293L415.221 411.398L405.301 424.131C404 425.801 401.328 424.323 402.098 422.351C403.619 418.455 405.803 415.267 405.803 415.267Z" fill="#FBAF2A"/>
<mask id="mask1_549_490" style="mask-type:luminance" maskUnits="userSpaceOnUse" x="401" y="408" width="15" height="17">
<path d="M405.803 415.267L411.236 408.293L415.221 411.398L405.301 424.131C404 425.801 401.328 424.323 402.098 422.351C403.619 418.455 405.803 415.267 405.803 415.267Z" fill="white"/>
</mask>
<g mask="url(#mask1_549_490)">
<path d="M402.485 417.648L406.741 419.738L415.986 407.871L418.444 409.786L404.246 428.01C404.246 428.01 395.683 426.378 402.485 417.648Z" fill="white" stroke="#15286A" stroke-width="0.7208" stroke-miterlimit="10" stroke-linecap="round" stroke-linejoin="round"/>
</g>
<path d="M405.803 415.267L411.236 408.293L415.221 411.398L405.301 424.131C404 425.801 401.328 424.323 402.098 422.351C403.619 418.455 405.803 415.267 405.803 415.267Z" stroke="#15286A" stroke-width="0.7208" stroke-miterlimit="10" stroke-linecap="round" stroke-linejoin="round"/>
<path d="M364.585 247.359C364.585 247.359 348.045 278.514 364.585 283.982C378.142 280.253 375.909 248.518 375.909 248.518L364.585 247.359Z" fill="#15286A" stroke="#15286A" stroke-width="0.7208" stroke-miterlimit="10" stroke-linecap="round" stroke-linejoin="round"/>
<path d="M376.876 238.846C376.876 238.846 367.959 236.758 364.586 247.359C368.923 247.359 368.124 264.867 376.876 264.867C385.628 264.867 387.234 257.318 387.234 253.142C387.234 248.966 386.918 239.971 376.876 238.846Z" fill="white" stroke="#15286A" stroke-width="0.7208" stroke-miterlimit="10" stroke-linecap="round" stroke-linejoin="round"/>
<path d="M397.277 378.725L395.728 325.656H359.316V421.689H367.063L376.36 348.898C376.36 348.898 381.686 376.305 386.335 385.214C390.983 394.123 406.344 413.93 406.344 413.93L413.354 409.52C413.354 409.52 402.313 389.184 397.277 378.725Z" fill="#598AC9" stroke="#15286A" stroke-width="0.7208" stroke-miterlimit="10" stroke-linecap="round" stroke-linejoin="round"/>
<path d="M388.111 341.004C388.111 341.004 385.693 353.707 393.866 353.707" stroke="#15286A" stroke-width="0.7208" stroke-miterlimit="10" stroke-linecap="round" stroke-linejoin="round"/>
<path d="M364.587 339.934C364.587 339.934 365.01 351.563 359.316 352.328" stroke="#15286A" stroke-width="0.7208" stroke-miterlimit="10" stroke-linecap="round" stroke-linejoin="round"/>
<path d="M357.234 332.738L356.375 341.46C356.375 341.46 379.004 346.203 399.593 341.46L398.148 332.738H357.234Z" fill="white" stroke="#15286A" stroke-width="0.7208" stroke-miterlimit="10" stroke-linecap="round" stroke-linejoin="round"/>
<path d="M396.009 290.473C395.208 286.23 394.173 281.92 391.784 278.324C390.264 276.036 388.188 274.434 385.831 273.343C379.413 270.373 371.845 271.899 366.569 276.608C364.384 278.558 362.326 280.821 361.461 282.996C359.318 288.385 358.822 294.264 358.349 300.044C357.368 312.025 356.402 324.007 355.438 335.99C369.641 338.165 384.166 338.229 398.387 336.177C398.71 336.13 399.056 336.072 399.288 335.843C399.583 335.553 399.598 335.09 399.594 334.677C399.446 319.943 398.746 304.974 396.009 290.473Z" fill="#FBAF2A" stroke="#15286A" stroke-width="0.7208" stroke-miterlimit="10" stroke-linecap="round" stroke-linejoin="round"/>
<path d="M366.567 276.609C366.567 276.609 358.256 279.522 352.041 304.746C350.301 319.778 356.182 325.659 356.182 325.659C356.182 325.659 358.472 295.584 366.567 276.609Z" fill="white" stroke="#15286A" stroke-width="0.7208" stroke-miterlimit="10" stroke-linecap="round" stroke-linejoin="round"/>
<path d="M342.77 293.825L364.636 290.113L369.135 318.266L350.639 320.751L342.77 293.825Z" fill="white" stroke="#15286A" stroke-width="0.7208" stroke-miterlimit="10" stroke-linecap="round" stroke-linejoin="round"/>
<path d="M367.73 328.256L344.048 330.55L340.953 292.408L364.635 290.113L367.73 328.256Z" fill="#90BDDE" stroke="#15286A" stroke-width="0.7208" stroke-miterlimit="10" stroke-linecap="round" stroke-linejoin="round"/>
<path d="M369.632 277.375C369.632 277.375 366.929 285.527 374.101 285.527C381.273 285.527 385.159 275.754 385.159 275.754L369.632 277.375Z" fill="white" stroke="#15286A" stroke-width="0.7208" stroke-miterlimit="10" stroke-linecap="round" stroke-linejoin="round"/>
<path d="M359.144 319.922C359.818 318.577 366.938 318.496 366.938 318.496L366.641 314.831C367.762 314.601 373.728 319.991 373.728 319.991L373.46 324.797C357.874 326.037 357.849 322.507 359.144 319.922Z" fill="white" stroke="#15286A" stroke-width="0.7208" stroke-miterlimit="10" stroke-linecap="round" stroke-linejoin="round"/>
<path d="M366.032 251.212C366.996 240.932 373.581 240.772 373.581 240.772C382.737 239.969 384.985 245.912 384.343 254.912C384.032 259.269 383.149 262.671 381.526 264.904L383.939 274.071L373.022 279.327L369.956 266.557C366.037 264.324 365.264 259.405 366.032 251.212Z" fill="white"/>
<mask id="mask2_549_490" style="mask-type:luminance" maskUnits="userSpaceOnUse" x="365" y="240" width="20" height="40">
<path d="M366.032 251.212C366.996 240.932 373.581 240.772 373.581 240.772C382.737 239.969 384.985 245.912 384.343 254.912C384.032 259.269 383.149 262.671 381.526 264.904L383.939 274.071L373.022 279.327L369.956 266.557C366.037 264.324 365.264 259.405 366.032 251.212Z" fill="white"/>
</mask>
<g mask="url(#mask2_549_490)">
<path d="M369.931 269.574C366.057 269.574 362.887 266.404 362.887 262.53V248.548C362.887 244.674 366.057 241.504 369.931 241.504H374.713C378.587 241.504 381.757 244.674 381.757 248.548V257.748C381.756 264.252 376.435 269.574 369.931 269.574Z" fill="#15286A" stroke="#15286A" stroke-width="0.7208" stroke-miterlimit="10" stroke-linecap="round" stroke-linejoin="round"/>
</g>
<mask id="mask3_549_490" style="mask-type:luminance" maskUnits="userSpaceOnUse" x="365" y="240" width="20" height="40">
<path d="M366.032 251.212C366.996 240.932 373.581 240.772 373.581 240.772C382.737 239.969 384.985 245.912 384.343 254.912C384.032 259.269 383.149 262.671 381.526 264.904L383.939 274.071L373.022 279.327L369.956 266.557C366.037 264.324 365.264 259.405 366.032 251.212Z" fill="white"/>
</mask>
<g mask="url(#mask3_549_490)">
<path d="M372.716 266.855C368.842 266.855 365.672 263.685 365.672 259.811V245.829C365.672 241.955 368.842 238.785 372.716 238.785H377.498C381.372 238.785 384.542 241.955 384.542 245.829V255.029C384.541 261.534 379.22 266.855 372.716 266.855Z" fill="white" stroke="#15286A" stroke-width="0.7208" stroke-miterlimit="10" stroke-linecap="round" stroke-linejoin="round"/>
</g>
<path d="M366.032 251.212C366.996 240.932 373.581 240.772 373.581 240.772C382.737 239.969 384.985 245.912 384.343 254.912C384.032 259.269 383.149 262.671 381.526 264.904L383.939 274.071L373.022 279.327L369.956 266.557C366.037 264.324 365.264 259.405 366.032 251.212Z" stroke="#15286A" stroke-width="0.7208" stroke-miterlimit="10" stroke-linecap="round" stroke-linejoin="round"/>
<path d="M385.201 271.82L374.629 276.109L378.185 281.323L386.918 276.847L385.201 271.82Z" fill="white" stroke="#15286A" stroke-width="0.7208" stroke-miterlimit="10" stroke-linecap="round" stroke-linejoin="round"/>
<path d="M371.245 271.461L368.199 274.507L373.021 279.33L371.245 271.461Z" fill="white" stroke="#15286A" stroke-width="0.7208" stroke-miterlimit="10" stroke-linecap="round" stroke-linejoin="round"/>
<path d="M368.199 274.504V279.327L371.067 277.373L368.199 274.504Z" fill="white" stroke="#15286A" stroke-width="0.7208" stroke-miterlimit="10" stroke-linecap="round" stroke-linejoin="round"/>
<path d="M374.628 276.109L373.02 279.328L376.542 278.916L374.628 276.109Z" fill="white" stroke="#15286A" stroke-width="0.7208" stroke-miterlimit="10" stroke-linecap="round" stroke-linejoin="round"/>
<path d="M364.586 247.358L379.137 248.848C379.137 248.848 377.584 283.852 391.784 278.324C388.832 260.864 396.027 237.097 377.516 236.838C364.586 236.657 364.586 247.358 364.586 247.358Z" fill="#15286A" stroke="#15286A" stroke-width="0.7208" stroke-miterlimit="10" stroke-linecap="round" stroke-linejoin="round"/>
<path d="M391.783 278.324C391.783 278.324 402.843 280.547 404.526 313.091C404.789 318.179 401.137 322.667 396.099 323.423C383.328 325.337 371.68 324.997 371.68 324.997V316.987L391.784 314.06C391.784 314.06 388.024 287.83 391.783 278.324Z" fill="white" stroke="#15286A" stroke-width="0.7208" stroke-miterlimit="10" stroke-linecap="round" stroke-linejoin="round"/>
<path d="M339.932 320.855C339.867 318.747 341.15 316.829 343.027 315.867C346.023 314.33 349.429 313.81 349.892 315.888C350.544 318.815 347.32 321.3 343.599 325.021C340.799 324.195 339.983 322.485 339.932 320.855Z" fill="white" stroke="#15286A" stroke-width="0.7208" stroke-miterlimit="10" stroke-linecap="round" stroke-linejoin="round"/>
<path d="M371.68 316.986L375.106 316.488V325.014L371.68 324.997V316.986Z" fill="white" stroke="#15286A" stroke-width="0.7208" stroke-miterlimit="10" stroke-linecap="round" stroke-linejoin="round"/>
<path d="M373.02 279.328V285.526" stroke="#15286A" stroke-width="0.7208" stroke-miterlimit="10" stroke-linecap="round" stroke-linejoin="round"/>
<path d="M393.863 314.824L398.148 316.489" stroke="#15286A" stroke-width="0.7208" stroke-miterlimit="10" stroke-linecap="round" stroke-linejoin="round"/>
<path d="M355.275 289.174L348.918 289.816L349.28 293.397L355.637 292.755L355.275 289.174Z" fill="#15286A" stroke="#15286A" stroke-width="0.7208" stroke-miterlimit="10" stroke-linecap="round" stroke-linejoin="round"/>
<path d="M393.754 342.559L394.289 378.866L411.368 410.771" stroke="#15286A" stroke-width="0.7208" stroke-miterlimit="10" stroke-linecap="round" stroke-linejoin="round"/>
<path d="M374.086 348.359L373.727 343.57" stroke="#15286A" stroke-width="0.7208" stroke-miterlimit="10" stroke-linecap="round" stroke-linejoin="round"/>
<path d="M376.36 343.535V348.9L374.087 348.36L364.594 421.691" stroke="#15286A" stroke-width="0.7208" stroke-miterlimit="10" stroke-linecap="round" stroke-linejoin="round"/>
<path d="M386.028 296.777H376.543V302.579H386.028V296.777Z" fill="white" stroke="#15286A" stroke-width="0.7208" stroke-miterlimit="10" stroke-linecap="round" stroke-linejoin="round"/>
<path d="M381.285 295.594V297.958V295.594Z" stroke="#15286A" stroke-width="0.7208" stroke-miterlimit="10" stroke-linecap="round" stroke-linejoin="round"/>
<path d="M322.261 66.3164C322.261 66.3164 305.721 97.4714 322.261 102.939C335.818 99.2104 333.585 67.4754 333.585 67.4754L322.261 66.3164Z" fill="#FBAF2A" stroke="#15286A" stroke-width="0.7208" stroke-miterlimit="10" stroke-linecap="round" stroke-linejoin="round"/>
<path d="M290.066 207.809L294.131 204.461L298.418 209.158C298.418 209.158 296.891 210.289 286.786 219.434C284.972 221.075 282.205 218.927 283.399 216.792C286.181 211.818 290.066 207.809 290.066 207.809Z" fill="#15286A" stroke="#15286A" stroke-width="0.7208" stroke-miterlimit="10" stroke-linecap="round" stroke-linejoin="round"/>
<path d="M314.999 195.774L318.728 192.055L323.442 196.324C323.442 196.324 322.03 197.595 312.839 207.658C311.189 209.464 308.231 207.589 309.216 205.35C311.512 200.133 314.999 195.774 314.999 195.774Z" fill="#15286A" stroke="#15286A" stroke-width="0.7208" stroke-miterlimit="10" stroke-linecap="round" stroke-linejoin="round"/>
<path d="M333.042 91.3158C333.042 91.3158 323.525 93.5818 320.126 112.39C316.727 131.197 316.727 140.68 316.727 140.68C316.727 140.68 345.731 167.447 354.003 143.678C354.003 120.547 357.061 87.9168 333.042 91.3158Z" fill="#033C91" stroke="#15286A" stroke-width="0.7208" stroke-miterlimit="10" stroke-linecap="round" stroke-linejoin="round"/>
<path d="M342.981 137.277C347.527 136.652 351.66 140.044 351.874 144.628C352.02 147.771 351.418 151.202 348.914 153.706C342.934 159.686 318.595 161.494 318.595 161.494C318.595 161.494 309.694 186.25 298.011 207.39C294.117 207.39 291.613 204.887 291.613 204.887C291.613 204.887 298.845 165.388 304.408 152.593C308.498 143.188 331.227 138.893 342.981 137.277Z" fill="#90BDDE" stroke="#15286A" stroke-width="0.7208" stroke-miterlimit="10" stroke-linecap="round" stroke-linejoin="round"/>
<path d="M323.337 133.464C309.563 132.006 308.335 147.345 309.602 158.395C311.184 172.186 311.328 175.664 314.19 189.25C314.212 189.352 315.312 194.853 315.312 194.853L320.549 194.261C320.549 194.261 325.121 166.309 325.121 147.116L332.053 139.137L342.982 137.278C342.982 137.278 323.365 133.467 323.337 133.464Z" fill="#90BDDE" stroke="#15286A" stroke-width="0.7208" stroke-miterlimit="10" stroke-linecap="round" stroke-linejoin="round"/>
<path d="M330.632 92.4805C330.632 92.4805 312.504 92.9005 310.465 124.85C318.849 129.382 316.726 126.074 316.726 126.074C316.726 126.074 319.756 101.761 330.632 92.4805Z" fill="#033C91" stroke="#15286A" stroke-width="0.7208" stroke-miterlimit="10" stroke-linecap="round" stroke-linejoin="round"/>
<path d="M339.509 91.3514C339.509 91.3514 354.653 89.7304 357.372 109.897C358.338 117.062 358.961 122.098 359.362 125.614C359.84 129.794 358.335 133.214 354.129 133.347L331.113 135.789L330.633 130.064L348.821 124.13C348.821 124.13 347.629 104.232 339.509 91.3514Z" fill="#033C91" stroke="#15286A" stroke-width="0.7208" stroke-miterlimit="10" stroke-linecap="round" stroke-linejoin="round"/>
<path d="M345.038 135.789H300.047V138.762H345.038V135.789Z" fill="#598AC9" stroke="#15286A" stroke-width="0.7208" stroke-miterlimit="10" stroke-linecap="round" stroke-linejoin="round"/>
<path d="M332.75 138.761H292.317L285.777 113.391H326.209L332.75 138.761Z" fill="#598AC9" stroke="#15286A" stroke-width="0.7208" stroke-miterlimit="10" stroke-linecap="round" stroke-linejoin="round"/>
<path d="M323.708 70.1736C324.672 59.8936 331.257 59.7326 331.257 59.7326C340.413 58.9296 342.661 64.8726 342.019 73.8726C341.708 78.2296 340.824 81.6316 339.201 83.8646L341.615 93.0316L330.387 95.9866L327.632 85.5176C323.713 83.2846 322.94 78.3666 323.708 70.1736Z" fill="white"/>
<mask id="mask4_549_490" style="mask-type:luminance" maskUnits="userSpaceOnUse" x="323" y="59" width="20" height="37">
<path d="M323.708 70.1736C324.672 59.8936 331.257 59.7326 331.257 59.7326C340.413 58.9296 342.661 64.8726 342.019 73.8726C341.708 78.2296 340.824 81.6316 339.201 83.8646L341.615 93.0316L330.387 95.9866L327.632 85.5176C323.713 83.2846 322.94 78.3666 323.708 70.1736Z" fill="white"/>
</mask>
<g mask="url(#mask4_549_490)">
<path d="M329.125 91.6614C323.936 91.6614 321.84 85.2654 321.84 80.0764V70.8764C321.84 65.6874 326.086 61.4414 331.275 61.4414C336.464 61.4414 340.71 65.6874 340.71 70.8764V80.0764C340.71 85.2664 334.314 91.6614 329.125 91.6614Z" fill="#15286A" stroke="#15286A" stroke-width="0.7208" stroke-miterlimit="10" stroke-linecap="round" stroke-linejoin="round"/>
</g>
<path d="M323.708 70.1736C324.672 59.8936 331.257 59.7326 331.257 59.7326C340.413 58.9296 342.661 64.8726 342.019 73.8726C341.708 78.2296 340.824 81.6316 339.201 83.8646L341.615 93.0316L330.387 95.9866L327.632 85.5176C323.713 83.2846 322.94 78.3666 323.708 70.1736Z" stroke="#15286A" stroke-width="0.7208" stroke-miterlimit="10" stroke-linecap="round" stroke-linejoin="round"/>
<path d="M329.466 92.4816L326.099 93.6716C326.099 93.6716 323.641 101.996 330.522 108.877C340.305 102.297 342.981 94.0346 342.981 94.0346L339.506 91.3516L331.276 95.7176L329.466 92.4816Z" fill="#90BDDE" stroke="#15286A" stroke-width="0.7208" stroke-miterlimit="10" stroke-linecap="round" stroke-linejoin="round"/>
<path d="M330.633 89.8802C325.444 89.8802 323.348 83.4842 323.348 78.2952V69.0952C323.348 63.9062 327.594 59.6602 332.783 59.6602C337.972 59.6602 342.218 63.9062 342.218 69.0952V78.2952C342.218 83.4842 335.823 89.8802 330.633 89.8802Z" fill="white" stroke="#15286A" stroke-width="0.7208" stroke-miterlimit="10" stroke-linecap="round" stroke-linejoin="round"/>
<path d="M320.175 70.4023C320.173 70.5113 320.172 70.6213 320.172 70.7313C329.721 70.7313 335.426 66.9503 335.426 66.9503C335.426 66.9503 332.663 90.5123 345.038 95.9853C353.74 98.9853 356.827 106.864 356.827 106.864C356.827 106.864 363.851 94.7813 355.744 86.6743C348.605 79.5353 351.053 65.3193 336.65 59.5013C328.916 56.3783 320.321 62.0623 320.175 70.4023Z" fill="#FBAF2A" stroke="#15286A" stroke-width="0.7208" stroke-miterlimit="10" stroke-linecap="round" stroke-linejoin="round"/>
<path d="M322.543 147.591L325.015 144.672" stroke="#15286A" stroke-width="0.7208" stroke-miterlimit="10" stroke-linecap="round" stroke-linejoin="round"/>
<path d="M331.278 95.7188C331.278 95.7188 330.523 100.339 330.523 108.878" stroke="#15286A" stroke-width="0.7208" stroke-miterlimit="10" stroke-linecap="round" stroke-linejoin="round"/>
<path d="M346.863 114.172H337.379V119.974H346.863V114.172Z" fill="white" stroke="#15286A" stroke-width="0.7208" stroke-miterlimit="10" stroke-linecap="round" stroke-linejoin="round"/>
<path d="M342.121 112.988V115.352V112.988Z" stroke="#15286A" stroke-width="0.7208" stroke-miterlimit="10" stroke-linecap="round" stroke-linejoin="round"/>
<path d="M313.869 195.219L322.783 194.467L322.387 188.887L313.473 189.639L313.869 195.219Z" fill="#90BDDE" stroke="#15286A" stroke-width="0.7208" stroke-miterlimit="10" stroke-linecap="round" stroke-linejoin="round"/>
<path d="M301.477 203.235L291.746 198.992L289.51 204.12L299.241 208.363L301.477 203.235Z" fill="#90BDDE" stroke="#15286A" stroke-width="0.7208" stroke-miterlimit="10" stroke-linecap="round" stroke-linejoin="round"/>
<path d="M304.008 117.938C304.008 118.697 304.624 119.312 305.383 119.312C306.143 119.312 306.758 118.697 306.758 117.938C306.758 117.178 306.142 116.562 305.383 116.562C304.624 116.562 304.008 117.178 304.008 117.938Z" fill="#90BDDE" stroke="#15286A" stroke-width="0.7208" stroke-miterlimit="10" stroke-linecap="round" stroke-linejoin="round"/>
<path d="M331.91 58.6483C331.91 58.6483 343.306 59.7253 344.321 77.8223C348.358 62.0253 339.912 57.8463 331.91 58.6483Z" fill="#033C91" stroke="#15286A" stroke-width="0.7208" stroke-miterlimit="10" stroke-linecap="round" stroke-linejoin="round"/>
<path d="M152.581 189.25C152.581 189.25 119.261 201.801 123.957 261.816C128.654 321.831 128.654 321.831 128.654 321.831H140.657C140.657 321.831 143.005 287.127 167.794 262.338C167.794 216.935 152.581 189.25 152.581 189.25Z" fill="#033C91" stroke="#15286A" stroke-width="0.7208" stroke-miterlimit="10" stroke-linecap="round" stroke-linejoin="round"/>
<path d="M282.765 189.25C282.765 189.25 316.085 201.801 311.389 261.816C306.692 321.831 306.692 321.831 306.692 321.831H294.688C294.688 321.831 292.34 287.127 267.551 262.338C267.551 216.935 282.765 189.25 282.765 189.25Z" fill="#033C91" stroke="#15286A" stroke-width="0.7208" stroke-miterlimit="10" stroke-linecap="round" stroke-linejoin="round"/>
<path d="M257.13 277.023H220.489H214.859H178.218L169.789 361.954H265.56L257.13 277.023Z" fill="#FBAF2A"/>
<mask id="mask5_549_490" style="mask-type:luminance" maskUnits="userSpaceOnUse" x="169" y="277" width="97" height="85">
<path d="M257.13 277.023H220.489H214.859H178.218L169.789 361.954H265.56L257.13 277.023Z" fill="white"/>
</mask>
<g mask="url(#mask5_549_490)">
<path d="M243.083 261.844H192.102V363.452H243.083V261.844Z" fill="#EA8C2F"/>
</g>
<path d="M257.13 277.023H220.489H214.859H178.218L169.789 361.954H265.56L257.13 277.023Z" stroke="#15286A" stroke-width="0.7208" stroke-miterlimit="10" stroke-linecap="round" stroke-linejoin="round"/>
<path d="M160.805 255.539C161.299 258.539 161.782 261.344 162.242 263.902H273.102C273.561 261.344 274.044 258.539 274.539 255.539H160.805Z" fill="#285CB1" stroke="#15286A" stroke-width="0.7208" stroke-miterlimit="10" stroke-linecap="round" stroke-linejoin="round"/>
<path d="M166.007 282.689H217.672H269.337C269.337 282.689 270.97 275.774 273.102 263.902H162.242C164.374 275.774 166.007 282.689 166.007 282.689Z" fill="#598AC9" stroke="#15286A" stroke-width="0.7208" stroke-miterlimit="10" stroke-linecap="round" stroke-linejoin="round"/>
<path d="M282.904 156.919C282.904 128.793 277.244 101.028 268.372 76.5508H166.971C158.099 101.027 152.438 128.792 152.438 156.919C152.438 196.465 156.977 232.317 160.805 255.539H274.538C278.365 232.317 282.904 196.466 282.904 156.919Z" fill="#90BDDE" stroke="#15286A" stroke-width="0.7208" stroke-miterlimit="10" stroke-linecap="round" stroke-linejoin="round"/>
<path d="M278.736 348.36C284.124 335.136 277.772 320.048 264.548 314.66C251.324 309.272 236.236 315.624 230.848 328.848" fill="#F1F5F9"/>
<path d="M278.736 348.36C284.124 335.136 277.772 320.048 264.548 314.66C251.324 309.272 236.236 315.624 230.848 328.848" stroke="#15286A" stroke-width="0.7208" stroke-miterlimit="10" stroke-linecap="round" stroke-linejoin="round"/>
<path d="M163.715 381.789C158.327 395.013 164.679 410.101 177.903 415.489C191.127 420.877 206.215 414.525 211.603 401.301" fill="#F1F5F9"/>
<path d="M163.715 381.789C158.327 395.013 164.679 410.101 177.903 415.489C191.127 420.877 206.215 414.525 211.603 401.301" stroke="#15286A" stroke-width="0.7208" stroke-miterlimit="10" stroke-linecap="round" stroke-linejoin="round"/>
<path d="M172.603 62.4609C170.617 67.0189 168.727 71.7129 166.973 76.5509H268.374C266.62 71.7129 264.73 67.0189 262.744 62.4609H172.603Z" fill="#285CB1" stroke="#15286A" stroke-width="0.7208" stroke-miterlimit="10" stroke-linecap="round" stroke-linejoin="round"/>
<path d="M217.673 0.359375C201.525 11.4774 184.991 34.0314 172.602 62.4614H262.743C250.356 34.0314 233.821 11.4774 217.673 0.359375Z" fill="#598AC9" stroke="#15286A" stroke-width="0.7208" stroke-miterlimit="10" stroke-linecap="round" stroke-linejoin="round"/>
<path d="M262.777 325.665C258.77 325.665 254.9 326.24 251.232 327.291C242.142 319.699 230.444 315.125 217.674 315.125C204.904 315.125 193.206 319.699 184.116 327.291C180.447 326.24 176.577 325.665 172.571 325.665C149.459 325.665 130.723 344.401 130.723 367.513C130.723 390.625 149.459 409.361 172.571 409.361C176.578 409.361 180.448 408.786 184.116 407.735C193.206 415.327 204.904 419.901 217.673 419.901C230.442 419.901 242.141 415.327 251.231 407.735C254.9 408.786 258.77 409.361 262.776 409.361C285.888 409.361 304.624 390.625 304.624 367.513C304.624 344.401 285.889 325.665 262.777 325.665Z" fill="#F1F5F9"/>
<path d="M217.592 320.408C201.084 303.9 174.319 303.9 157.811 320.408C141.303 336.916 141.303 363.681 157.811 380.189" fill="#F1F5F9"/>
<path d="M217.592 320.408C201.084 303.9 174.319 303.9 157.811 320.408C141.303 336.916 141.303 363.681 157.811 380.189" stroke="#15286A" stroke-width="0.7208" stroke-miterlimit="10" stroke-linecap="round" stroke-linejoin="round"/>
<path d="M233.684 409.003C243.781 419.1 260.152 419.1 270.249 409.003C280.346 398.906 280.346 382.535 270.249 372.438" fill="#F1F5F9"/>
<path d="M233.684 409.003C243.781 419.1 260.152 419.1 270.249 409.003C280.346 398.906 280.346 382.535 270.249 372.438" stroke="#15286A" stroke-width="0.7208" stroke-miterlimit="10" stroke-linecap="round" stroke-linejoin="round"/>
<path d="M247.046 334.757C247.046 320.478 235.47 308.902 221.191 308.902C206.912 308.902 195.336 320.478 195.336 334.757" fill="#F1F5F9"/>
<path d="M247.046 334.757C247.046 320.478 235.47 308.902 221.191 308.902C206.912 308.902 195.336 320.478 195.336 334.757" stroke="#15286A" stroke-width="0.7208" stroke-miterlimit="10" stroke-linecap="round" stroke-linejoin="round"/>
<path d="M186.7 363.453C176.573 363.453 168.363 371.663 168.363 381.789C168.363 391.916 176.573 400.126 186.7 400.126" fill="#F1F5F9"/>
<path d="M186.7 363.453C176.573 363.453 168.363 371.663 168.363 381.789C168.363 391.916 176.573 400.126 186.7 400.126" stroke="#15286A" stroke-width="0.7208" stroke-miterlimit="10" stroke-linecap="round" stroke-linejoin="round"/>
<path d="M217.672 76.5508V255.539" stroke="#15286A" stroke-width="0.7208" stroke-miterlimit="10" stroke-linecap="round" stroke-linejoin="round"/>
<path d="M259.897 151.158C261.032 127.84 243.049 108.018 219.731 106.883C196.414 105.749 176.591 123.732 175.457 147.049C174.322 170.367 192.305 190.189 215.623 191.324C238.94 192.458 258.763 174.476 259.897 151.158Z" fill="#285CB1" stroke="#15286A" stroke-width="0.7208" stroke-miterlimit="10" stroke-linecap="round" stroke-linejoin="round"/>
<path d="M218.116 179.612C234.975 179.369 248.445 165.506 248.202 148.647C247.96 131.788 234.096 118.318 217.237 118.56C200.378 118.803 186.908 132.667 187.151 149.526C187.393 166.385 201.257 179.855 218.116 179.612Z" fill="#033C91"/>
<path d="M218.033 174.666C232.154 174.466 243.439 162.855 243.238 148.734C243.038 134.612 231.428 123.327 217.307 123.528C203.186 123.728 191.901 135.338 192.101 149.46C192.302 163.582 203.912 174.867 218.033 174.666Z" fill="#F1F5F9" stroke="#15286A" stroke-width="0.7208" stroke-miterlimit="10" stroke-linecap="round" stroke-linejoin="round"/>
<path d="M88.0182 230.576C95.1908 230.576 101.005 224.761 101.005 217.589C101.005 210.416 95.1908 204.602 88.0182 204.602C80.8457 204.602 75.0312 210.416 75.0312 217.589C75.0312 224.761 80.8457 230.576 88.0182 230.576Z" fill="#F1F5F9" stroke="#15286A" stroke-width="0.7208" stroke-miterlimit="10" stroke-linecap="round" stroke-linejoin="round"/>
<path d="M97.1836 227.841C97.5656 227.509 97.9336 227.155 98.2866 226.778C98.6396 226.4 98.9676 226.008 99.2726 225.605L106.247 232.119L104.158 234.355L97.1836 227.841Z" fill="#285CB1" stroke="#15286A" stroke-width="0.7208" stroke-miterlimit="10" stroke-linecap="round" stroke-linejoin="round"/>
<path d="M106.802 230.57L102.695 234.965L115.129 246.582L119.235 242.187L106.802 230.57Z" fill="#033C91" stroke="#15286A" stroke-width="0.7208" stroke-miterlimit="10" stroke-linecap="round" stroke-linejoin="round"/>
<path d="M97.8907 207.526C92.3117 202.315 83.5337 202.613 78.3217 208.192C73.1117 213.771 73.4107 222.549 78.9887 227.76C81.7787 230.365 85.3667 231.593 88.9107 231.472C92.4537 231.351 95.9517 229.882 98.5567 227.093C103.769 221.515 103.47 212.737 97.8907 207.526ZM96.1387 209.401C98.3407 211.458 99.6097 214.248 99.7117 217.259C99.8147 220.27 98.7377 223.141 96.6807 225.342C94.6247 227.544 91.8347 228.813 88.8227 228.915C85.8127 229.018 82.9417 227.941 80.7407 225.885C78.5387 223.829 77.2697 221.039 77.1677 218.027C77.0647 215.017 78.1417 212.146 80.1987 209.944C82.2547 207.743 85.0457 206.474 88.0557 206.371C91.0667 206.269 93.9377 207.345 96.1387 209.401Z" fill="#033C91" stroke="#15286A" stroke-width="0.7208" stroke-miterlimit="10" stroke-linecap="round" stroke-linejoin="round"/>
<path d="M37.2734 323.184L33.1454 379.593L21.3594 421.689H29.1474L43.3754 392.633C47.2014 384.821 49.8994 376.506 51.3904 367.936L55.4524 344.59L67.2444 421.689H76.0844L73.6874 323.184H37.2734Z" fill="#033C91" stroke="#15286A" stroke-width="0.7208" stroke-miterlimit="10" stroke-linecap="round" stroke-linejoin="round"/>
<path d="M76.0861 421.688H67.2461V426.74H83.3881C85.5051 426.74 85.9811 423.723 83.9521 423.118C79.9431 421.924 76.0861 421.688 76.0861 421.688Z" fill="#90BDDE" stroke="#15286A" stroke-width="0.7208" stroke-miterlimit="10" stroke-linecap="round" stroke-linejoin="round"/>
<path d="M68.4013 249.192C67.4373 238.912 60.8523 238.752 60.8523 238.752C51.6963 237.949 49.4483 243.892 50.0903 252.892C50.4013 257.249 51.2843 260.651 52.9073 262.884L50.4943 272.051L61.7213 275.006L64.4773 264.537C68.3953 262.303 69.1693 257.385 68.4013 249.192Z" fill="white" stroke="#15286A" stroke-width="0.7208" stroke-miterlimit="10" stroke-linecap="round" stroke-linejoin="round"/>
<path d="M111.339 233.746C109.845 233.571 107.138 239.093 107.138 239.093L105.701 237.74C104.734 238.114 103.664 248.037 103.664 248.037L107.828 250.451C117.421 238.106 114.21 234.083 111.339 233.746Z" fill="white" stroke="#15286A" stroke-width="0.7208" stroke-miterlimit="10" stroke-linecap="round" stroke-linejoin="round"/>
<path d="M33.2029 333.352L31.4609 342.227C31.4609 342.227 51.4829 348.654 76.0829 341.462L74.5169 333.352H33.2029Z" fill="#F1F5F9" stroke="#15286A" stroke-width="0.7208" stroke-miterlimit="10" stroke-linecap="round" stroke-linejoin="round"/>
<path d="M30.1994 421.688H21.3594V426.74H37.5004C39.6174 426.74 40.0934 423.723 38.0654 423.118C34.0574 421.924 30.1994 421.688 30.1994 421.688Z" fill="#90BDDE" stroke="#15286A" stroke-width="0.7208" stroke-miterlimit="10" stroke-linecap="round" stroke-linejoin="round"/>
<path d="M71.3269 268.964H90.8169L102.367 246.5L109.41 248.605L104.008 269.905C101.823 276.083 96.6269 280.712 90.2389 282.172L73.6859 285.956L76.0829 336.236C61.1489 339.834 46.2669 340.311 31.4609 336.236L36.5299 284.115C37.2539 276.665 43.1359 270.762 50.5829 270.009C57.4759 269.313 64.3989 268.964 71.3269 268.964Z" fill="#FBAF2A" stroke="#15286A" stroke-width="0.7208" stroke-miterlimit="10" stroke-linecap="round" stroke-linejoin="round"/>
<path d="M57.5572 236.823C57.5572 236.823 66.4742 234.735 69.8472 245.336C65.5102 245.336 66.3092 262.844 57.5572 262.844C48.8052 262.844 47.1992 255.295 47.1992 251.118C47.1992 246.942 47.5162 237.947 57.5572 236.823Z" fill="#15286A" stroke="#15286A" stroke-width="0.7208" stroke-miterlimit="10" stroke-linecap="round" stroke-linejoin="round"/>
<path d="M46.1484 271.137L47.1974 264.801C47.1974 264.801 61.7734 262.827 67.9394 268.994C54.3164 269.667 46.1484 271.137 46.1484 271.137Z" fill="white" stroke="#15286A" stroke-width="0.7208" stroke-miterlimit="10" stroke-linecap="round" stroke-linejoin="round"/>
<path d="M111.169 248.087L102.125 244.32L100.183 248.982L109.227 252.749L111.169 248.087Z" fill="white" stroke="#15286A" stroke-width="0.7208" stroke-miterlimit="10" stroke-linecap="round" stroke-linejoin="round"/>
<path d="M73.6862 285.955C73.6862 285.955 64.2682 281.601 67.9392 268.992" stroke="#15286A" stroke-width="0.7208" stroke-miterlimit="10" stroke-linecap="round" stroke-linejoin="round"/>
<path d="M34.8867 380.188L40.8537 381.788" stroke="#15286A" stroke-width="0.7208" stroke-miterlimit="10" stroke-linecap="round" stroke-linejoin="round"/>
<path d="M63.3477 383.386L70.4357 381.789" stroke="#15286A" stroke-width="0.7208" stroke-miterlimit="10" stroke-linecap="round" stroke-linejoin="round"/>
<path d="M70.9727 283.98V337.337" stroke="#15286A" stroke-width="0.7208" stroke-miterlimit="10" stroke-linecap="round" stroke-linejoin="round"/>
<path d="M91.2578 271.137L92.3628 275.005" stroke="#15286A" stroke-width="0.7208" stroke-miterlimit="10" stroke-linecap="round" stroke-linejoin="round"/>
<path d="M92.7969 270.59L94.4619 272.256" stroke="#15286A" stroke-width="0.7208" stroke-miterlimit="10" stroke-linecap="round" stroke-linejoin="round"/>
<path d="M30.3594 424.216L31.4614 421.809" stroke="#15286A" stroke-width="0.7208" stroke-miterlimit="10" stroke-linecap="round" stroke-linejoin="round"/>
<path d="M32.125 424.215L33.231 422.047" stroke="#15286A" stroke-width="0.7208" stroke-miterlimit="10" stroke-linecap="round" stroke-linejoin="round"/>
<path d="M76.2461 424.216L77.3481 421.809" stroke="#15286A" stroke-width="0.7208" stroke-miterlimit="10" stroke-linecap="round" stroke-linejoin="round"/>
<path d="M78.0078 424.215L79.1138 422.047" stroke="#15286A" stroke-width="0.7208" stroke-miterlimit="10" stroke-linecap="round" stroke-linejoin="round"/>
<path d="M94.3125 67.9044C94.3125 71.4344 98.1115 72.8584 98.1115 72.8584V65.1794C98.1115 65.1794 94.3125 62.9504 94.3125 67.9044Z" fill="white" stroke="#15286A" stroke-width="0.7208" stroke-miterlimit="10" stroke-linecap="round" stroke-linejoin="round"/>
<path d="M118.393 67.9044C118.393 71.4344 114.594 72.8584 114.594 72.8584V65.1794C114.594 65.1794 118.393 62.9504 118.393 67.9044Z" fill="white" stroke="#15286A" stroke-width="0.7208" stroke-miterlimit="10" stroke-linecap="round" stroke-linejoin="round"/>
<path d="M87.8589 97.7424C88.6599 93.4994 89.6959 89.1894 92.0849 85.5934C93.6049 83.3054 95.6799 81.7034 98.0369 80.6124C104.455 77.6424 112.024 79.1684 117.3 83.8774C119.485 85.8274 121.542 88.0904 122.407 90.2654C124.55 95.6544 125.046 101.533 125.519 107.313C126.501 119.294 127.466 131.276 128.431 143.259C114.228 145.434 99.7019 145.498 85.4809 143.446C85.1579 143.399 84.8129 143.341 84.5799 143.112C84.2849 142.822 84.2699 142.359 84.2739 141.946C84.4229 127.213 85.1229 112.244 87.8589 97.7424Z" fill="#598AC9" stroke="#15286A" stroke-width="0.7208" stroke-miterlimit="10" stroke-linecap="round" stroke-linejoin="round"/>
<path d="M117.301 83.875C117.301 83.875 125.612 86.789 131.827 112.012C133.567 127.044 127.686 132.925 127.686 132.925C127.686 132.925 125.395 102.85 117.301 83.875Z" fill="#598AC9" stroke="#15286A" stroke-width="0.7208" stroke-miterlimit="10" stroke-linecap="round" stroke-linejoin="round"/>
<path d="M92.8405 84.5742C92.8405 84.5742 84.6765 86.7902 78.4625 112.013C76.7225 127.045 82.6035 132.926 82.6035 132.926C82.6035 132.926 84.7455 103.549 92.8405 84.5742Z" fill="#598AC9" stroke="#15286A" stroke-width="0.7208" stroke-miterlimit="10" stroke-linecap="round" stroke-linejoin="round"/>
<path d="M123.514 122.606C122.84 121.261 115.72 121.18 115.72 121.18L116.017 117.515C114.896 117.285 108.93 122.675 108.93 122.675L109.198 127.481C124.785 128.72 124.809 125.19 123.514 122.606Z" fill="white" stroke="#15286A" stroke-width="0.7208" stroke-miterlimit="10" stroke-linecap="round" stroke-linejoin="round"/>
<path d="M106.351 89.3828C103.258 89.3828 100.75 86.8747 100.75 83.7817V71.4688H111.952V83.7817C111.952 86.8747 109.445 89.3828 106.351 89.3828Z" fill="white"/>
<mask id="mask6_549_490" style="mask-type:luminance" maskUnits="userSpaceOnUse" x="100" y="71" width="12" height="19">
<path d="M106.351 89.3828C103.258 89.3828 100.75 86.8747 100.75 83.7817V71.4688H111.952V83.7817C111.952 86.8747 109.445 89.3828 106.351 89.3828Z" fill="white"/>
</mask>
<g mask="url(#mask6_549_490)">
<path d="M106.351 80.8749C103.258 80.8749 100.75 78.3669 100.75 75.2739V62.9609H111.952V75.2739C111.952 78.3679 109.445 80.8749 106.351 80.8749Z" fill="#15286A" stroke="#15286A" stroke-width="0.7208" stroke-miterlimit="10" stroke-linecap="round" stroke-linejoin="round"/>
</g>
<path d="M106.351 89.3828C103.258 89.3828 100.75 86.8747 100.75 83.7817V71.4688H111.952V83.7817C111.952 86.8747 109.445 89.3828 106.351 89.3828Z" stroke="#15286A" stroke-width="0.7208" stroke-miterlimit="10" stroke-linecap="round" stroke-linejoin="round"/>
<path d="M106.353 79.1052C111.542 79.1052 115.788 74.8592 115.788 69.6702V60.4702C115.788 55.2812 111.542 51.0352 106.353 51.0352C101.164 51.0352 96.918 55.2812 96.918 60.4702V69.6702C96.919 74.8592 101.164 79.1052 106.353 79.1052Z" fill="white" stroke="#15286A" stroke-width="0.7208" stroke-miterlimit="10" stroke-linecap="round" stroke-linejoin="round"/>
<path d="M129.103 112.012H81.1836V138.817H129.103V112.012Z" fill="#FBAF2A" stroke="#15286A" stroke-width="0.7208" stroke-miterlimit="10" stroke-linecap="round" stroke-linejoin="round"/>
<path d="M141.057 152.474C136.553 147.97 123.315 150.836 123.315 150.836L122.223 155.476C132.05 160.39 145.561 156.977 141.057 152.474Z" fill="#90BDDE" stroke="#15286A" stroke-width="0.7208" stroke-miterlimit="10" stroke-linecap="round" stroke-linejoin="round"/>
<path d="M127.41 150.291C127.41 150.291 72.2716 120.266 63.8106 134.459C55.3486 148.653 122.224 155.477 122.224 155.477L127.41 150.291Z" fill="#15286A" stroke="#15286A" stroke-width="0.7208" stroke-miterlimit="10" stroke-linecap="round" stroke-linejoin="round"/>
<path d="M69.1504 152.474C73.6544 147.97 86.8924 150.836 86.8924 150.836L87.9844 155.476C78.1574 160.39 64.6464 156.977 69.1504 152.474Z" fill="#90BDDE" stroke="#15286A" stroke-width="0.7208" stroke-miterlimit="10" stroke-linecap="round" stroke-linejoin="round"/>
<path d="M82.7969 150.291C82.7969 150.291 137.935 120.266 146.396 134.459C154.858 148.653 87.9829 155.477 87.9829 155.477L82.7969 150.291Z" fill="#15286A" stroke="#15286A" stroke-width="0.7208" stroke-miterlimit="10" stroke-linecap="round" stroke-linejoin="round"/>
<path d="M99.4018 49.942C95.5818 52.414 92.4408 57.256 96.9168 66.621C98.1098 55.134 106.352 56.206 106.352 56.206L115.787 62.663C115.787 62.663 119.964 55.091 113.289 50.297C109.214 47.371 103.613 47.217 99.4018 49.942Z" fill="#FBAF2A" stroke="#15286A" stroke-width="0.7208" stroke-miterlimit="10" stroke-linecap="round" stroke-linejoin="round"/>
<path d="M99.6965 77.8633L106.231 87.2143L102.84 90.6053L95.5195 81.1453L99.6965 77.8633Z" fill="white" stroke="#15286A" stroke-width="0.7208" stroke-miterlimit="10" stroke-linecap="round" stroke-linejoin="round"/>
<path d="M113.011 77.8633L106.477 87.2143L109.868 90.6053L117.188 81.1453L113.011 77.8633Z" fill="white" stroke="#15286A" stroke-width="0.7208" stroke-miterlimit="10" stroke-linecap="round" stroke-linejoin="round"/>
<path d="M78.1211 151.93L79.8171 155.477" stroke="#15286A" stroke-width="0.7208" stroke-miterlimit="10" stroke-linecap="round" stroke-linejoin="round"/>
<path d="M80.3359 151.93L82.0329 155.477" stroke="#15286A" stroke-width="0.7208" stroke-miterlimit="10" stroke-linecap="round" stroke-linejoin="round"/>
<path d="M131.059 151.93L129.363 155.477" stroke="#15286A" stroke-width="0.7208" stroke-miterlimit="10" stroke-linecap="round" stroke-linejoin="round"/>
<path d="M128.844 151.93L127.148 155.477" stroke="#15286A" stroke-width="0.7208" stroke-miterlimit="10" stroke-linecap="round" stroke-linejoin="round"/>
<path d="M105.143 122.623C105.988 122.623 106.673 121.938 106.673 121.093C106.673 120.248 105.988 119.562 105.143 119.562C104.298 119.562 103.613 120.248 103.613 121.093C103.613 121.938 104.298 122.623 105.143 122.623Z" stroke="#15286A" stroke-width="0.7208" stroke-miterlimit="10" stroke-linecap="round" stroke-linejoin="round"/>
<path d="M120.804 99.6875H111.32V105.49H120.804V99.6875Z" fill="white" stroke="#15286A" stroke-width="0.7208" stroke-miterlimit="10" stroke-linecap="round" stroke-linejoin="round"/>
<path d="M116.062 98.5039V100.868V98.5039Z" stroke="#15286A" stroke-width="0.7208" stroke-miterlimit="10" stroke-linecap="round" stroke-linejoin="round"/>
<path d="M95.5195 68.7695C95.5195 68.7695 97.3255 73.6145 101.813 75.0625" stroke="#15286A" stroke-width="0.7208" stroke-miterlimit="10" stroke-linecap="round" stroke-linejoin="round"/>
<path d="M101.812 75.0621C101.812 75.7651 102.382 76.3351 103.085 76.3351C103.788 76.3351 104.359 75.7651 104.359 75.0621C104.359 74.3591 103.788 73.7891 103.085 73.7891C102.382 73.7881 101.812 74.3581 101.812 75.0621Z" fill="#285CB1" stroke="#15286A" stroke-width="0.7208" stroke-miterlimit="10" stroke-linecap="round" stroke-linejoin="round"/>
<path d="M93.5781 67.5651C93.5781 68.6381 94.4481 69.5081 95.5211 69.5081V65.6211C94.4481 65.6211 93.5781 66.4911 93.5781 67.5651Z" fill="#285CB1" stroke="#15286A" stroke-width="0.7208" stroke-miterlimit="10" stroke-linecap="round" stroke-linejoin="round"/>
<path d="M119.021 67.5641C119.021 66.4911 118.151 65.6211 117.078 65.6211V69.5081C118.151 69.5071 119.021 68.6371 119.021 67.5641Z" fill="#285CB1" stroke="#15286A" stroke-width="0.7208" stroke-miterlimit="10" stroke-linecap="round" stroke-linejoin="round"/>
<path d="M95.5215 65.619C95.5215 65.619 92.4456 49.668 105.902 49.668C119.358 49.668 117.081 65.619 117.081 65.619" stroke="#15286A" stroke-width="0.7208" stroke-miterlimit="10" stroke-linecap="round" stroke-linejoin="round"/>
<path d="M308.403 65.4496V61.6016H291.387V65.4496H291.75H307.304H308.403Z" fill="#15286A"/>
<path d="M308.403 57.5898H291.387V61.6008H308.403V57.5898Z" fill="#15286A"/>
<path d="M314.182 21.4473C310.787 18.3033 305.577 16.6193 299.914 16.8493C294.196 16.6173 289.008 18.3023 285.613 21.4473C281.605 25.1583 279.876 30.5493 280.987 35.8663C281.706 39.3083 283.774 41.9903 285.963 44.8293C288.63 48.2893 291.389 51.8683 291.389 56.8813V57.5883H293.246H305.931H308.405V56.8813C308.405 51.8673 311.164 48.2893 313.831 44.8293C316.02 41.9903 318.087 39.3093 318.807 35.8663C319.918 30.5493 318.189 25.1583 314.182 21.4473Z" fill="#FBAF2A"/>
<path d="M306.375 64.8398H292.844C293.28 65.8548 294.808 68.0388 299.896 68.0388C305.004 68.0388 306.128 65.8008 306.375 64.8398Z" fill="#15286A"/>
<path d="M302.671 57.5901C302.671 57.5901 302.671 41.4081 302.671 35.5521C302.671 29.6961 308.986 28.6891 311.075 32.4871C313.25 36.4421 307.524 40.4931 299.61 40.4931C291.696 40.4931 285.97 36.4421 288.145 32.4871C290.234 28.6891 296.549 29.6961 296.549 35.5521C296.549 41.4081 296.549 57.5901 296.549 57.5901" stroke="#15286A" stroke-width="0.7208" stroke-miterlimit="10" stroke-linecap="round" stroke-linejoin="round"/>
<path d="M335.883 264.864C324.926 264.864 316.043 255.981 316.043 245.024C316.043 234.067 324.926 225.184 335.883 225.184C346.84 225.184 355.723 234.067 355.723 245.024C355.723 255.981 346.841 264.864 335.883 264.864Z" fill="white"/>
<path d="M324.094 235.374L337.895 251.476L355.722 220.422" stroke="#15286A" stroke-width="0.7208" stroke-miterlimit="10" stroke-linecap="round" stroke-linejoin="round"/>
<path d="M372.808 225.339C366.127 225.339 360.711 219.923 360.711 213.242C360.711 206.561 366.127 201.145 372.808 201.145C379.489 201.145 384.905 206.561 384.905 213.242C384.905 219.923 379.489 225.339 372.808 225.339Z" fill="white"/>
<path d="M365.621 207.358L374.036 217.176L384.906 198.242" stroke="#15286A" stroke-width="0.7208" stroke-miterlimit="10" stroke-linecap="round" stroke-linejoin="round"/>
<path d="M374 76.6903V74.4883H364.266V76.6903H364.473H373.371H374Z" fill="#15286A"/>
<path d="M374.001 72.1953H364.266V74.4903H374.001V72.1953Z" fill="#15286A"/>
<path d="M377.304 51.5181C375.362 49.7191 372.381 48.7561 369.141 48.8871C365.87 48.7541 362.902 49.7191 360.96 51.5181C358.667 53.6411 357.678 56.7251 358.314 59.7671C358.726 61.7361 359.908 63.2711 361.16 64.8951C362.686 66.8741 364.264 68.9221 364.264 71.7901V72.1951H365.326H372.583H373.998V71.7901C373.998 68.9221 375.576 66.8751 377.102 64.8951C378.354 63.2711 379.537 61.7371 379.948 59.7671C380.586 56.7251 379.597 53.6411 377.304 51.5181Z" fill="#FBAF2A"/>
<path d="M372.839 76.3438H365.098C365.347 76.9237 366.221 78.1738 369.132 78.1738C372.055 78.1738 372.698 76.8938 372.839 76.3438Z" fill="#15286A"/>
<path d="M370.721 72.1946C370.721 72.1946 370.721 62.9366 370.721 59.5866C370.721 56.2366 374.334 55.6606 375.529 57.8336C376.773 60.0966 373.497 62.4136 368.97 62.4136C364.443 62.4136 361.167 60.0966 362.411 57.8336C363.606 55.6606 367.219 56.2366 367.219 59.5866C367.219 62.9366 367.219 72.1946 367.219 72.1946" stroke="#15286A" stroke-width="0.7208" stroke-miterlimit="10" stroke-linecap="round" stroke-linejoin="round"/>
<path d="M78.2581 123.766H35.8281V147.81H78.2581V123.766Z" fill="white"/>
<path d="M36.7656 124.82L57.0446 135.787L77.3236 124.82" stroke="#15286A" stroke-width="0.7208" stroke-miterlimit="10" stroke-linecap="round" stroke-linejoin="round"/>
<path d="M53.9846 134.664L36.7656 146.755" stroke="#15286A" stroke-width="0.7208" stroke-miterlimit="10" stroke-linecap="round" stroke-linejoin="round"/>
<path d="M77.3239 146.755L59.0039 134.664" stroke="#15286A" stroke-width="0.7208" stroke-miterlimit="10" stroke-linecap="round" stroke-linejoin="round"/>
<path d="M163.563 73.6055H122.996V96.5945H163.563V73.6055Z" fill="white"/>
<path d="M123.891 74.6133L143.28 85.0993L162.669 74.6133" stroke="#15286A" stroke-width="0.7208" stroke-miterlimit="10" stroke-linecap="round" stroke-linejoin="round"/>
<path d="M140.355 84.0273L123.891 95.5873" stroke="#15286A" stroke-width="0.7208" stroke-miterlimit="10" stroke-linecap="round" stroke-linejoin="round"/>
<path d="M162.668 95.5873L145.152 84.0273" stroke="#15286A" stroke-width="0.7208" stroke-miterlimit="10" stroke-linecap="round" stroke-linejoin="round"/>
<path d="M404.539 366.328C393.582 366.328 384.699 357.446 384.699 346.488C384.699 335.531 393.582 326.648 404.539 326.648C415.496 326.648 424.379 335.53 424.379 346.488C424.378 357.445 415.496 366.328 404.539 366.328Z" fill="white"/>
<path d="M392.75 336.839L406.551 352.94L424.378 321.887" stroke="#15286A" stroke-width="0.7208" stroke-miterlimit="10" stroke-linecap="round" stroke-linejoin="round"/>
<path d="M48.7216 175.855C38.2306 175.855 29.7266 184.36 29.7266 194.85C29.7266 205.34 38.2306 213.845 48.7216 213.845C59.2126 213.845 67.7166 205.34 67.7166 194.85C67.7166 184.36 59.2126 175.855 48.7216 175.855Z" fill="white"/>
<path d="M41.8164 201.758L48.7234 194.85V180.172" stroke="#15286A" stroke-width="0.7208" stroke-miterlimit="10" stroke-linecap="round" stroke-linejoin="round"/>
<path d="M48.7197 193.309C47.8687 193.309 47.1797 193.999 47.1797 194.849C47.1797 195.699 47.8697 196.389 48.7197 196.389C49.5697 196.389 50.2597 195.699 50.2597 194.849C50.2597 193.999 49.5707 193.309 48.7197 193.309Z" fill="#15286A"/>
<path d="M92.7127 312.051H87.2147C86.7437 312.051 86.4297 312.358 86.4297 312.819V343.548C86.4297 344.009 86.7437 344.316 87.2147 344.316H120.201C120.672 344.316 120.987 344.009 120.987 343.548V312.819C120.987 312.358 120.673 312.051 120.201 312.051H114.703M111.562 312.051H95.8547Z" fill="white"/>
<path d="M92.7109 323.574H114.702V339.707H107.634H92.7119L92.7109 323.574Z" stroke="#15286A" stroke-width="0.7208" stroke-miterlimit="10" stroke-linecap="round" stroke-linejoin="round"/>
<path d="M120.987 312.051H86.4297V319.407H120.987V312.051Z" fill="#285CB1" stroke="#15286A" stroke-width="0.7208" stroke-miterlimit="10" stroke-linecap="round" stroke-linejoin="round"/>
<path d="M92.7109 328.953H114.702" stroke="#15286A" stroke-width="0.7208" stroke-miterlimit="10" stroke-linecap="round" stroke-linejoin="round"/>
<path d="M92.7109 334.332H114.702" stroke="#15286A" stroke-width="0.7208" stroke-miterlimit="10" stroke-linecap="round" stroke-linejoin="round"/>
<path d="M103.707 323.574V339.707" stroke="#15286A" stroke-width="0.7208" stroke-miterlimit="10" stroke-linecap="round" stroke-linejoin="round"/>
<path d="M98.2109 323.574V339.707" stroke="#15286A" stroke-width="0.7208" stroke-miterlimit="10" stroke-linecap="round" stroke-linejoin="round"/>
<path d="M109.207 323.574V339.707" stroke="#15286A" stroke-width="0.7208" stroke-miterlimit="10" stroke-linecap="round" stroke-linejoin="round"/>
<path d="M113.919 315.125H112.348C111.914 315.125 111.562 314.781 111.562 314.357V309.748C111.562 309.324 111.915 308.98 112.348 308.98H113.919C114.353 308.98 114.704 309.324 114.704 309.748V314.357C114.705 314.781 114.353 315.125 113.919 315.125Z" fill="#033C91"/>
<path d="M95.0669 315.125H93.4959C93.0629 315.125 92.7109 314.781 92.7109 314.357V309.748C92.7109 309.324 93.0629 308.98 93.4959 308.98H95.0669C95.5009 308.98 95.8519 309.324 95.8519 309.748V314.357C95.8519 314.781 95.5009 315.125 95.0669 315.125Z" fill="#033C91"/>
</svg>
